<?xml version="1.0" standalone="no"?>
<!DOCTYPE svg PUBLIC "-//W3C//DTD SVG 20010904//EN"
 "http://www.w3.org/TR/2001/REC-SVG-20010904/DTD/svg10.dtd">
<svg version="1.0" xmlns="http://www.w3.org/2000/svg"
 width="1080.000000pt" height="1080.000000pt" viewBox="0 0 1080.000000 1080.000000"
 preserveAspectRatio="xMidYMid meet">
<metadata>
Created by potrace 1.11, written by Peter Selinger 2001-2013
</metadata>
<g transform="translate(0.000000,1080.000000) scale(0.100000,-0.100000)"
fill="#000000" stroke="none">
<path d="M4990 10789 c-678 -47 -1419 -255 -2045 -574 -1011 -516 -1844 -1349
-2360 -2360 -325 -638 -528 -1367 -575 -2073 -13 -197 -13 -567 0 -764 47
-706 250 -1435 575 -2073 432 -847 1100 -1584 1895 -2092 105 -68 116 -72 127
-57 11 14 13 856 13 4291 0 4031 1 4274 17 4309 32 67 61 74 310 74 292 0 774
16 1068 35 827 52 1502 73 1831 57 660 -33 1101 -132 1560 -351 480 -230 797
-527 1013 -949 197 -388 272 -745 273 -1302 0 -352 -19 -561 -78 -820 -120
-534 -408 -1016 -794 -1326 -154 -123 -373 -259 -508 -315 l-52 -22 83 -86
c103 -107 196 -231 322 -430 210 -330 402 -717 716 -1443 218 -502 503 -1120
520 -1126 6 -2 23 -15 38 -28 l29 -24 138 129 c354 328 694 754 959 1201 408
689 671 1540 725 2348 22 333 10 767 -31 1067 -86 643 -262 1217 -544 1770
-516 1011 -1349 1844 -2360 2360 -638 325 -1367 528 -2073 575 -178 12 -611
11 -792 -1z"/>
<path d="M4965 8319 c-208 -8 -483 -33 -647 -57 l-113 -17 -3 -1452 c-2 -1376
-1 -1452 15 -1457 27 -8 685 -26 971 -26 496 0 752 34 1050 142 289 104 548
328 675 583 72 144 124 331 153 545 20 149 23 454 5 580 -55 387 -147 599
-340 783 -128 122 -237 187 -418 250 -326 114 -735 152 -1348 126z"/>
<path d="M4683 4143 l-483 -3 0 -2004 c0 -1901 1 -2005 18 -2010 110 -33 580
-101 796 -115 339 -23 769 -11 1071 30 500 67 880 166 1368 359 104 42 107 44
107 74 0 19 -27 85 -69 166 -156 306 -369 802 -576 1344 -348 911 -491 1225
-711 1556 -169 255 -313 411 -482 521 -127 83 -154 89 -370 87 -103 -2 -404
-4 -669 -5z"/>
</g>
</svg>
