<svg xmlns="http://www.w3.org/2000/svg" xmlns:xlink="http://www.w3.org/1999/xlink" id="Calque_1" data-name="Calque 1" viewBox="0 0 70.72 84.07"><defs><linearGradient id="D&#xE9;grad&#xE9;_sans_nom_3" x1="2144.11" y1="-466.57" x2="2145.02" y2="-466.09" gradientTransform="matrix(64.85, 0, 0, -76.39, -139033.09, -35586.21)" gradientUnits="userSpaceOnUse"><stop offset="0.01" stop-color="#1d3e7d"></stop><stop offset="0.41" stop-color="#203c78"></stop><stop offset="0.75" stop-color="#24366f"></stop><stop offset="0.95" stop-color="#263166"></stop></linearGradient><linearGradient id="D&#xE9;grad&#xE9;_sans_nom_2" x1="2124.51" y1="-753.77" x2="2124.48" y2="-751.86" gradientTransform="matrix(40.61, 0, 0, -4.26, -86236.17, -3145.36)" gradientUnits="userSpaceOnUse"><stop offset="0" stop-color="#fff"></stop><stop offset="0.03" stop-color="#f4f4f4"></stop><stop offset="0.08" stop-color="#dbdbdb"></stop><stop offset="0.12" stop-color="#bebdbd"></stop><stop offset="0.2" stop-color="#c8c8c7"></stop><stop offset="0.33" stop-color="#e1e1e0"></stop><stop offset="0.45" stop-color="#fff"></stop><stop offset="0.51" stop-color="#f4f4f4"></stop><stop offset="0.6" stop-color="#dbdbdb"></stop><stop offset="0.66" stop-color="#c8c8c8"></stop><stop offset="0.75" stop-color="#cccbcb"></stop><stop offset="0.85" stop-color="#d8d9d9"></stop><stop offset="0.95" stop-color="#eeeeef"></stop><stop offset="1" stop-color="#fff"></stop></linearGradient><linearGradient id="D&#xE9;grad&#xE9;_sans_nom_5" x1="2146.86" y1="-464.94" x2="2147.85" y2="-464.74" gradientTransform="matrix(70.72, 0, 0, -84.07, -151834.61, -39039.74)" gradientUnits="userSpaceOnUse"><stop offset="0.01" stop-color="#d1d0d0"></stop><stop offset="0.06" stop-color="#fff"></stop><stop offset="0.08" stop-color="#f4f4f5"></stop><stop offset="0.11" stop-color="#dbdbdc"></stop><stop offset="0.15" stop-color="#b0b2b7"></stop><stop offset="0.19" stop-color="#84878e"></stop><stop offset="0.26" stop-color="#868a91"></stop><stop offset="0.3" stop-color="#8e9198"></stop><stop offset="0.33" stop-color="#9da0a6"></stop><stop offset="0.36" stop-color="#b1b5ba"></stop><stop offset="0.39" stop-color="#c6c9ce"></stop><stop offset="0.42" stop-color="#ced1d5"></stop><stop offset="0.49" stop-color="#e8e9eb"></stop><stop offset="0.53" stop-color="#fff"></stop><stop offset="0.55" stop-color="#f4f4f4"></stop><stop offset="0.57" stop-color="#dbdbdc"></stop><stop offset="0.61" stop-color="#b0b0b4"></stop><stop offset="0.66" stop-color="#74767d"></stop><stop offset="0.66" stop-color="#6f7078"></stop><stop offset="0.69" stop-color="#73747c"></stop><stop offset="0.73" stop-color="#808086"></stop><stop offset="0.77" stop-color="#97979c"></stop><stop offset="0.81" stop-color="#b6b6ba"></stop><stop offset="0.85" stop-color="#dcdcdf"></stop><stop offset="0.88" stop-color="#fff"></stop><stop offset="1" stop-color="#9fa2aa"></stop></linearGradient><linearGradient id="D&#xE9;grad&#xE9;_sans_nom_5-2" x1="2146.2" y1="-464.71" x2="2146.96" y2="-465.42" gradientTransform="matrix(69.02, 0, 0, -82.49, -148124.82, -38326.98)" xlink:href="#D&#xE9;grad&#xE9;_sans_nom_5"></linearGradient><linearGradient id="D&#xE9;grad&#xE9;_sans_nom_5-3" x1="2144.12" y1="-466.61" x2="2144.98" y2="-466.02" gradientTransform="matrix(64.85, 0, 0, -76.39, -139036.39, -35585.74)" xlink:href="#D&#xE9;grad&#xE9;_sans_nom_5"></linearGradient></defs><g id="Groupe_1588" data-name="Groupe 1588"><g id="Calque_1-2" data-name="Calque 1"><g id="Groupe_1585" data-name="Groupe 1585"><path id="Trac&#xE9;_4200" data-name="Trac&#xE9; 4200" d="M61.38,9.52C53.25,3.22,27.07,0,9.54,9.29-13.34,57.23,31.28,79.77,35.38,79.84,38.15,80.71,84.69,57.32,61.38,9.52Z" style="fill:url(#D&#xE9;grad&#xE9;_sans_nom_3)"></path><path id="Trac&#xE9;_4201" data-name="Trac&#xE9; 4201" d="M60.06,10.89c-7.75-6-32.71-9.1-49.41-.21C-11.16,56.37,31.37,77.86,35.28,77.92,37.92,78.76,82.27,56.46,60.06,10.89ZM35.3,77.21C26.12,74.82-8.45,52.5,11.08,11.56c14.86-8.64,40.29-6.37,48.54,0,19.9,40.82-16,63.77-24.32,65.65Z" style="fill:#ffe800"></path><g id="Groupe_1581" data-name="Groupe 1581"><g id="Groupe_1580" data-name="Groupe 1580"><path id="Trac&#xE9;_4202" data-name="Trac&#xE9; 4202" d="M30.23,8.07V12H29.1V9a2.19,2.19,0,0,1-.83.23V8.75a1.51,1.51,0,0,0,1.25-.68Z" style="fill:#fff"></path><path id="Trac&#xE9;_4203" data-name="Trac&#xE9; 4203" d="M31.81,11l.54-.1a1.53,1.53,0,0,0,0,.3.46.46,0,0,0,.39.53.29.29,0,0,0,.13,0,.51.51,0,0,0,.51-.27,3.41,3.41,0,0,0,.21-1.1,1.14,1.14,0,0,1-1.61,0h0a1.28,1.28,0,0,1-.33-.91,1.29,1.29,0,0,1,.4-1A1.54,1.54,0,0,1,33.08,8q1.71,0,1.71,2a2.09,2.09,0,0,1-.49,1.48A1.76,1.76,0,0,1,33,12c-.76,0-1.15-.28-1.15-.83C31.8,11.14,31.81,11.06,31.81,11Zm1.37-2.66c-.29,0-.44.36-.44,1.08s.13.87.38.87.48-.31.48-.94-.14-1-.43-1Z" style="fill:#fff"></path><path id="Trac&#xE9;_4204" data-name="Trac&#xE9; 4204" d="M37.61,8.07V12H36.48V9a2.19,2.19,0,0,1-.83.23V8.75a1.51,1.51,0,0,0,1.25-.68Z" style="fill:#fff"></path><path id="Trac&#xE9;_4205" data-name="Trac&#xE9; 4205" d="M41.3,8.07V12H40.17V9a2.24,2.24,0,0,1-.84.23V8.75a1.5,1.5,0,0,0,1.25-.68Z" style="fill:#fff"></path></g></g><path id="Trac&#xE9;_4206" data-name="Trac&#xE9; 4206" d="M15.91,62.29c9.71-3.22,28.52-3,39-.11.55-1.08.41-.77.72-1.45C45.23,57,24.41,57.22,15,60.83Z" style="fill:url(#D&#xE9;grad&#xE9;_sans_nom_2)"></path><path id="Trac&#xE9;_4207" data-name="Trac&#xE9; 4207" d="M42.84,58.57,42.3,54.7l-7.87-1-8.76.88,0-7.69H23.9V45.5h.38v1.07h1.2l0-1.07h.65V43.68H23.89V42.33h2.22v-.24H18.53V40.63H20v.91h1.81v-1h1.64v.93h1.82v-.92h1.44v1.51h-.38V53.72l8.07-.85,7.82,1,.08.84L42,51.89l-7.67-1-7,.56v-8h.48V41.37l-1-.94H24.94v.94h-.58V40.9l-.67-.47H21.44v.94H21l-.76-.94H18.29v1.9H19l.11,11.5-1.84,6.49a18.26,18.26,0,0,0-1.85.62c.25.39-.11-.2.62,1,9.6-3.09,28.05-3,38.72-.07a5.79,5.79,0,0,0,.45-1A53.8,53.8,0,0,0,42.84,58.57Zm-18-14.69H26.1v1.43h-.63v-.88h-.6Zm-.22,0v.55h-.38v.88H22.72V43.88Zm-4.25.56v-.56h2.1v1.43H20.81v-.86Zm1.29,1.05h2v1.35h-2Zm-.05-3.17h2.05v1.36H21.64Zm-2.4,0h2.2v1.36h-2.2Zm0,1.56h1v.57h-.49v.86h-.49Zm0,1.61h.48v1.07h1.1V45.49h.69v1.35H19.24Z" style="fill:#f3f2f3"></path><g id="Groupe_1583" data-name="Groupe 1583"><g id="Groupe_1582" data-name="Groupe 1582"><path id="Trac&#xE9;_4208" data-name="Trac&#xE9; 4208" d="M34.05,68.61V69.9H29.88v-.76c.34-.36.73-.75,1.18-1.16,1-.91,1.48-1.61,1.48-2.09,0-.64-.26-1-.8-1s-1,.39-1,1.17a2.9,2.9,0,0,0,.14.78l-.87-.2a2.51,2.51,0,0,1-.1-.6c0-1.09.7-1.64,2.1-1.64a2.42,2.42,0,0,1,1.46.42,1.28,1.28,0,0,1,.58,1.08c0,.51-.38,1-1.14,1.65l-.5.39-.57.45-.26.18Z" style="fill:#fff"></path><path id="Trac&#xE9;_4209" data-name="Trac&#xE9; 4209" d="M39.78,64.52l-.21,1.13H36.91l-.21,1.16a2.52,2.52,0,0,1,1.4-.44,2.08,2.08,0,0,1,1.43.49,1.61,1.61,0,0,1,.56,1.26,1.66,1.66,0,0,1-.63,1.37,2.65,2.65,0,0,1-1.7.51c-1.29,0-1.93-.43-1.93-1.28a2.31,2.31,0,0,1,.05-.46l.73-.14a2.32,2.32,0,0,0-.07.59c0,.53.3.8.89.8s1.06-.49,1.06-1.46c0-.68-.3-1-.9-1a1.22,1.22,0,0,0-1,.56L36,67.43l.52-2.91Z" style="fill:#fff"></path></g></g><path id="Trac&#xE9;_4210" data-name="Trac&#xE9; 4210" d="M63.73,6.56C53.29-.69,24.29-3.56,6.88,6.56-16,54.5,24.57,81.91,35.37,84.07,45.48,82.72,87,54.37,63.73,6.56ZM35.37,79.11C25.74,76.6-10.54,53.18,10,10.24c15.59-9.08,43.63-6.68,50.92,0C81.75,53.06,44.08,77.14,35.37,79.11Z" style="fill:url(#D&#xE9;grad&#xE9;_sans_nom_5)"></path><path id="Trac&#xE9;_4211" data-name="Trac&#xE9; 4211" d="M63,7.21C52.54,0,25.12-2.92,7.71,7.21-15.17,55.14,25.84,81.14,35.38,83.13,43.87,82.05,86.28,55,63,7.21ZM35.37,79.11C25.74,76.6-10.54,53.18,10,10.24c15.59-9.08,43.63-6.68,50.92,0C81.75,53.06,44.08,77.14,35.37,79.11Z" style="fill:url(#D&#xE9;grad&#xE9;_sans_nom_5-2)"></path><path id="Trac&#xE9;_4212" data-name="Trac&#xE9; 4212" d="M61.35,9.53C53.21,3.23,27,0,9.5,9.31-13.38,57.24,31.24,79.79,35.34,79.85,38.12,80.73,84.65,57.34,61.35,9.53Zm-26,69.58C25.74,76.6-10.54,53.18,10,10.24c15.59-9.08,42.26-6.69,50.92,0C81.75,53.06,44.08,77.14,35.37,79.11Z" style="fill:url(#D&#xE9;grad&#xE9;_sans_nom_5-3)"></path><g id="Groupe_1584" data-name="Groupe 1584"><path id="Trac&#xE9;_4213" data-name="Trac&#xE9; 4213" d="M45.16,49.7a2.66,2.66,0,0,0-.42-.63,1,1,0,0,1-.3-.62,3.4,3.4,0,0,1,.22-1.14,9.65,9.65,0,0,1,.84-1.78,2.41,2.41,0,0,1,.63-.47,2.66,2.66,0,0,1,1.22-.45v-.16a.2.2,0,0,1-.09-.13c0-.09-.12-.15-.14-.26s-.06-.41.17-.26c0-.27.05-1.17.89-1.16s1,.92,1,1.06-.08.29,0,.35a1,1,0,0,1-.12.62,3.82,3.82,0,0,1,.46.21.66.66,0,0,0,.29.17,1.67,1.67,0,0,1,.56.39,1.72,1.72,0,0,0,.27.27,3.78,3.78,0,0,1,.64.9,1,1,0,0,1,.09.47,2.54,2.54,0,0,0,.16.28c.08.12,0,.18.1.27a7.07,7.07,0,0,1,.27.69c.14.32.24.69.33.83s.08.28,0,.33a2.12,2.12,0,0,1,.34.39.2.2,0,0,1-.08.28l0,0s0,.06,0,.06.22.21.1.25,0,.33-.08.35a.2.2,0,0,1-.19.14.43.43,0,0,1-.22.09.26.26,0,0,1-.37-.06v0a.47.47,0,0,1-.14-.32c0-.07,0-.14,0-.21s-.11-.13-.06-.22.1-.19,0-.26-.13-.19-.09-.23.06,0,0-.09a.09.09,0,0,1,0-.13s0-.08,0-.14-.15-.28-.22-.43-.13-.33-.21-.4a2.34,2.34,0,0,1-.69-.78c-.23-.45-.32-.73-.37-.72s-.06,0-.11,0-.07,0-.07,0a2.75,2.75,0,0,1-.05.57c-.06.19-.15.31-.13.47a1.53,1.53,0,0,0,.07.36.8.8,0,0,1,.06.37c0,.15-.07.14-.16.44s-.07.42-.17.44-.21,0-.17.14.11.16,0,.22-.08,0,0,.13a3.12,3.12,0,0,1,.15.43.86.86,0,0,1,0,.42.76.76,0,0,1,0,.14.15.15,0,0,1,.15.15h0a5,5,0,0,0,.12.76,4.54,4.54,0,0,0,.09.51s.14.09.08.14,0,0,0,.11a11,11,0,0,1,0,1.16.09.09,0,0,1,0,.1s0,.16,0,.18,0,0,0,0a1.46,1.46,0,0,1-.22.76.59.59,0,0,1-.23.46,1.18,1.18,0,0,1-.67,0,1,1,0,0,1,.18.41.77.77,0,0,0,.09.36,1.73,1.73,0,0,1,.14.31c0,.13.14.23.19.39a.89.89,0,0,0,.17.37,1.89,1.89,0,0,1,.32.37l.06.14a.42.42,0,0,1,.1.2c0,.15.07.37.08.42s-.06,0-.06,0a.11.11,0,0,1,0,.11.09.09,0,0,1-.1,0,.14.14,0,0,1-.1.18,1.39,1.39,0,0,1-.81.09c-.35-.06-.3-.2-.2-.28a.45.45,0,0,0,.16-.3c0-.11,0-.41,0-.44s0-.1,0-.12,0,0,0,0,0,0,0-.06,0-.16-.18-.25a1.59,1.59,0,0,1-.47-.46c-.13-.21-.19-.17-.29-.29a.83.83,0,0,1-.26-.35.84.84,0,0,0-.13-.27.49.49,0,0,1-.13-.28.44.44,0,0,0-.1-.22.3.3,0,0,1-.06-.22c0-.13,0-.2,0-.19s0,0,0,0a1,1,0,0,1-.08-.28c0-.21-.08-.22-.22-.43s-.22-.35-.22-.35-.08,0-.1,0a1.59,1.59,0,0,0-.15-.29,1.32,1.32,0,0,0-.39-.15,1,1,0,0,0-.3,0s0,.17-.13.17a1.53,1.53,0,0,0-.3,0c-.08,0-.15.09-.2.09s-.07,0-.11.06a3.06,3.06,0,0,1-.35.37c-.14.1-.4.06-.42-.11s-.1-.05-.1-.13A.11.11,0,0,1,44,54a.57.57,0,0,1,0-.14c0-.07,0-.1.1-.14s.07-.15.07-.15,0-.16,0-.22.09,0,.09,0l.25-.34c.11-.13.14-.14.13-.16a2,2,0,0,1-.07-.23c0-.12,0-.12.06-.16s.1,0,.1,0,.07,0,.07-.08-.09-.2,0-.25.1-.09.13-.08,0,0,0,0,0-.07.07-.1a.1.1,0,0,1,.13,0,.14.14,0,0,1,.18,0,1.42,1.42,0,0,1,.05-.16,1.88,1.88,0,0,0-.05-.33c0-.14-.09-.16-.08-.37s.1-.23,0-.31a.72.72,0,0,1-.23-.39c0-.18,0-.18,0-.32s0-.08,0-.23A2.43,2.43,0,0,0,45.16,49.7Z" style="fill:#fff"></path><path id="Trac&#xE9;_4214" data-name="Trac&#xE9; 4214" d="M54.25,58.72a1.26,1.26,0,0,1-2.51.1,1.26,1.26,0,0,1,1.2-1.31H53A1.24,1.24,0,0,1,54.25,58.72Z" style="fill:#ffe800"></path></g></g><path id="Trac&#xE9;_4215" data-name="Trac&#xE9; 4215" d="M37.15,14.91l4.48,15.51h-4.7l-1-3.36H31.12l-1,3.36H28.27L33,14.91ZM31.59,25.5h3.95l-1.9-6.87Z" style="fill:#fff"></path><path id="Trac&#xE9;_4216" data-name="Trac&#xE9; 4216" d="M24.19,24.45l2,.2c.09.38.16.72.21,1a4.36,4.36,0,0,1-1.1,3.82,7,7,0,0,1-4.29,2q-7.08,1.07-8.33-6.6a8.41,8.41,0,0,1,1.1-6.21,6.93,6.93,0,0,1,5-3.08c3.44-.52,5.43.81,5.95,4L23,20.78c-.05-.46-.1-.81-.14-1.05-.37-2.26-1.49-3.25-3.38-3s-2.59,2.85-1.81,7.65c.68,4.12,2.12,6,4.35,5.68a2.93,2.93,0,0,0,2.12-1.4,3.9,3.9,0,0,0,.49-2.77A12.23,12.23,0,0,0,24.19,24.45Z" style="fill:#fff"></path></g><g id="Calque_3" data-name="Calque 3"><g id="Groupe_1587" data-name="Groupe 1587"><g id="Groupe_1586" data-name="Groupe 1586"><path id="Trac&#xE9;_4217" data-name="Trac&#xE9; 4217" d="M19.06,38.14V34.27H20.8c1,0,1.48.38,1.48,1.14s-.55,1.14-1.65,1.15h-.4v1.58Zm1.17-1.94h.26c.42,0,.64-.27.64-.81s-.22-.77-.64-.77h-.26Z" style="fill:#ffe800"></path><path id="Trac&#xE9;_4218" data-name="Trac&#xE9; 4218" d="M24.32,34.2c1.17,0,1.76.67,1.76,2s-.6,2-1.8,2-1.79-.68-1.79-2.05S23.1,34.2,24.32,34.2Zm0,.31a.44.44,0,0,0-.44.35,7.6,7.6,0,0,0,0,2.69.46.46,0,0,0,.56.34.46.46,0,0,0,.33-.34,7.6,7.6,0,0,0,0-2.69.43.43,0,0,0-.45-.35Z" style="fill:#ffe800"></path><path id="Trac&#xE9;_4219" data-name="Trac&#xE9; 4219" d="M29.54,34.27v3.87h-.9L27,35.69v2.45h-.39V34.27h.74l1.84,2.65V34.27Z" style="fill:#ffe800"></path><path id="Trac&#xE9;_4220" data-name="Trac&#xE9; 4220" d="M33,34.27v.39h-1v3.48H30.81V34.66h-1v-.39Z" style="fill:#ffe800"></path><path id="Trac&#xE9;_4221" data-name="Trac&#xE9; 4221" d="M35.17,34.27l1.13,3.87H35.12l-.24-.84H33.67l-.26.84H33l1.19-3.87Zm-1.39,2.65h1L34.3,35.2Z" style="fill:#ffe800"></path><path id="Trac&#xE9;_4222" data-name="Trac&#xE9; 4222" d="M36.61,38.14V34.27h1.74a1.87,1.87,0,0,1,1.08.27.87.87,0,0,1,.4.73c0,.47-.29.78-.87.92a1.25,1.25,0,0,1,.58.35,1.71,1.71,0,0,1,.17.74,1.73,1.73,0,0,0,.23.86H38.68a1.53,1.53,0,0,1-.12-.67V37c0-.45-.19-.67-.56-.67h-.2v1.86ZM37.78,36H38a.67.67,0,0,0,0-1.34h-.24Z" style="fill:#ffe800"></path><path id="Trac&#xE9;_4223" data-name="Trac&#xE9; 4223" d="M41.6,34.27v3.49h1.66v.38H40.43V34.27Z" style="fill:#ffe800"></path><path id="Trac&#xE9;_4224" data-name="Trac&#xE9; 4224" d="M44.68,34.27v3.87H43.51V34.27Z" style="fill:#ffe800"></path><path id="Trac&#xE9;_4225" data-name="Trac&#xE9; 4225" d="M48,34.27v.39H46.54v1.17h1.22v.39H46.54v1.54h1.69v.38H45.38V34.27Z" style="fill:#ffe800"></path><path id="Trac&#xE9;_4226" data-name="Trac&#xE9; 4226" d="M48.6,38.14V34.27h1.73a1.85,1.85,0,0,1,1.08.27.83.83,0,0,1,.4.73c0,.47-.29.78-.87.92a1.15,1.15,0,0,1,.58.35,1.59,1.59,0,0,1,.18.74,1.73,1.73,0,0,0,.23.86H50.66a1.53,1.53,0,0,1-.12-.67V37c0-.45-.18-.67-.56-.67h-.2v1.86ZM49.77,36H50a.68.68,0,0,0,.65-.69.69.69,0,0,0-.65-.65h-.23Z" style="fill:#ffe800"></path></g></g></g><g id="Calque_2" data-name="Calque 2"><path id="Trac&#xE9;_4227" data-name="Trac&#xE9; 4227" d="M44.2,30.67l2.48-15.32,6.87,1c3.9.58,5.6,2.37,5.12,5.37s-2.9,4.23-7.24,3.58l-1.6-.24-1,6.27Zm5.86-7,1,.15c1.68.26,2.7-.69,3-2.83s-.35-3.13-2-3.38l-1-.16Z" style="fill:#fff"></path></g></g></svg>