<svg xmlns="http://www.w3.org/2000/svg" xmlns:xlink="http://www.w3.org/1999/xlink" id="Calque_1" data-name="Calque 1" viewBox="0 0 167.41 167.41"><defs><style>.cls-1{fill:url(#Dégradé_sans_nom_8);}</style><linearGradient id="D&#xE9;grad&#xE9;_sans_nom_8" x1="137.49" y1="19.62" x2="29.93" y2="147.8" gradientUnits="userSpaceOnUse"><stop offset="0" stop-color="#fdc300"></stop><stop offset="0.04" stop-color="#f3bc07"></stop><stop offset="0.3" stop-color="#ad8a34"></stop><stop offset="0.54" stop-color="#766258"></stop><stop offset="0.74" stop-color="#4e4671"></stop><stop offset="0.9" stop-color="#363481"></stop><stop offset="1" stop-color="#2d2e87"></stop></linearGradient></defs><path class="cls-1" d="M63.65,93.32a2.36,2.36,0,0,0-.5-1.31l-3.91-8.77-1.58-3.55q-.66,2.52-1.49,5.07c-.09.28-.18.57-.28.85a108,108,0,0,1-5.44,13.31,28.32,28.32,0,0,1,5-1.64,21,21,0,0,1,2.07-.39c3.57-.53,5.15-1.45,5.79-2.35A1.83,1.83,0,0,0,63.65,93.32Zm0,0a2.36,2.36,0,0,0-.5-1.31l-3.91-8.77-1.58-3.55q-.66,2.52-1.49,5.07c-.09.28-.18.57-.28.85a108,108,0,0,1-5.44,13.31,28.32,28.32,0,0,1,5-1.64,21,21,0,0,1,2.07-.39c3.57-.53,5.15-1.45,5.79-2.35A1.83,1.83,0,0,0,63.65,93.32ZM98.87,1.38c-.5-.1-1-.19-1.52-.26C96.09.9,94.83.73,93.55.58c-2.1-.25-4.23-.42-6.37-.5H87C85.88,0,84.8,0,83.71,0s-2.15,0-3.22.07h-.23c-2.15.07-4.27.25-6.37.5-1.28.14-2.56.32-3.82.54-.5.07-1,.16-1.5.25a83.66,83.66,0,0,0-43.49,142l.37.36a83.55,83.55,0,0,0,116.51,0l.39-.37.52-.51a83.67,83.67,0,0,0-44-141.49ZM124.36,14a81,81,0,0,1,38,51.45c-11.43-14.42-30.13-25.4-52.45-30.28A46.18,46.18,0,0,1,124.36,14ZM68.1,4.53a76.08,76.08,0,0,1,11.18-1.4l.3,0C81,3,82.32,3,83.71,3s2.77,0,4.15.11l.3,0a76.08,76.08,0,0,1,11.18,1.4,80.2,80.2,0,0,1,20,6.81,67.41,67.41,0,0,0-15,22.82c-1.28-.21-2.57-.41-3.87-.57-.33-.06-.67-.1-1-.14-1.93-.26-3.89-.45-5.87-.6-2.64-.22-5.31-.34-8-.38-.4-14.1-1.08-23.38-1.86-23.38s-1.46,9.28-1.86,23.38q-4,.06-8,.37-3,.22-5.88.6l-1,.14c-1.31.17-2.6.37-3.89.58A67.41,67.41,0,0,0,48,11.34,79.62,79.62,0,0,1,68.1,4.53ZM26.68,26.68A81.43,81.43,0,0,1,43,14,46,46,0,0,1,57.55,35.2a112,112,0,0,0-17.14,5.21C25.71,46.24,13.46,54.94,5.1,65.48A80.69,80.69,0,0,1,26.68,26.68ZM21.45,134.61l-.2.15-.12-.15A80.37,80.37,0,0,1,3.68,94C7.08,72.77,22.81,54.71,44.8,44.81h0a90.28,90.28,0,0,1,14.12-5,60.9,60.9,0,0,1,1.35,7.09,71.87,71.87,0,0,1,.51,13.31c0,.18,0,.37,0,.55h0a.41.41,0,0,1,0,.11,87.72,87.72,0,0,1-1.14,9.92q-.54,3.12-1.3,6.32c-.21.85-.42,1.7-.66,2.56q-.66,2.52-1.49,5.07c-.09.28-.18.57-.28.85a108,108,0,0,1-5.44,13.31l-.86,1.72a107.81,107.81,0,0,1-6.22,10.6c-.41.62-.83,1.24-1.25,1.85-.69,1-1.38,1.94-2.1,2.88s-1.31,1.73-2,2.57l-.47.58A86,86,0,0,1,21.45,134.61Zm62.26,29.8a80.27,80.27,0,0,1-49-16.64c13.18-12.37,24.23-32.26,30-53.23.12-.41.23-.81.33-1.22A116.09,116.09,0,0,0,68.8,68.8a91.5,91.5,0,0,0-.2-11.14c0-.17,0-.34,0-.51-.09-1-.19-1.92-.31-2.87a82.51,82.51,0,0,0-1.83-9.82c-.5-2.05-1.08-4-1.72-6q2.67-.52,5.42-.9l.82-.11L73,37.23c.32,0,.64-.08,1-.11,2.54-.24,5.12-.4,7.74-.44-.18,7.49-.27,16.09-.27,25.23,0,7,0,13.63.16,19.72.33,19.41,1.14,33.12,2.08,33.12s1.63-11.81,2-29c.15-7.15.24-15.23.24-23.8,0-9.14-.1-17.74-.27-25.23q4.42.09,8.72.55c.7.07,1.4.16,2.1.25l.82.11c1.82.25,3.63.54,5.4.9-.64,1.93-1.21,3.91-1.72,6a84.74,84.74,0,0,0-1.83,9.83c-.12.95-.22,1.9-.3,2.86,0,.17,0,.33-.05.5-1,11.42.45,23.76,3.63,35.78h0c.09.34.18.67.28,1a128.56,128.56,0,0,0,4,12.29c6.19,16.31,15.4,31.11,26,41.05A80.26,80.26,0,0,1,83.71,164.41Zm62.57-29.8-.12.15-.2-.15a86.72,86.72,0,0,1-16.08-15.44l-.47-.58c-.68-.85-1.35-1.72-2-2.6s-1.41-1.92-2.1-2.9c-.42-.6-.83-1.21-1.24-1.82a108.68,108.68,0,0,1-6.23-10.65c-.29-.57-.58-1.14-.86-1.71a104.33,104.33,0,0,1-5.44-13.31c-.1-.28-.19-.56-.28-.84-.54-1.7-1-3.38-1.48-5-.24-.86-.46-1.72-.66-2.57-.51-2.13-1-4.23-1.3-6.31a85.85,85.85,0,0,1-1.16-10c0-.23,0-.46,0-.69a71.68,71.68,0,0,1,.53-13.3,58.71,58.71,0,0,1,1.34-7.08C137.68,47.5,159.61,68.43,163.74,94A80.43,80.43,0,0,1,146.28,134.61ZM63.65,93.32a2.36,2.36,0,0,0-.5-1.31l-3.91-8.77-1.58-3.55q-.66,2.52-1.49,5.07c-.09.28-.18.57-.28.85a108,108,0,0,1-5.44,13.31,28.32,28.32,0,0,1,5-1.64,21,21,0,0,1,2.07-.39c3.57-.53,5.15-1.45,5.79-2.35A1.83,1.83,0,0,0,63.65,93.32Zm0,0a2.36,2.36,0,0,0-.5-1.31l-3.91-8.77-1.58-3.55q-.66,2.52-1.49,5.07c-.09.28-.18.57-.28.85a108,108,0,0,1-5.44,13.31,28.32,28.32,0,0,1,5-1.64,21,21,0,0,1,2.07-.39c3.57-.53,5.15-1.45,5.79-2.35A1.83,1.83,0,0,0,63.65,93.32Z"></path></svg>