<svg xmlns="http://www.w3.org/2000/svg" xmlns:xlink="http://www.w3.org/1999/xlink" id="Calque_1" x="0px" y="0px" viewBox="0 0 100 100" style="enable-background:new 0 0 100 100;" xml:space="preserve"><style type="text/css">	.st0{clip-path:url(#SVGID_00000057130752214471777620000010937648363705310365_);}	.st1{fill:#129BDB;}	.st2{fill:#E13510;}	.st3{fill:#FCA01F;}	.st4{fill:#449B23;}	.st5{fill:#503D32;}	.st6{fill:none;stroke:#FFFFFF;stroke-width:2.5;stroke-linecap:round;stroke-miterlimit:10;}	.st7{fill:#FFFFFF;}	.st8{fill:none;stroke:#FFFFFF;stroke-width:2.5;stroke-linecap:round;}	.st9{fill:none;stroke:#FFFFFF;stroke-width:2.5;stroke-miterlimit:10;}	.st10{fill:#624E43;}	.st11{fill:#3EA73D;}	.st12{fill:#F7B042;}	.st13{fill:#E54F28;}	.st14{fill:#2EAEB4;}	.st15{fill:#B1B1B1;}	.st16{clip-path:url(#SVGID_00000142855260309533485890000015334513476845811881_);}	.st17{clip-path:url(#SVGID_00000058560513586084851760000008951998135763271808_);}	.st18{opacity:0.403;}	.st19{clip-path:url(#SVGID_00000044178226429553898490000007666790626530020261_);}	.st20{fill:#3E3029;}</style><path id="Icon_awesome-check-circle_00000128447120275873335620000005957245390601986984_" class="st3" d="M98,50 c0,26.5-21.5,48-48,48S2,76.5,2,50C2,23.5,23.5,2,50,2C76.5,2,98,23.5,98,50C98,50,98,50,98,50z"></path><path class="st7" d="M73.6,27.9c-1.9-0.9-4.1-0.2-5,1.7L50.2,66.4L31.4,29.7c-0.9-1.8-3.2-2.6-5-1.6c-1.8,0.9-2.6,3.2-1.6,5 l22.1,43.4l0,0c0.1,0.3,0.3,0.5,0.5,0.8l0.2,0.2c0.2,0.2,0.4,0.3,0.6,0.4l0.2,0.1l0.2,0.1l0.4,0.2l0.3,0.1c0.3,0.1,0.6,0.1,0.9,0.1 l0,0l0,0c0.3,0,0.6,0,0.9-0.1l0.3-0.1l0.4-0.2l0.1-0.1l0.2-0.2c0.2-0.1,0.4-0.3,0.6-0.5l0.2-0.2c0.2-0.2,0.4-0.5,0.5-0.8l0-0.1 l21.7-43.5C76.2,31,75.4,28.8,73.6,27.9z"></path></svg>