<svg xmlns="http://www.w3.org/2000/svg"><defs><font horiz-adv-x="600"><font-face alphabetic="0" ascent="1025" descent="-275" panose-1="2 11 8 9 5 2 3 0 2 3"/><glyph glyph-name="space" unicode="&#x20;"/><glyph d="M276 243 219 495V698H381V495L324 243H276ZM300-12Q246-12 224 11T202 66V98Q202 129 224 152T300 175Q353 175 375 152T398 98V66Q398 34 376 11T300-12Z" glyph-name="exclam" unicode="&#x21;"/><glyph d="M378 414V740H510V414H378ZM347 414V740H479V414H347Z" glyph-name="quotedbl" unicode="&#x26;&#x71;&#x75;&#x6f;&#x74;&#x3b;"/><glyph d="M117 194H9V304H137L152 394H47V504H172L206 698H323L200 0H83L117 194ZM400 698H517L483 504H591V394H463L448 304H553V194H428L394 0H277L400 698Z" glyph-name="numbersign" unicode="&#x23;"/><glyph d="M253-10Q178-4 122 23T30 96L117 191Q149 157 185 138T263 113V297L240 301Q144 318 98 371T52 502Q52 587 104 640T253 706V811H367V707Q430 699 474 675T549 616L463 520Q421 566 357 580V413L380 409Q476 391 522 340T568 212Q568 171 555 135T516 71 453 24 367-5V-113H253V-10ZM193 507Q193 475 209 459T263 432V583Q226 577 210 558T193 507ZM428 202Q428 236 411 253T357 279V114Q393 122 410 144T428 202Z" glyph-name="dollar" unicode="&#x24;"/><glyph d="M165 338Q90 338 49 387T8 524Q8 611 49 660T165 710Q240 710 281 661T322 524Q322 437 281 388T165 338ZM165 425Q194 425 205 446T217 502V546Q217 581 206 602T165 623Q136 623 125 602T113 546V502Q113 467 124 446T165 425ZM485 698H598L447 398H334L485 698ZM153 300H266L115 0H2L153 300ZM436-12Q361-12 320 37T279 174Q279 261 320 310T436 360Q511 360 552 311T593 174Q593 87 552 38T436-12ZM436 75Q465 75 476 96T488 152V196Q488 231 477 252T436 273Q407 273 396 252T384 196V152Q384 117 395 96T436 75Z" glyph-name="percent" unicode="&#x25;"/><glyph d="M207-12Q160-12 124 4T64 48 27 112 14 190Q14 253 44 300T132 381Q100 426 84 461T67 534Q67 571 81 603T122 659 184 696 262 710Q299 710 331 700T387 672 428 633 453 586L351 531Q340 563 317 581T264 600Q234 600 216 582T197 535V530Q197 516 201 504T215 476 240 440 280 389L337 317 385 243H391Q394 260 396 280T399 322 401 364 402 402H580V292H510Q505 260 495 227T469 158L599 0H441L361 97H354Q347 46 308 17T207-12ZM244 101Q267 101 287 109T321 141L192 305Q166 280 158 255T150 200V198Q150 150 175 126T244 101Z" glyph-name="ampersand" unicode="&#x26;&#x61;&#x6d;&#x70;&#x3b;"/><glyph d="M234 414V740H366V414H234Z" glyph-name="quotesingle" unicode="&#x26;&#x61;&#x70;&#x6f;&#x73;&#x3b;"/><glyph d="M174 311Q174 384 190 451T235 577 302 681 382 760H530Q483 728 441 686T368 592 317 483 298 362V260Q298 197 317 139T367 30 441-63 530-138H382Q340-107 302-60T236 45 191 170 174 311Z" glyph-name="parenleft" unicode="&#x28;"/><glyph d="M426 311Q426 238 410 171T365 45 298-60 218-138H70Q116-106 158-64T232 30 283 139 302 260V362Q302 425 283 483T233 592 159 685 70 760H218Q260 728 298 682T364 577 409 452 426 311Z" glyph-name="parenright" unicode="&#x29;"/><glyph d="M191 60 87 129 201 279 30 337 69 452 236 391V568H364V391L531 452 570 337 399 279 513 129 409 60 300 209 191 60Z" glyph-name="asterisk" unicode="&#x2a;"/><glyph d="M236 62V246H62V364H236V548H364V364H538V246H364V62H236Z" glyph-name="plus" unicode="&#x2b;"/><glyph d="M227 174H417L280-151H170L227 174Z" glyph-name="comma" unicode="&#x2c;"/><glyph d="M140 234V376H460V234H140Z" glyph-name="hyphen" unicode="&#x2d;"/><glyph d="M300-12Q244-12 220 12T195 71V106Q195 140 219 164T300 189Q356 189 380 165T405 106V71Q405 37 381 13T300-12Z" glyph-name="period" unicode="&#x2e;"/><glyph d="M73-138 394 760H527L206-138H73Z" glyph-name="slash" unicode="&#x2f;"/><glyph d="M300-12Q160-12 94 83T27 349Q27 520 93 615T300 710Q440 710 506 615T573 349Q573 178 507 83T300-12ZM300 106Q367 106 393 153T420 284V414Q420 498 394 545T300 592Q233 592 207 545T180 414V284Q180 200 206 153T300 106ZM300 290Q265 290 252 304T238 338V360Q238 380 251 394T300 408Q335 408 348 394T362 360V338Q362 318 349 304T300 290Z" glyph-name="zero" unicode="&#x30;"/><glyph d="M94 0V121H282V589H273L131 403 35 478 202 698H432V121H580V0H94Z" glyph-name="one" unicode="&#x31;"/><glyph d="M555 0H53V137L273 320Q330 369 355 405T380 481V491Q380 535 354 557T284 580Q234 580 207 551T169 482L38 532Q50 568 71 600T124 657 200 695 299 710Q356 710 401 694T477 650 524 584 540 500Q540 456 526 420T486 351 426 289 352 229L219 126H555V0Z" glyph-name="two" unicode="&#x32;"/><glyph d="M273 422Q331 422 357 444T384 498V505Q384 543 359 565T286 588Q243 588 206 567T142 505L47 593Q67 619 91 640T144 677 209 701 292 710Q349 710 395 697T473 660 524 601 542 525Q542 492 531 465T502 418 459 386 406 368V362Q470 351 512 309T555 194Q555 147 536 109T481 44 395 3 282-12Q229-12 189-1T117 28 64 71 24 122L135 208Q158 165 192 138T285 110Q339 110 368 135T397 204V211Q397 254 364 275T272 297H207V422H273Z" glyph-name="three" unicode="&#x33;"/><glyph d="M339 0V134H25V262L303 698H483V250H573V134H483V0H339ZM146 250H339V543H330L146 250Z" glyph-name="four" unicode="&#x34;"/><glyph d="M525 567H202L186 346H195Q206 370 220 390T253 425 297 448 354 456Q397 456 435 441T503 398 550 328 567 234Q567 181 549 136T497 58 411 7 295-12Q244-12 204-1T134 28 81 71 42 122L151 208Q163 188 176 170T207 139 246 118 296 110Q352 110 380 140T409 222V230Q409 279 380 307T300 335Q258 335 231 319T189 286L66 303 92 698H525V567Z" glyph-name="five" unicode="&#x35;"/><glyph d="M304-12Q241-12 192 7T108 63 56 151 38 265Q38 338 61 403T120 524 202 624 293 698H500Q435 653 384 612T294 529 231 443 195 348L204 345Q213 365 226 384T258 417 302 441 362 450Q406 450 444 435T509 391 553 322 569 232Q569 179 550 134T497 57 413 6 304-12ZM303 105Q357 105 385 133T413 214V228Q413 280 385 307T303 335Q252 335 223 308T194 228V214Q194 162 221 134T303 105Z" glyph-name="six" unicode="&#x36;"/><glyph d="M164 0 404 576H178V449H51V698H553V568L322 0H164Z" glyph-name="seven" unicode="&#x37;"/><glyph d="M300-12Q237-12 188 3T105 46 54 110 36 192Q36 260 75 301T175 360V368Q123 387 90 426T57 526Q57 566 73 600T120 658 196 696 300 710Q358 710 403 697T480 659 527 600 543 526Q543 465 510 426T425 368V360Q486 343 525 302T564 192Q564 148 547 111T495 46 412 4 300-12ZM300 103Q352 103 379 127T407 192V212Q407 254 380 277T300 301Q247 301 220 278T193 212V192Q193 151 220 127T300 103ZM300 411Q350 411 376 434T402 496V511Q402 550 376 572T300 595Q251 595 225 573T198 511V496Q198 457 224 434T300 411Z" glyph-name="eight" unicode="&#x38;"/><glyph d="M562 433Q562 359 539 294T480 174 398 74 307 0H100Q165 45 216 86T306 169 369 255 405 350L396 353Q387 333 374 314T342 281 298 257 238 248Q194 248 156 263T91 307 47 376 31 466Q31 519 50 564T103 641 187 692 296 710Q359 710 408 691T492 635 544 547 562 433ZM297 363Q348 363 377 390T406 470V484Q406 536 379 564T297 593Q243 593 215 565T187 484V470Q187 418 215 391T297 363Z" glyph-name="nine" unicode="&#x39;"/><glyph d="M300-12Q244-12 220 12T195 71V106Q195 140 219 164T300 189Q356 189 380 165T405 106V71Q405 37 381 13T300-12ZM300 327Q244 327 220 351T195 410V445Q195 479 219 503T300 528Q356 528 380 504T405 445V410Q405 376 381 352T300 327Z" glyph-name="colon" unicode="&#x3a;"/><glyph d="M227 174H417L280-151H170L227 174ZM300 327Q244 327 220 351T195 410V445Q195 479 219 503T300 528Q356 528 380 504T405 445V410Q405 376 381 352T300 327Z" glyph-name="semicolon" unicode="&#x3b;"/><glyph d="M85 236V374L515 604V466L218 309V301L515 144V6L85 236Z" glyph-name="less" unicode="&#x26;&#x6c;&#x74;&#x3b;"/><glyph d="M62 361V479H538V361H62ZM62 131V249H538V131H62Z" glyph-name="equal" unicode="&#x3d;"/><glyph d="M85 144 382 301V309L85 466V604L515 374V236L85 6V144Z" glyph-name="greater" unicode="&#x26;&#x67;&#x74;&#x3b;"/><glyph d="M208 233V386Q283 389 327 412T371 492V506Q371 548 347 566T286 584Q245 584 219 561T183 499L61 550Q70 580 87 608T133 659 200 696 291 710Q344 710 387 695T462 653 510 588 527 505Q527 463 513 429T474 369 417 327 348 305V233H208ZM280-12Q227-12 205 11T182 66V98Q182 130 204 152T280 175Q333 175 356 152T379 98V66Q379 34 357 11T280-12Z" glyph-name="question" unicode="&#x3f;"/><glyph d="M446-113H341Q258-113 200-87T106-9 54 121 38 305Q38 419 55 496T106 621 189 689 301 710Q366 710 413 691T492 639 538 560 553 463V91H446V152H439Q428 115 404 97T345 79Q286 79 254 130T221 294Q221 406 253 457T345 509Q380 509 404 491T439 436H446V463Q446 505 436 534T408 581 364 607 307 615Q270 615 241 603T192 562 161 483 150 358V229Q150 171 160 125T194 48 253 0 341-17H446V-113ZM389 165Q417 165 431 181T446 224V364Q446 391 432 407T389 423Q362 423 348 403T333 327V261Q333 205 347 185T389 165Z" glyph-name="at" unicode="&#x40;"/><glyph d="M435 0 391 168H200L157 0H5L194 698H406L595 0H435ZM300 553H292L224 289H368L300 553Z" glyph-name="A" unicode="&#x41;"/><glyph d="M77 698H322Q425 698 479 648T534 512Q534 452 505 417T420 365V359Q485 343 520 303T556 192Q556 104 501 52T345 0H77V698ZM299 105Q353 105 378 123T403 189V218Q403 266 378 284T299 302H223V105H299ZM280 402Q333 402 357 419T381 483V513Q381 559 357 576T280 593H223V402H280Z" glyph-name="B" unicode="&#x42;"/><glyph d="M316-12Q176-12 109 82T41 349Q41 521 108 615T316 710Q370 710 411 696T483 655 532 592 563 509L423 475Q417 500 409 521T389 557 358 580 313 589Q252 589 227 542T201 410V288Q201 204 226 157T313 109Q365 109 388 141T423 223L563 189Q552 143 533 106T483 43 412 2 316-12Z" glyph-name="C" unicode="&#x43;"/><glyph d="M64 698H289Q430 698 498 608T566 349Q566 180 498 90T289 0H64V698ZM279 118Q346 118 377 161T408 286V413Q408 494 377 537T279 580H212V118H279Z" glyph-name="D" unicode="&#x44;"/><glyph d="M80 0V698H526V575H230V415H516V292H230V123H526V0H80Z" glyph-name="E" unicode="&#x45;"/><glyph d="M80 0V698H543V575H230V415H510V292H230V0H80Z" glyph-name="F" unicode="&#x46;"/><glyph d="M411 99H402Q393 77 380 57T348 22 304-3 246-12Q195-12 156 12T89 82 49 194 35 343Q35 521 100 615T301 710Q355 710 396 696T466 655 515 591 545 509L405 475Q399 497 392 517T372 554 342 579 298 589Q241 589 218 542T194 410V296Q194 211 219 160T310 109Q361 109 386 139T411 216V267H292V373H545V0H411V99Z" glyph-name="G" unicode="&#x47;"/><glyph d="M388 292H212V0H61V698H212V415H388V698H539V0H388V292Z" glyph-name="H" unicode="&#x48;"/><glyph d="M75 0V111H225V587H75V698H525V587H375V111H525V0H75Z" glyph-name="I" unicode="&#x49;"/><glyph d="M511 698V195Q511 148 495 110T448 44 374 3 278-12Q171-12 113 41T38 182L180 211Q188 166 210 138T278 110Q316 110 337 134T359 210V575H129V698H511Z" glyph-name="J" unicode="&#x4a;"/><glyph d="M280 291 218 204V0H68V698H218V406H226L302 522 425 698H593L384 403 603 0H434L280 291Z" glyph-name="K" unicode="&#x4b;"/><glyph d="M92 0V698H243V123H543V0H92Z" glyph-name="L" unicode="&#x4c;"/><glyph d="M431 311 439 506H430L300 147 170 506H161L169 311V0H39V698H216L302 463H310L396 698H561V0H431V311Z" glyph-name="M" unicode="&#x4d;"/><glyph d="M200 464H189V0H61V698H241L400 234H411V698H539V0H359L200 464Z" glyph-name="N" unicode="&#x4e;"/><glyph d="M300-12Q160-12 94 83T27 349Q27 520 93 615T300 710Q440 710 506 615T573 349Q573 178 507 83T300-12ZM300 109Q364 109 388 156T413 289V410Q413 494 389 541T300 589Q236 589 212 542T187 410V288Q187 204 211 157T300 109Z" glyph-name="O" unicode="&#x4f;"/><glyph d="M76 0V698H346Q397 698 437 683T504 638 546 568 560 476Q560 425 546 384T505 314 437 270 346 254H227V0H76ZM227 375H308Q361 375 381 395T402 461V491Q402 537 382 557T308 577H227V375Z" glyph-name="P" unicode="&#x50;"/><glyph d="M526-191H384Q303-191 269-152T235-47V-6Q128 15 78 106T27 349Q27 520 93 615T300 710Q440 710 506 615T573 349Q573 198 523 107T365-6V-84H526V-191ZM300 109Q364 109 388 156T413 289V410Q413 494 389 541T300 589Q236 589 212 542T187 410V288Q187 204 211 157T300 109Z" glyph-name="Q" unicode="&#x51;"/><glyph d="M224 0H76V698H346Q397 698 437 683T504 638 546 568 560 476Q560 402 528 349T437 279L574 0H410L293 259H224V0ZM310 375Q363 375 383 395T404 461V491Q404 537 384 557T310 577H224V375H310Z" glyph-name="R" unicode="&#x52;"/><glyph d="M289-12Q201-12 136 17T31 96L118 192Q156 150 201 130T294 110Q348 110 376 134T404 203Q404 240 383 259T310 286L237 298Q143 314 101 367T59 498Q59 599 125 654T310 710Q391 710 451 685T548 617L463 522Q435 553 397 570T311 588Q210 588 210 505 210 469 232 451T306 424L379 411Q464 396 510 347T556 215Q556 166 539 125T488 53 405 5 289-12Z" glyph-name="S" unicode="&#x53;"/><glyph d="M375 575V0H225V575H24V698H576V575H375Z" glyph-name="T" unicode="&#x54;"/><glyph d="M205 698V256Q205 223 207 196T219 149 248 120 300 109Q333 109 352 119T380 149 392 195 395 256V698H545V276Q545 204 536 150T499 60 424 6 300-12Q224-12 176 6T101 60 65 150 55 276V698H205Z" glyph-name="U" unicode="&#x55;"/><glyph d="M194 0 9 698H176L258 343 299 142H307L349 343 432 698H591L406 0H194Z" glyph-name="V" unicode="&#x56;"/><glyph d="M54 0 11 698H140L160 280 166 148H175L235 546H370L430 148H439L445 276 465 698H589L546 0H356L305 385H295L244 0H54Z" glyph-name="W" unicode="&#x57;"/><glyph d="M591 0H420L348 139 299 249H290L240 139 166 0H9L205 361 22 698H193L250 587 301 475H309L361 587 421 698H578L395 359 591 0Z" glyph-name="X" unicode="&#x58;"/><glyph d="M225 0V247L4 698H171L245 536 299 399H307L361 536 435 698H596L375 247V0H225Z" glyph-name="Y" unicode="&#x59;"/><glyph d="M551 0H48V131L373 575H58V698H541V567L216 123H551V0Z" glyph-name="Z" unicode="&#x5a;"/><glyph d="M183-138V760H507V661H302V-39H507V-138H183Z" glyph-name="bracketleft" unicode="&#x5b;"/><glyph d="M394-138 73 760H206L527-138H394Z" glyph-name="backslash" unicode="&#x5c;"/><glyph d="M417 760V-138H93V-39H298V661H93V760H417Z" glyph-name="bracketright" unicode="&#x5d;"/><glyph d="M456 239 303 562H291L138 239 27 293 222 698H379L573 293 456 239Z" glyph-name="asciicircum" unicode="&#x5e;"/><glyph d="M60-192V-71H540V-192H60Z" glyph-name="underscore" unicode="&#x5f;"/><glyph d="M150 746 273 807 372 613 284 570 150 746Z" glyph-name="grave" unicode="&#x60;"/><glyph d="M487 0Q441 0 413 23T380 91H375Q361 40 320 14T218-12Q143-12 98 28T52 142Q52 223 111 262T284 301H367V327Q367 373 346 396T273 420Q226 420 197 402T147 355L66 427Q92 471 147 499T290 528Q396 528 455 480T515 333V107H572V0H487ZM274 85Q313 85 340 104T367 159V221H288Q197 221 197 160V140Q197 113 218 99T274 85Z" glyph-name="a" unicode="&#x61;"/><glyph d="M59 740H207V422H214Q233 468 269 498T367 528Q410 528 445 512T506 463 546 379 561 258Q561 188 547 137T507 53 446 4 367-12Q305-12 269 17T214 94H207V0H59V740ZM303 103Q353 103 380 133T407 218V298Q407 352 380 382T303 413Q264 413 236 394T207 334V182Q207 141 235 122T303 103Z" glyph-name="b" unicode="&#x62;"/><glyph d="M321-12Q260-12 212 6T130 60 78 145 60 258Q60 321 78 371T129 456 211 509 320 528Q405 528 456 494T535 402L421 340Q407 370 385 390T320 410Q269 410 242 381T214 300V216Q214 165 241 136T322 106Q365 106 389 126T431 178L543 114Q515 57 462 23T321-12Z" glyph-name="c" unicode="&#x63;"/><glyph d="M393 94H386Q366 47 331 18T233-12Q190-12 155 4T94 53 54 137 39 258Q39 328 53 379T93 463 154 512 233 528Q264 528 288 520T330 498 362 465 386 422H393V740H541V0H393V94ZM297 103Q336 103 364 122T393 182V334Q393 375 365 394T297 413Q247 413 220 383T193 298V218Q193 164 220 134T297 103Z" glyph-name="d" unicode="&#x64;"/><glyph d="M314-12Q184-12 117 60T50 256Q50 319 67 369T117 455 196 509 301 528Q359 528 405 510T483 457 532 375 550 266V222H197V213Q197 163 228 133T319 102Q365 102 398 119T455 166L535 79Q505 42 451 15T314-12ZM302 422Q254 422 226 393T197 313V305H405V313Q405 364 378 393T302 422Z" glyph-name="e" unicode="&#x65;"/><glyph d="M71 115H223V401H61V516H223V591Q223 657 261 698T381 740H556V625H371V516H556V401H371V115H533V0H71V115Z" glyph-name="f" unicode="&#x66;"/><glyph d="M583-52Q583-134 514-173T297-212Q223-212 175-204T99-179 59-141 47-93Q47-49 73-27T146 8V14Q113 24 94 42T74 95Q74 133 99 151T167 179V185Q121 207 96 247T70 344Q70 389 86 423T131 481 202 516 294 528Q343 528 385 517V545Q385 575 406 595T464 615H555V507H431V498Q473 476 496 438T520 344Q520 299 504 265T458 208 387 172 294 160Q271 160 250 162T210 170Q199 164 192 155T184 132Q184 120 190 113T206 103 231 98 260 97H378Q433 97 472 86T536 55 572 8 583-52ZM443-63Q443-43 427-32T366-20H189Q169-37 169-62 169-86 189-101T259-117H346Q397-117 420-103T443-63ZM294 254Q339 254 359 276T380 332V356Q380 390 360 412T294 434Q250 434 230 412T210 356V332Q210 298 230 276T294 254Z" glyph-name="g" unicode="&#x67;"/><glyph d="M65 740H213V422H219Q228 444 241 463T272 496 315 519 371 528Q408 528 439 516T492 478 526 417 539 334V0H391V314Q391 414 304 414 287 414 271 410T241 396 221 372 213 339V0H65V740Z" glyph-name="h" unicode="&#x68;"/><glyph d="M332 582Q282 582 263 602T243 652V681Q243 711 262 731T332 751Q382 751 401 731T421 681V652Q421 623 402 603T332 582ZM94 115H258V401H94V516H406V115H558V0H94V115Z" glyph-name="i" unicode="&#x69;"/><glyph d="M92-85H290V401H90V516H438V-51Q438-116 399-158T281-200H92V-85ZM364 582Q314 582 295 602T275 652V681Q275 711 294 731T364 751Q413 751 433 731T453 681V652Q453 623 433 603T364 582Z" glyph-name="j" unicode="&#x6a;"/><glyph d="M65 740H213V320H220L289 401 397 516H567L367 312 588 0H412L262 228 213 179V0H65V740Z" glyph-name="k" unicode="&#x6b;"/><glyph d="M68 115H226V625H68V740H374V115H532V0H68V115Z" glyph-name="l" unicode="&#x6c;"/><glyph d="M30 0V516H149V440H156Q168 476 190 502T254 528Q329 528 346 440H352Q358 458 367 474T389 502 420 521 462 528Q570 528 570 369V0H451V354Q451 390 439 404T406 419Q387 419 374 407T360 368V0H240V354Q240 390 229 404T197 419Q177 419 163 407T149 368V0H30Z" glyph-name="m" unicode="&#x6d;"/><glyph d="M65 0V516H213V422H219Q228 444 241 463T272 496 315 519 371 528Q408 528 439 516T492 478 526 417 539 334V0H391V314Q391 414 304 414 287 414 271 410T241 396 221 372 213 339V0H65Z" glyph-name="n" unicode="&#x6e;"/><glyph d="M300-12Q240-12 192 6T111 60 59 145 41 258Q41 321 59 371T110 456 192 509 300 528Q360 528 408 510T489 456 541 371 559 258Q559 195 541 145T490 60 408 7 300-12ZM300 98Q350 98 378 129T406 217V299Q406 356 378 387T300 418Q250 418 222 387T194 299V217Q194 160 222 129T300 98Z" glyph-name="o" unicode="&#x6f;"/><glyph d="M59 516H207V422H214Q233 468 269 498T367 528Q410 528 445 512T506 463 546 379 561 258Q561 188 547 137T507 53 446 4 367-12Q305-12 269 17T214 94H207V-200H59V516ZM303 103Q353 103 380 133T407 218V298Q407 352 380 382T303 413Q264 413 236 394T207 334V182Q207 141 235 122T303 103Z" glyph-name="p" unicode="&#x70;"/><glyph d="M393 94H386Q366 47 331 18T233-12Q190-12 155 4T94 53 54 137 39 258Q39 328 53 379T93 463 154 512 233 528Q264 528 288 520T330 498 362 465 386 422H393V516H541V-200H393V94ZM297 103Q336 103 364 122T393 182V334Q393 375 365 394T297 413Q247 413 220 383T193 298V218Q193 164 220 134T297 103Z" glyph-name="q" unicode="&#x71;"/><glyph d="M74 115H193V401H74V516H341V370H348Q355 398 367 424T399 471 447 504 513 516H562V380H452Q397 380 369 348T341 268V115H511V0H74V115Z" glyph-name="r" unicode="&#x72;"/><glyph d="M294-12Q208-12 145 14T49 85L132 162Q162 129 202 111T295 92Q339 92 364 105T389 147Q389 169 372 177T325 191L242 204Q207 209 177 219T125 248 90 292 77 355Q77 436 139 482T313 528Q389 528 442 508T528 449L454 365Q431 390 395 407T308 424Q222 424 222 372 222 349 239 341T286 327L368 314Q403 309 433 299T485 270 521 226 534 163Q534 82 472 35T294-12Z" glyph-name="s" unicode="&#x73;"/><glyph d="M340 0Q260 0 221 42T182 149V401H42V516H133Q166 516 180 529T194 577V698H330V516H531V401H330V115H531V0H340Z" glyph-name="t" unicode="&#x74;"/><glyph d="M387 94H381Q364 50 328 19T229-12Q192-12 161 0T108 38 74 99 61 182V516H209V202Q209 102 296 102 313 102 329 106T358 120 379 144 387 177V516H535V0H387V94Z" glyph-name="u" unicode="&#x75;"/><glyph d="M212 0 27 516H183L250 295 299 123H307L356 295 423 516H573L388 0H212Z" glyph-name="v" unicode="&#x76;"/><glyph d="M7 516H130L167 98H177L238 516H368L428 98H438L476 516H593L532 0H356L305 356H295L244 0H68L7 516Z" glyph-name="w" unicode="&#x77;"/><glyph d="M23 0 216 262 36 516H205L260 433 302 366H310L353 433 409 516H564L384 270 577 0H407L342 97 297 166H289L245 97 179 0H23Z" glyph-name="x" unicode="&#x78;"/><glyph d="M430 516H581L338-83Q315-140 277-170T173-200H71V-85H195L227 3 19 516H178L253 299 300 149H308L353 299 430 516Z" glyph-name="y" unicode="&#x79;"/><glyph d="M66 0V123L353 401H76V516H524V393L237 115H534V0H66Z" glyph-name="z" unicode="&#x7a;"/><glyph d="M330-138Q262-138 233-108T204-30V15Q204 40 209 59T223 93 241 119 260 142Q277 162 283 176T290 207Q290 233 263 247T182 261H92V361H182Q236 361 263 375T290 415Q290 431 284 445T260 480Q251 490 241 502T223 529 210 563 204 607V652Q204 699 233 729T330 760H508V661H323V613Q323 575 335 555T363 515Q380 494 395 470T410 414Q410 372 381 347T292 315V307Q352 300 381 275T410 208Q410 176 395 152T363 107Q348 87 336 67T323 9V-39H508V-138H330Z" glyph-name="braceleft" unicode="&#x7b;"/><glyph d="M237-138V760H363V-138H237Z" glyph-name="bar" unicode="&#x7c;"/><glyph d="M270 760Q338 760 367 730T396 652V607Q396 582 391 563T377 529 359 502 340 480Q323 460 317 446T310 415Q310 389 337 375T418 361H508V261H418Q364 261 337 247T310 207Q310 191 316 177T340 142Q349 131 359 120T377 93 390 59 396 15V-30Q396-77 367-107T270-138H92V-39H277V9Q277 47 265 67T237 107Q220 128 205 152T190 208Q190 250 219 275T308 307V315Q248 322 219 347T190 414Q190 446 205 470T237 515Q252 535 264 555T277 613V661H92V760H270Z" glyph-name="braceright" unicode="&#x7d;"/><glyph d="M392 173Q351 173 321 192T264 249Q244 279 231 296T201 313Q176 313 164 279T142 185L36 205Q52 327 94 381T208 436Q249 436 279 417T336 360Q356 330 369 313T399 296Q424 296 436 330T458 424L564 404Q548 282 506 228T392 173Z" glyph-name="asciitilde" unicode="&#x7e;"/><glyph glyph-name="uni00A0" unicode="&#xa0;"/><glyph d="M219-182V21L276 273H324L381 21V-182H219ZM300 341Q247 341 225 363T202 418V450Q202 482 224 505T300 528Q354 528 376 505T398 450V418Q398 386 376 364T300 341Z" glyph-name="exclamdown" unicode="&#xa1;"/><glyph d="M258-114V-6Q164 11 112 80T60 258Q60 367 112 436T258 522V630H372V524Q434 514 473 482T535 402L428 344Q418 365 402 383T363 411V104Q389 113 407 131T438 173L543 114Q520 66 478 34T372-8V-114H258ZM202 216Q202 177 218 149T268 106V410Q236 397 219 369T202 300V216Z" glyph-name="cent" unicode="&#xa2;"/><glyph d="M69 0V136Q109 153 131 184T154 257Q154 265 153 269H46V379H117Q105 407 96 437T86 504Q86 550 104 588T154 653 233 695 335 710Q411 710 466 683T559 605L460 512Q437 542 410 561T340 581Q293 581 266 555T239 480Q239 452 247 428T267 379H442V269H302V262Q302 236 295 216T277 181 251 155 224 137V128H553V0H69Z" glyph-name="sterling" unicode="&#xa3;"/><glyph d="M300 107Q251 107 209 121L147 16 46 75 112 187Q88 218 75 258T61 349Q61 399 74 439T112 511L46 623 147 682 209 577Q251 591 300 591 349 591 391 577L453 682 554 623 488 511Q512 480 525 440T539 349Q539 299 526 259T488 187L554 75 453 16 391 121Q349 107 300 107ZM300 214Q343 214 367 242T391 321V377Q391 428 367 456T300 484Q257 484 233 456T209 377V321Q209 270 233 242T300 214Z" glyph-name="currency" unicode="&#xa4;"/><glyph d="M56 113H229V221H56V334H160L0 698H156L297 334H307L449 698H600L441 334H544V221H371V113H544V0H56V113Z" glyph-name="yen" unicode="&#xa5;"/><glyph d="M237 401V760H363V401H237ZM237-138V221H363V-138H237Z" glyph-name="brokenbar" unicode="&#xa6;"/><glyph d="M511 3Q511-38 495-71T449-127 379-163 289-176Q237-176 185-160T88-104L161-16Q187-42 219-56T290-71Q334-71 360-53T386-3Q386 24 365 39T297 67L219 88Q176 100 147 116T99 152 73 194 65 238Q65 281 91 316T175 375V391Q133 417 115 453T96 531Q96 572 112 605T158 661 228 697 318 710Q370 710 422 694T519 638L446 550Q420 576 388 590T317 605Q273 605 247 587T221 537Q221 510 242 495T310 467L388 446Q431 434 460 418T508 382 534 340 542 296Q542 253 516 218T432 159V143Q474 117 492 81T511 3ZM419 252Q419 278 403 299T336 334L259 355Q250 357 242 360T226 366Q208 346 198 326T188 282Q188 256 204 235T271 200L348 179Q357 177 365 174T381 168Q399 188 409 208T419 252Z" glyph-name="section" unicode="&#xa7;"/><glyph d="M190 591Q145 591 128 609T110 654V680Q110 706 127 724T190 742Q235 742 253 724T271 680V654Q271 628 253 610T190 591ZM410 591Q365 591 347 609T329 654V680Q329 706 347 724T410 742Q455 742 472 724T490 680V654Q490 628 473 610T410 591Z" glyph-name="dieresis" unicode="&#xa8;"/><glyph d="M300 18Q237 18 183 41T88 107 24 211 0 349Q0 425 23 486T87 591 182 657 300 680Q363 680 417 657T512 591 576 487 600 349Q600 272 577 211T513 107 418 41 300 18ZM300 73Q351 73 394 92T469 144 519 223 537 319V379Q537 430 519 475T470 553 395 606 300 625Q249 625 206 606T131 554 81 475 63 379V319Q63 268 81 223T130 145 205 92 300 73ZM309 153Q267 153 233 167T175 206 138 268 125 348Q125 393 138 429T176 491 234 531 309 545Q371 545 408 517T463 443L378 400Q368 423 353 437T311 452Q281 452 264 434T247 386V313Q247 284 264 265T312 246Q340 246 356 261T384 298L469 255Q460 235 447 217T415 184 369 162 309 153Z" glyph-name="copyright" unicode="&#xa9;"/><glyph d="M429 340Q397 340 378 356T355 404H351Q341 369 312 351T241 332Q188 332 157 360T125 440Q125 497 166 524T287 551H345V569Q345 601 330 617T280 634Q247 634 227 622T191 589L135 639Q153 670 192 690T292 710Q366 710 407 676T449 573V415H489V340H429ZM290 495Q226 495 226 452V438Q226 419 240 410T280 400Q308 400 326 413T345 452V495H290Z" glyph-name="ordfeminine" unicode="&#xaa;"/><glyph d="M516 38 316 206V338L516 506 561 410 431 272 561 133 516 38ZM506 38 306 206V338L506 506 551 410 421 272 551 133 506 38Z" glyph-name="guillemotleft" unicode="&#xab;"/><glyph d="M401 54V246H62V364H522V54H401Z" glyph-name="logicalnot" unicode="&#xac;"/><glyph d="M140 234V376H460V234H140Z" glyph-name="uni00AD" unicode="&#xad;"/><glyph d="M300 346Q262 346 229 360T170 398 131 455 117 528Q117 567 131 600T170 658 228 696 300 710Q338 710 371 696T429 658 468 601 483 528Q483 489 469 456T430 398 372 360 300 346ZM300 387Q329 387 353 396T396 423 424 464 435 518V538Q435 568 425 592T396 633 354 659 300 669Q271 669 247 660T204 633 176 592 165 538V518Q165 488 175 464T204 423 246 397 300 387ZM278 436H222V621H314Q352 621 369 603T386 558Q386 517 352 501L391 436H330L300 490H278V436ZM302 531Q328 531 328 551V558Q328 578 302 578H278V531H302Z" glyph-name="registered" unicode="&#xae;"/><glyph d="M147 718H453V615H147V718Z" glyph-name="overscore" unicode="&#xaf;"/><glyph d="M300 334Q260 334 226 348T167 388 127 447 112 522Q112 562 126 596T166 656 226 695 300 710Q340 710 374 696T433 656 473 597 488 522Q488 482 474 448T434 388 374 349 300 334ZM300 429Q339 429 362 456T386 522Q386 561 363 588T300 615Q261 615 238 588T214 522Q214 483 237 456T300 429Z" glyph-name="degree" unicode="&#xb0;"/><glyph d="M236 184V350H62V468H236V634H364V468H538V350H364V184H236ZM62 0V119H538V0H62Z" glyph-name="plusminus" unicode="&#xb1;"/><glyph d="M450 329H161V417L279 507Q297 521 308 530T325 548 334 565 337 583V584Q337 601 325 609T294 618Q271 618 258 606T239 573L150 606Q164 648 202 676T304 704Q370 704 408 672T446 591Q446 566 437 545T413 506 377 473 332 445L273 412H450V329Z" glyph-name="twosuperior" unicode="&#xb2;"/><glyph d="M285 558Q312 558 324 567T336 589V593Q336 606 325 615T291 625Q270 625 249 614T211 582L149 641Q175 672 208 688T294 704Q365 704 404 676T444 603Q444 568 422 547T368 522V518Q406 512 428 490T450 433Q450 382 407 353T293 323Q228 323 193 345T138 398L214 456Q225 433 244 418T293 402Q316 402 329 411T343 438V440Q343 460 326 468T282 476H251V558H285Z" glyph-name="threesuperior" unicode="&#xb3;"/><glyph d="M316 570 228 613 327 807 450 746 316 570Z" glyph-name="acute" unicode="&#xb4;"/><glyph d="M65-200V516H213V212Q213 102 298 102 315 102 331 106T359 120 379 144 387 177V516H535V0H387V94H381Q375 74 365 55T340 21 306-3 263-12Q243-12 225-4T190 30H184L213-103V-200H65Z" glyph-name="mu" unicode="&#xb5;"/><glyph d="M245 246Q198 246 158 263T86 310 38 381 20 472Q20 521 37 562T86 634 157 681 245 698H552V-149H433V582H364V-149H245V246Z" glyph-name="paragraph" unicode="&#xb6;"/><glyph d="M300 204Q244 204 220 228T195 287V322Q195 356 219 380T300 405Q356 405 380 381T405 322V287Q405 253 381 229T300 204Z" glyph-name="middot" unicode="&#xb7;"/><glyph d="M314-212Q262-212 233-198T190-168L236-112Q246-124 262-132T302-141Q321-141 333-135T346-116Q346-110 343-104T332-93 309-83 271-76L250-74 272 30H339L321-55 325-59Q337-56 349-54T373-52Q403-52 424-68T446-121Q446-147 435-164T406-192 363-207 314-212Z" glyph-name="cedilla" unicode="&#xb8;"/><glyph d="M188 329V408H281V606L202 570 164 642 276 698H382V408H463V329H188Z" glyph-name="onesuperior" unicode="&#xb9;"/><glyph d="M300 332Q215 332 167 382T119 521Q119 609 167 659T300 710Q385 710 433 660T481 521Q481 433 433 383T300 332ZM300 409Q335 409 354 430T374 492V550Q374 590 355 611T300 633Q265 633 246 612T226 550V492Q226 452 245 431T300 409Z" glyph-name="ordmasculine" unicode="&#xba;"/><glyph d="M50 133 180 272 50 410 95 506 295 338V206L95 38 50 133ZM296 133 426 272 296 410 341 506 541 338V206L341 38 296 133Z" glyph-name="guillemotright" unicode="&#xbb;"/><glyph d="M37 432H122V626L46 587 14 645 116 698H210V432H285V363H37V432ZM496 698H599L426 398H323L496 698ZM174 300H277L104 0H1L174 300ZM462 63H311V137L442 335H546V124H590V63H546V0H462V63ZM462 124V250H457L373 124H462Z" glyph-name="onequarter" unicode="&#xbc;"/><glyph d="M37 432H122V626L46 587 14 645 116 698H210V432H285V363H37V432ZM496 698H599L426 398H323L496 698ZM174 300H277L104 0H1L174 300ZM321 75 427 155Q462 182 473 198T485 236V238Q485 253 474 262T443 271Q422 271 408 259T385 224L312 252Q318 269 328 284T354 313 393 333 447 341Q506 341 542 313T578 239Q578 200 549 168T473 106L419 69H583V0H321V75Z" glyph-name="onehalf" unicode="&#xbd;"/><glyph d="M149 357Q92 357 60 377T11 423L74 465Q85 446 102 435T147 423Q195 423 195 457V465Q195 484 178 493T135 503H108V566H139Q167 566 179 576T191 600V608Q191 621 180 629T148 638Q102 638 70 597L18 647Q42 674 71 689T148 704Q211 704 247 679T283 613Q283 581 262 561T212 537V533Q247 528 268 509T289 457Q289 411 251 384T149 357ZM496 698H599L426 398H323L496 698ZM174 300H277L104 0H1L174 300ZM462 63H311V137L442 335H546V124H590V63H546V0H462V63ZM462 124V250H457L373 124H462Z" glyph-name="threequarters" unicode="&#xbe;"/><glyph d="M309-194Q256-194 213-179T138-137 90-72 73 11Q73 53 87 87T126 147 183 189 252 211V283H392V130Q317 127 273 104T229 24V10Q229-32 253-50T314-68Q355-68 381-45T417 17L539-34Q530-64 513-93T467-144 400-180 309-194ZM320 341Q267 341 244 363T221 418V450Q221 482 243 505T320 528Q373 528 395 505T418 450V418Q418 386 396 364T320 341Z" glyph-name="questiondown" unicode="&#xbf;"/><glyph d="M435 0 391 168H200L157 0H5L194 698H406L595 0H435ZM300 553H292L224 289H368L300 553ZM150 916 273 977 372 783 284 740 150 916Z" glyph-name="Agrave" unicode="&#xc0;"/><glyph d="M435 0 391 168H200L157 0H5L194 698H406L595 0H435ZM300 553H292L224 289H368L300 553ZM316 740 228 783 327 977 450 916 316 740Z" glyph-name="Aacute" unicode="&#xc1;"/><glyph d="M435 0 391 168H200L157 0H5L194 698H406L595 0H435ZM300 553H292L224 289H368L300 553ZM362 956 494 797 419 739 298 854 177 739 106 797 238 956H362Z" glyph-name="Acircumflex" unicode="&#xc2;"/><glyph d="M435 0 391 168H200L157 0H5L194 698H406L595 0H435ZM300 553H292L224 289H368L300 553ZM376 762Q353 762 336 768T299 782Q277 791 259 797T221 804Q204 804 191 798T162 779L110 847Q128 874 156 892T224 911Q247 911 264 905T301 891Q323 882 341 876T379 869Q396 869 409 875T438 894L490 826Q472 799 444 781T376 762Z" glyph-name="Atilde" unicode="&#xc3;"/><glyph d="M435 0 391 168H200L157 0H5L194 698H406L595 0H435ZM300 553H292L224 289H368L300 553ZM190 761Q145 761 128 779T110 824V850Q110 876 127 894T190 912Q235 912 253 894T271 850V824Q271 798 253 780T190 761ZM410 761Q365 761 347 779T329 824V850Q329 876 347 894T410 912Q455 912 472 894T490 850V824Q490 798 473 780T410 761Z" glyph-name="Adieresis" unicode="&#xc4;"/><glyph d="M435 0 391 168H200L157 0H5L194 698H406L595 0H435ZM300 553H292L224 289H368L300 553ZM300 719Q269 719 242 729T195 759 164 804 152 862Q152 893 163 919T195 964 242 994 300 1005Q331 1005 358 995T405 965 436 920 448 862Q448 831 437 805T405 760 358 730 300 719ZM300 794Q325 794 338 808T351 845V879Q351 903 338 916T300 930Q275 930 262 916T249 879V845Q249 821 262 808T300 794Z" glyph-name="Aring" unicode="&#xc5;"/><glyph d="M279 168H175L142 0H-4L155 698H572V587H417V409H562V298H417V111H572V0H279V168ZM257 594 197 279H279V594H257Z" glyph-name="AE" unicode="&#xc6;"/><glyph d="M313 589Q252 589 227 542T201 410V288Q201 204 226 157T313 109Q365 109 388 141T423 223L563 189Q543 101 488 48T333-11L324-55 328-59Q340-56 352-54T376-52Q406-52 427-68T449-121Q449-147 438-164T409-192 366-207 317-212Q265-212 236-198T193-168L239-112Q249-124 265-132T305-141Q324-141 336-135T349-116Q349-110 346-104T335-93 312-83 274-76L253-74 267-8Q151 8 96 100T41 349Q41 521 108 615T316 710Q370 710 411 696T483 655 532 592 563 509L423 475Q417 500 409 521T389 557 358 580 313 589Z" glyph-name="Ccedilla" unicode="&#xc7;"/><glyph d="M80 0V698H526V575H230V415H516V292H230V123H526V0H80ZM153 916 276 977 375 783 287 740 153 916Z" glyph-name="Egrave" unicode="&#xc8;"/><glyph d="M80 0V698H526V575H230V415H516V292H230V123H526V0H80ZM319 740 231 783 330 977 453 916 319 740Z" glyph-name="Eacute" unicode="&#xc9;"/><glyph d="M80 0V698H526V575H230V415H516V292H230V123H526V0H80ZM365 956 497 797 422 739 301 854 180 739 109 797 241 956H365Z" glyph-name="Ecircumflex" unicode="&#xca;"/><glyph d="M80 0V698H526V575H230V415H516V292H230V123H526V0H80ZM193 761Q148 761 131 779T113 824V850Q113 876 130 894T193 912Q238 912 256 894T274 850V824Q274 798 256 780T193 761ZM413 761Q368 761 350 779T332 824V850Q332 876 350 894T413 912Q458 912 475 894T493 850V824Q493 798 476 780T413 761Z" glyph-name="Edieresis" unicode="&#xcb;"/><glyph d="M75 0V111H225V587H75V698H525V587H375V111H525V0H75ZM150 916 273 977 372 783 284 740 150 916Z" glyph-name="Igrave" unicode="&#xcc;"/><glyph d="M75 0V111H225V587H75V698H525V587H375V111H525V0H75ZM316 740 228 783 327 977 450 916 316 740Z" glyph-name="Iacute" unicode="&#xcd;"/><glyph d="M75 0V111H225V587H75V698H525V587H375V111H525V0H75ZM362 956 494 797 419 739 298 854 177 739 106 797 238 956H362Z" glyph-name="Icircumflex" unicode="&#xce;"/><glyph d="M75 0V111H225V587H75V698H525V587H375V111H525V0H75ZM190 761Q145 761 128 779T110 824V850Q110 876 127 894T190 912Q235 912 253 894T271 850V824Q271 798 253 780T190 761ZM410 761Q365 761 347 779T329 824V850Q329 876 347 894T410 912Q455 912 472 894T490 850V824Q490 798 473 780T410 761Z" glyph-name="Idieresis" unicode="&#xcf;"/><glyph d="M69 311H10V425H69V698H289Q430 698 498 608T566 349Q566 180 498 90T289 0H69V311ZM279 118Q346 118 377 161T408 286V413Q408 494 377 537T279 580H217V420H327V316H217V118H279Z" glyph-name="Eth" unicode="&#xd0;"/><glyph d="M200 464H189V0H61V698H241L400 234H411V698H539V0H359L200 464ZM376 762Q353 762 336 768T299 782Q277 791 259 797T221 804Q204 804 191 798T162 779L110 847Q128 874 156 892T224 911Q247 911 264 905T301 891Q323 882 341 876T379 869Q396 869 409 875T438 894L490 826Q472 799 444 781T376 762Z" glyph-name="Ntilde" unicode="&#xd1;"/><glyph d="M300-12Q160-12 94 83T27 349Q27 520 93 615T300 710Q440 710 506 615T573 349Q573 178 507 83T300-12ZM300 109Q364 109 388 156T413 289V410Q413 494 389 541T300 589Q236 589 212 542T187 410V288Q187 204 211 157T300 109ZM150 916 273 977 372 783 284 740 150 916Z" glyph-name="Ograve" unicode="&#xd2;"/><glyph d="M300-12Q160-12 94 83T27 349Q27 520 93 615T300 710Q440 710 506 615T573 349Q573 178 507 83T300-12ZM300 109Q364 109 388 156T413 289V410Q413 494 389 541T300 589Q236 589 212 542T187 410V288Q187 204 211 157T300 109ZM316 740 228 783 327 977 450 916 316 740Z" glyph-name="Oacute" unicode="&#xd3;"/><glyph d="M300-12Q160-12 94 83T27 349Q27 520 93 615T300 710Q440 710 506 615T573 349Q573 178 507 83T300-12ZM300 109Q364 109 388 156T413 289V410Q413 494 389 541T300 589Q236 589 212 542T187 410V288Q187 204 211 157T300 109ZM362 956 494 797 419 739 298 854 177 739 106 797 238 956H362Z" glyph-name="Ocircumflex" unicode="&#xd4;"/><glyph d="M300-12Q160-12 94 83T27 349Q27 520 93 615T300 710Q440 710 506 615T573 349Q573 178 507 83T300-12ZM300 109Q364 109 388 156T413 289V410Q413 494 389 541T300 589Q236 589 212 542T187 410V288Q187 204 211 157T300 109ZM376 762Q353 762 336 768T299 782Q277 791 259 797T221 804Q204 804 191 798T162 779L110 847Q128 874 156 892T224 911Q247 911 264 905T301 891Q323 882 341 876T379 869Q396 869 409 875T438 894L490 826Q472 799 444 781T376 762Z" glyph-name="Otilde" unicode="&#xd5;"/><glyph d="M300-12Q160-12 94 83T27 349Q27 520 93 615T300 710Q440 710 506 615T573 349Q573 178 507 83T300-12ZM300 109Q364 109 388 156T413 289V410Q413 494 389 541T300 589Q236 589 212 542T187 410V288Q187 204 211 157T300 109ZM190 761Q145 761 128 779T110 824V850Q110 876 127 894T190 912Q235 912 253 894T271 850V824Q271 798 253 780T190 761ZM410 761Q365 761 347 779T329 824V850Q329 876 347 894T410 912Q455 912 472 894T490 850V824Q490 798 473 780T410 761Z" glyph-name="Odieresis" unicode="&#xd6;"/><glyph d="M300 220 155 75 70 160 215 305 70 450 155 535 300 390 445 535 530 450 385 305 530 160 445 75 300 220Z" glyph-name="multiply" unicode="&#xd7;"/><glyph d="M300-12Q221-12 166 19L113-66 19-12 85 95Q27 186 27 349 27 520 93 615T300 710Q379 710 434 679L487 764 581 710 515 603Q573 512 573 349 573 178 507 83T300-12ZM187 288Q187 277 187 268T189 249L371 565Q345 589 300 589 236 589 212 542T187 410V288ZM300 109Q364 109 388 156T413 288V410Q413 421 413 429T411 449L229 133Q254 109 300 109Z" glyph-name="Oslash" unicode="&#xd8;"/><glyph d="M205 698V256Q205 223 207 196T219 149 248 120 300 109Q333 109 352 119T380 149 392 195 395 256V698H545V276Q545 204 536 150T499 60 424 6 300-12Q224-12 176 6T101 60 65 150 55 276V698H205ZM150 916 273 977 372 783 284 740 150 916Z" glyph-name="Ugrave" unicode="&#xd9;"/><glyph d="M205 698V256Q205 223 207 196T219 149 248 120 300 109Q333 109 352 119T380 149 392 195 395 256V698H545V276Q545 204 536 150T499 60 424 6 300-12Q224-12 176 6T101 60 65 150 55 276V698H205ZM316 740 228 783 327 977 450 916 316 740Z" glyph-name="Uacute" unicode="&#xda;"/><glyph d="M205 698V256Q205 223 207 196T219 149 248 120 300 109Q333 109 352 119T380 149 392 195 395 256V698H545V276Q545 204 536 150T499 60 424 6 300-12Q224-12 176 6T101 60 65 150 55 276V698H205ZM362 956 494 797 419 739 298 854 177 739 106 797 238 956H362Z" glyph-name="Ucircumflex" unicode="&#xdb;"/><glyph d="M205 698V256Q205 223 207 196T219 149 248 120 300 109Q333 109 352 119T380 149 392 195 395 256V698H545V276Q545 204 536 150T499 60 424 6 300-12Q224-12 176 6T101 60 65 150 55 276V698H205ZM190 761Q145 761 128 779T110 824V850Q110 876 127 894T190 912Q235 912 253 894T271 850V824Q271 798 253 780T190 761ZM410 761Q365 761 347 779T329 824V850Q329 876 347 894T410 912Q455 912 472 894T490 850V824Q490 798 473 780T410 761Z" glyph-name="Udieresis" unicode="&#xdc;"/><glyph d="M225 0V247L4 698H171L245 536 299 399H307L361 536 435 698H596L375 247V0H225ZM316 740 228 783 327 977 450 916 316 740Z" glyph-name="Yacute" unicode="&#xdd;"/><glyph d="M76 0V698H227V577H341Q393 577 433 561T500 516 541 446 555 355Q555 305 541 264T500 194 433 149 341 133H227V0H76ZM227 254H304Q357 254 377 274T398 340V370Q398 416 378 436T304 456H227V254Z" glyph-name="Thorn" unicode="&#xde;"/><glyph d="M60 0V591Q60 657 98 698T218 740H376V629H204V516H540V410L401 213Q482 198 528 150T574 16Q574-91 503-145T312-200H246V-89H303Q366-89 395-67T425 3V26Q425 75 394 97T297 119H273V230L396 405H204V0H60Z" glyph-name="germandbls" unicode="&#xdf;"/><glyph d="M487 0Q441 0 413 23T380 91H375Q361 40 320 14T218-12Q143-12 98 28T52 142Q52 223 111 262T284 301H367V327Q367 373 346 396T273 420Q226 420 197 402T147 355L66 427Q92 471 147 499T290 528Q396 528 455 480T515 333V107H572V0H487ZM274 85Q313 85 340 104T367 159V221H288Q197 221 197 160V140Q197 113 218 99T274 85ZM399 746 522 807 621 613 533 570 399 746Z" glyph-name="agrave" unicode="&#xe0;"/><glyph d="M487 0Q441 0 413 23T380 91H375Q361 40 320 14T218-12Q143-12 98 28T52 142Q52 223 111 262T284 301H367V327Q367 373 346 396T273 420Q226 420 197 402T147 355L66 427Q92 471 147 499T290 528Q396 528 455 480T515 333V107H572V0H487ZM274 85Q313 85 340 104T367 159V221H288Q197 221 197 160V140Q197 113 218 99T274 85ZM565 570 477 613 576 807 699 746 565 570Z" glyph-name="aacute" unicode="&#xe1;"/><glyph d="M487 0Q441 0 413 23T380 91H375Q361 40 320 14T218-12Q143-12 98 28T52 142Q52 223 111 262T284 301H367V327Q367 373 346 396T273 420Q226 420 197 402T147 355L66 427Q92 471 147 499T290 528Q396 528 455 480T515 333V107H572V0H487ZM274 85Q313 85 340 104T367 159V221H288Q197 221 197 160V140Q197 113 218 99T274 85ZM611 786 743 627 668 569 547 684 426 569 355 627 487 786H611Z" glyph-name="acircumflex" unicode="&#xe2;"/><glyph d="M487 0Q441 0 413 23T380 91H375Q361 40 320 14T218-12Q143-12 98 28T52 142Q52 223 111 262T284 301H367V327Q367 373 346 396T273 420Q226 420 197 402T147 355L66 427Q92 471 147 499T290 528Q396 528 455 480T515 333V107H572V0H487ZM274 85Q313 85 340 104T367 159V221H288Q197 221 197 160V140Q197 113 218 99T274 85ZM625 592Q602 592 585 598T548 612Q526 621 508 627T470 634Q453 634 440 628T411 609L359 677Q377 704 405 722T473 741Q496 741 513 735T550 721Q572 712 590 706T628 699Q645 699 658 705T687 724L739 656Q721 629 693 611T625 592Z" glyph-name="atilde" unicode="&#xe3;"/><glyph d="M487 0Q441 0 413 23T380 91H375Q361 40 320 14T218-12Q143-12 98 28T52 142Q52 223 111 262T284 301H367V327Q367 373 346 396T273 420Q226 420 197 402T147 355L66 427Q92 471 147 499T290 528Q396 528 455 480T515 333V107H572V0H487ZM274 85Q313 85 340 104T367 159V221H288Q197 221 197 160V140Q197 113 218 99T274 85ZM439 591Q394 591 377 609T359 654V680Q359 706 376 724T439 742Q484 742 502 724T520 680V654Q520 628 502 610T439 591ZM659 591Q614 591 596 609T578 654V680Q578 706 596 724T659 742Q704 742 721 724T739 680V654Q739 628 722 610T659 591Z" glyph-name="adieresis" unicode="&#xe4;"/><glyph d="M487 0Q441 0 413 23T380 91H375Q361 40 320 14T218-12Q143-12 98 28T52 142Q52 223 111 262T284 301H367V327Q367 373 346 396T273 420Q226 420 197 402T147 355L66 427Q92 471 147 499T290 528Q396 528 455 480T515 333V107H572V0H487ZM274 85Q313 85 340 104T367 159V221H288Q197 221 197 160V140Q197 113 218 99T274 85ZM549 549Q518 549 491 559T444 589 413 634 401 692Q401 723 412 749T444 794 491 824 549 835Q580 835 607 825T654 795 685 750 697 692Q697 661 686 635T654 590 607 560 549 549ZM549 624Q574 624 587 638T600 675V709Q600 733 587 746T549 760Q524 760 511 746T498 709V675Q498 651 511 638T549 624Z" glyph-name="aring" unicode="&#xe5;"/><glyph d="M137-12Q109-12 85-3T42 26 14 74 4 141Q4 222 51 263T186 305H226V348Q226 436 167 436 141 436 128 418T105 368L13 401Q30 466 70 497T168 528Q214 528 245 509T293 455H297Q339 528 416 528 454 528 485 511T538 463 572 388 584 289V228H345V213Q345 155 363 120T417 84Q445 84 459 105T481 156L578 129Q570 100 558 74T526 29 480-1 419-12Q366-12 323 15T262 105H258Q249 44 217 16T137-12ZM169 78Q201 78 213 104T226 179V228H197Q160 228 140 210T120 157V138Q120 110 132 94T169 78ZM410 438Q377 438 361 409T345 337V305H475V337Q475 379 459 408T410 438Z" glyph-name="ae" unicode="&#xe6;"/><glyph d="M320 528Q405 528 456 494T535 402L421 340Q407 370 385 390T320 410Q269 410 242 381T214 300V216Q214 165 241 136T322 106Q365 106 389 126T431 178L543 114Q516 59 465 25T331-12L322-55 326-59Q338-56 350-54T374-52Q404-52 425-68T447-121Q447-147 436-164T407-192 364-207 315-212Q263-212 234-198T191-168L237-112Q247-124 263-132T303-141Q322-141 334-135T347-116Q347-110 344-104T333-93 310-83 272-76L251-74 265-7Q168 9 114 78T60 258Q60 321 78 371T129 456 211 509 320 528Z" glyph-name="ccedilla" unicode="&#xe7;"/><glyph d="M314-12Q184-12 117 60T50 256Q50 319 67 369T117 455 196 509 301 528Q359 528 405 510T483 457 532 375 550 266V222H197V213Q197 163 228 133T319 102Q365 102 398 119T455 166L535 79Q505 42 451 15T314-12ZM302 422Q254 422 226 393T197 313V305H405V313Q405 364 378 393T302 422ZM151 746 274 807 373 613 285 570 151 746Z" glyph-name="egrave" unicode="&#xe8;"/><glyph d="M314-12Q184-12 117 60T50 256Q50 319 67 369T117 455 196 509 301 528Q359 528 405 510T483 457 532 375 550 266V222H197V213Q197 163 228 133T319 102Q365 102 398 119T455 166L535 79Q505 42 451 15T314-12ZM302 422Q254 422 226 393T197 313V305H405V313Q405 364 378 393T302 422ZM317 570 229 613 328 807 451 746 317 570Z" glyph-name="eacute" unicode="&#xe9;"/><glyph d="M314-12Q184-12 117 60T50 256Q50 319 67 369T117 455 196 509 301 528Q359 528 405 510T483 457 532 375 550 266V222H197V213Q197 163 228 133T319 102Q365 102 398 119T455 166L535 79Q505 42 451 15T314-12ZM302 422Q254 422 226 393T197 313V305H405V313Q405 364 378 393T302 422ZM363 786 495 627 420 569 299 684 178 569 107 627 239 786H363Z" glyph-name="ecircumflex" unicode="&#xea;"/><glyph d="M314-12Q184-12 117 60T50 256Q50 319 67 369T117 455 196 509 301 528Q359 528 405 510T483 457 532 375 550 266V222H197V213Q197 163 228 133T319 102Q365 102 398 119T455 166L535 79Q505 42 451 15T314-12ZM302 422Q254 422 226 393T197 313V305H405V313Q405 364 378 393T302 422ZM191 591Q146 591 129 609T111 654V680Q111 706 128 724T191 742Q236 742 254 724T272 680V654Q272 628 254 610T191 591ZM411 591Q366 591 348 609T330 654V680Q330 706 348 724T411 742Q456 742 473 724T491 680V654Q491 628 474 610T411 591Z" glyph-name="edieresis" unicode="&#xeb;"/><glyph d="M94 115H258V401H94V516H406V115H558V0H94V115ZM182 746 305 807 404 613 316 570 182 746Z" glyph-name="igrave" unicode="&#xec;"/><glyph d="M94 115H258V401H94V516H406V115H558V0H94V115ZM348 570 260 613 359 807 482 746 348 570Z" glyph-name="iacute" unicode="&#xed;"/><glyph d="M94 115H258V401H94V516H406V115H558V0H94V115ZM394 786 526 627 451 569 330 684 209 569 138 627 270 786H394Z" glyph-name="icircumflex" unicode="&#xee;"/><glyph d="M94 115H258V401H94V516H406V115H558V0H94V115ZM222 591Q177 591 160 609T142 654V680Q142 706 159 724T222 742Q267 742 285 724T303 680V654Q303 628 285 610T222 591ZM442 591Q397 591 379 609T361 654V680Q361 706 379 724T442 742Q487 742 504 724T522 680V654Q522 628 505 610T442 591Z" glyph-name="idieresis" unicode="&#xef;"/><glyph d="M483 693 408 649Q441 616 469 577T517 491 549 392 561 278Q561 202 543 147T490 57 409 5 303-12Q241-12 192 6T110 59 58 142 40 253Q40 309 54 354T95 432 159 482 242 500Q299 500 337 475T399 404L408 408Q394 454 365 497T294 582L202 528 151 588 233 636Q197 665 157 691T71 740H297Q310 732 322 723T348 703L433 753 483 693ZM302 98Q352 98 380 129T408 217V273Q408 330 379 359T301 388Q250 388 222 358T193 271V217Q193 160 222 129T302 98Z" glyph-name="eth" unicode="&#xf0;"/><glyph d="M65 0V516H213V422H219Q228 444 241 463T272 496 315 519 371 528Q408 528 439 516T492 478 526 417 539 334V0H391V314Q391 414 304 414 287 414 271 410T241 396 221 372 213 339V0H65ZM378 592Q355 592 338 598T301 612Q279 621 261 627T223 634Q206 634 193 628T164 609L112 677Q130 704 158 722T226 741Q249 741 266 735T303 721Q325 712 343 706T381 699Q398 699 411 705T440 724L492 656Q474 629 446 611T378 592Z" glyph-name="ntilde" unicode="&#xf1;"/><glyph d="M300-12Q240-12 192 6T111 60 59 145 41 258Q41 321 59 371T110 456 192 509 300 528Q360 528 408 510T489 456 541 371 559 258Q559 195 541 145T490 60 408 7 300-12ZM300 98Q350 98 378 129T406 217V299Q406 356 378 387T300 418Q250 418 222 387T194 299V217Q194 160 222 129T300 98ZM150 746 273 807 372 613 284 570 150 746Z" glyph-name="ograve" unicode="&#xf2;"/><glyph d="M300-12Q240-12 192 6T111 60 59 145 41 258Q41 321 59 371T110 456 192 509 300 528Q360 528 408 510T489 456 541 371 559 258Q559 195 541 145T490 60 408 7 300-12ZM300 98Q350 98 378 129T406 217V299Q406 356 378 387T300 418Q250 418 222 387T194 299V217Q194 160 222 129T300 98ZM316 570 228 613 327 807 450 746 316 570Z" glyph-name="oacute" unicode="&#xf3;"/><glyph d="M300-12Q240-12 192 6T111 60 59 145 41 258Q41 321 59 371T110 456 192 509 300 528Q360 528 408 510T489 456 541 371 559 258Q559 195 541 145T490 60 408 7 300-12ZM300 98Q350 98 378 129T406 217V299Q406 356 378 387T300 418Q250 418 222 387T194 299V217Q194 160 222 129T300 98ZM362 786 494 627 419 569 298 684 177 569 106 627 238 786H362Z" glyph-name="ocircumflex" unicode="&#xf4;"/><glyph d="M300-12Q240-12 192 6T111 60 59 145 41 258Q41 321 59 371T110 456 192 509 300 528Q360 528 408 510T489 456 541 371 559 258Q559 195 541 145T490 60 408 7 300-12ZM300 98Q350 98 378 129T406 217V299Q406 356 378 387T300 418Q250 418 222 387T194 299V217Q194 160 222 129T300 98ZM376 592Q353 592 336 598T299 612Q277 621 259 627T221 634Q204 634 191 628T162 609L110 677Q128 704 156 722T224 741Q247 741 264 735T301 721Q323 712 341 706T379 699Q396 699 409 705T438 724L490 656Q472 629 444 611T376 592Z" glyph-name="otilde" unicode="&#xf5;"/><glyph d="M300-12Q240-12 192 6T111 60 59 145 41 258Q41 321 59 371T110 456 192 509 300 528Q360 528 408 510T489 456 541 371 559 258Q559 195 541 145T490 60 408 7 300-12ZM300 98Q350 98 378 129T406 217V299Q406 356 378 387T300 418Q250 418 222 387T194 299V217Q194 160 222 129T300 98ZM190 591Q145 591 128 609T110 654V680Q110 706 127 724T190 742Q235 742 253 724T271 680V654Q271 628 253 610T190 591ZM410 591Q365 591 347 609T329 654V680Q329 706 347 724T410 742Q455 742 472 724T490 680V654Q490 628 473 610T410 591Z" glyph-name="odieresis" unicode="&#xf6;"/><glyph d="M62 246V364H538V246H62ZM300 29Q252 29 232 49T212 98V122Q212 151 232 171T300 191Q348 191 368 171T388 122V98Q388 69 368 49T300 29ZM300 419Q252 419 232 439T212 488V512Q212 541 232 561T300 581Q348 581 368 561T388 512V488Q388 459 368 439T300 419Z" glyph-name="divide" unicode="&#xf7;"/><glyph d="M23 1 92 84Q41 151 41 258 41 321 59 371T110 456 192 509 300 528Q338 528 371 520T431 498L495 575 577 515 508 432Q559 364 559 258 559 195 541 145T490 60 408 7 300-12Q262-12 229-4T169 18L105-59 23 1ZM300 418Q250 418 222 387T194 299V225Q194 219 194 212T196 200L361 401Q336 418 300 418ZM300 98Q350 98 378 129T406 217V291Q406 297 406 304T404 316L239 115Q264 98 300 98Z" glyph-name="oslash" unicode="&#xf8;"/><glyph d="M387 94H381Q364 50 328 19T229-12Q192-12 161 0T108 38 74 99 61 182V516H209V202Q209 102 296 102 313 102 329 106T358 120 379 144 387 177V516H535V0H387V94ZM405 746 528 807 627 613 539 570 405 746Z" glyph-name="ugrave" unicode="&#xf9;"/><glyph d="M387 94H381Q364 50 328 19T229-12Q192-12 161 0T108 38 74 99 61 182V516H209V202Q209 102 296 102 313 102 329 106T358 120 379 144 387 177V516H535V0H387V94ZM571 570 483 613 582 807 705 746 571 570Z" glyph-name="uacute" unicode="&#xfa;"/><glyph d="M387 94H381Q364 50 328 19T229-12Q192-12 161 0T108 38 74 99 61 182V516H209V202Q209 102 296 102 313 102 329 106T358 120 379 144 387 177V516H535V0H387V94ZM617 786 749 627 674 569 553 684 432 569 361 627 493 786H617Z" glyph-name="ucircumflex" unicode="&#xfb;"/><glyph d="M387 94H381Q364 50 328 19T229-12Q192-12 161 0T108 38 74 99 61 182V516H209V202Q209 102 296 102 313 102 329 106T358 120 379 144 387 177V516H535V0H387V94ZM445 591Q400 591 383 609T365 654V680Q365 706 382 724T445 742Q490 742 508 724T526 680V654Q526 628 508 610T445 591ZM665 591Q620 591 602 609T584 654V680Q584 706 602 724T665 742Q710 742 727 724T745 680V654Q745 628 728 610T665 591Z" glyph-name="udieresis" unicode="&#xfc;"/><glyph d="M430 516H581L338-83Q315-140 277-170T173-200H71V-85H195L227 3 19 516H178L253 299 300 149H308L353 299 430 516ZM319 570 231 613 330 807 453 746 319 570Z" glyph-name="yacute" unicode="&#xfd;"/><glyph d="M59 740H207V422H214Q233 468 269 498T367 528Q410 528 445 512T506 463 546 379 561 258Q561 188 547 137T507 53 446 4 367-12Q305-12 269 17T214 94H207V-200H59V740ZM303 103Q353 103 380 133T407 218V298Q407 352 380 382T303 413Q264 413 236 394T207 334V182Q207 141 235 122T303 103Z" glyph-name="thorn" unicode="&#xfe;"/><glyph d="M430 516H581L338-83Q315-140 277-170T173-200H71V-85H195L227 3 19 516H178L253 299 300 149H308L353 299 430 516ZM193 591Q148 591 131 609T113 654V680Q113 706 130 724T193 742Q238 742 256 724T274 680V654Q274 628 256 610T193 591ZM413 591Q368 591 350 609T332 654V680Q332 706 350 724T413 742Q458 742 475 724T493 680V654Q493 628 476 610T413 591Z" glyph-name="ydieresis" unicode="&#xff;"/><glyph d="M60 244V365H540V244H60Z" glyph-name="endash" unicode="&#x2013;"/><glyph d="M0 244V365H600V244H0Z" glyph-name="emdash" unicode="&#x2014;"/><glyph d="M300 740H409L352 414H162L300 740Z" glyph-name="quoteleft" unicode="&#x2018;"/><glyph d="M248 740H438L300 414H191L248 740Z" glyph-name="quoteright" unicode="&#x2019;"/><glyph d="M227 174H417L280-151H170L227 174Z" glyph-name="quotesinglbase" unicode="&#x201a;"/><glyph d="M172 740H281L224 414H34L172 740ZM430 740H539L482 414H292L430 740Z" glyph-name="quotedblleft" unicode="&#x201c;"/><glyph d="M120 740H310L172 414H63L120 740ZM378 740H568L430 414H321L378 740Z" glyph-name="quotedblright" unicode="&#x201d;"/><glyph d="M358 174H548L411-151H301L358 174ZM360 174H550L413-151H303L360 174Z" glyph-name="quotedblbase" unicode="&#x201e;"/><glyph d="M300 156Q258 156 229 166T181 193 154 235 146 287V321Q146 349 154 373T180 414 228 442 300 452Q342 452 371 442T419 415 446 373 454 321V287Q454 259 446 235T420 194 372 166 300 156Z" glyph-name="bullet" unicode="&#x2022;"/><glyph d="M373 38 173 206V338L373 506 418 410 288 272 418 133 373 38Z" glyph-name="guilsinglleft" unicode="&#x2039;"/><glyph d="M182 133 312 272 182 410 227 506 427 338V206L227 38 182 133Z" glyph-name="guilsinglright" unicode="&#x203a;"/></font>
</defs>
</svg>
