<!DOCTYPE svg PUBLIC "-//W3C//DTD SVG 20010904//EN" "http://www.w3.org/TR/2001/REC-SVG-20010904/DTD/svg10.dtd">
<svg version="1.0" xmlns="http://www.w3.org/2000/svg" width="640px" height="640px" viewBox="0 0 6400 6400" preserveAspectRatio="xMidYMid meet">
<g id="layer1" fill="#f7f5fa" stroke="none">
 <path d="M3145 4800 c-225 -12 -296 -33 -429 -125 -140 -98 -186 -183 -212 -387 -15 -126 -15 -143 -1 -205 9 -37 25 -126 37 -198 11 -71 25 -156 30 -187 6 -32 15 -85 20 -118 6 -33 14 -86 20 -117 62 -365 64 -428 17 -469 -70 -60 -204 -31 -321 68 -93 79 -226 271 -226 325 0 13 -9 77 -20 141 -11 64 -29 176 -40 247 -11 72 -25 162 -31 200 -13 76 -66 187 -99 205 -10 5 -84 10 -165 10 -142 0 -147 -1 -170 -25 -30 -29 -30 -29 -5 -180 10 -66 24 -151 30 -190 6 -38 15 -95 20 -125 5 -30 19 -112 30 -182 11 -71 29 -185 40 -255 11 -71 25 -153 30 -183 5 -30 16 -113 25 -185 10 -71 26 -176 36 -231 10 -56 21 -148 24 -205 3 -57 10 -157 17 -221 12 -133 3 -206 -38 -297 -13 -29 -24 -64 -24 -76 0 -35 37 -75 69 -75 36 0 253 128 309 183 127 122 145 266 86 677 -14 96 -29 195 -34 220 -5 25 -6 47 -4 49 2 3 35 -26 72 -62 106 -106 205 -166 314 -192 126 -30 296 -12 384 40 61 36 130 117 151 178 25 72 23 227 -5 392 -13 72 -38 227 -58 345 -19 118 -46 283 -59 365 -14 83 -25 161 -25 175 0 40 56 126 102 158 57 39 160 90 227 113 66 23 77 16 86 -54 3 -29 11 -77 16 -107 9 -52 55 -343 99 -625 11 -71 30 -186 41 -255 11 -69 24 -154 30 -190 13 -86 25 -160 41 -245 14 -75 15 -321 3 -448 -9 -97 3 -117 73 -117 87 0 270 136 316 234 11 23 21 73 24 123 3 46 8 86 12 88 4 2 30 -14 59 -35 127 -96 287 -150 439 -150 254 1 435 124 505 345 19 62 22 92 22 255 0 193 -5 227 -52 375 -51 159 -128 281 -252 397 -68 63 -107 90 -186 129 -122 60 -201 78 -367 86 -95 4 -155 1 -243 -12 -64 -9 -118 -16 -120 -14 -1 2 -15 75 -29 161 -26 154 -44 218 -84 308 -24 53 -84 118 -115 125 -31 7 -281 35 -292 33 -6 0 -73 -4 -150 -8z m1034 -905 c98 -20 156 -53 222 -121 73 -77 101 -128 142 -254 86 -264 70 -468 -43 -552 -70 -51 -212 -47 -333 11 -85 40 -187 135 -187 173 0 15 -13 107 -30 205 -86 518 -83 496 -65 509 9 7 49 18 88 24 40 6 79 13 87 14 31 7 50 6 119 -9z"/>
 <path d="M3 3355 c0 -22 2 -30 4 -17 2 12 2 30 0 40 -3 9 -5 -1 -4 -23z"/>
 <path d="M3 3025 c0 -22 2 -30 4 -17 2 12 2 30 0 40 -3 9 -5 -1 -4 -23z"/>
 </g>
<g id="layer2" fill="#4e3192" stroke="none">
 <path d="M2830 6363 c-461 -56 -874 -197 -1278 -437 -217 -130 -382 -257 -576 -446 -334 -325 -574 -686 -749 -1125 -108 -270 -184 -589 -193 -810 -3 -71 -11 -141 -17 -154 -8 -16 -12 -86 -12 -201 0 -115 4 -185 12 -201 6 -13 14 -82 17 -154 9 -221 85 -540 193 -810 134 -336 320 -647 548 -915 89 -104 303 -314 405 -397 229 -185 531 -365 807 -479 264 -110 634 -203 808 -204 46 -1 77 -6 89 -15 29 -22 593 -22 622 0 12 9 43 14 89 15 174 1 544 94 808 204 276 114 578 294 807 479 102 83 316 293 405 397 400 470 661 1053 739 1655 22 166 22 684 0 850 -78 602 -339 1185 -739 1655 -89 104 -303 314 -405 397 -359 290 -789 506 -1230 618 -280 71 -345 78 -750 80 -201 2 -381 1 -400 -2z m639 -1597 c106 -14 116 -17 149 -48 38 -36 80 -119 106 -211 13 -45 66 -329 66 -354 0 -7 68 1 185 21 112 20 185 20 302 1 183 -30 314 -92 437 -206 141 -132 213 -262 273 -491 23 -90 27 -123 27 -258 0 -123 -4 -168 -18 -215 -65 -212 -193 -322 -413 -356 -163 -25 -355 34 -515 157 -77 60 -88 59 -88 -14 0 -143 -40 -230 -142 -313 -85 -67 -163 -105 -196 -93 -38 13 -48 51 -32 117 14 61 9 386 -8 467 -10 43 -19 99 -41 240 -6 36 -19 121 -30 190 -11 69 -30 184 -41 255 -11 72 -36 229 -55 350 -19 121 -40 254 -47 295 -20 139 -18 135 -69 138 -39 3 -64 -6 -168 -58 -132 -66 -180 -106 -221 -183 l-24 -46 33 -203 c18 -112 46 -279 61 -373 24 -143 64 -395 86 -536 6 -44 -18 -164 -44 -216 -25 -49 -99 -117 -149 -138 -65 -28 -183 -48 -240 -41 -85 10 -199 51 -268 96 -36 23 -101 80 -145 127 -44 46 -84 81 -90 78 -13 -8 -13 -76 0 -146 54 -297 73 -513 54 -620 -18 -104 -34 -139 -91 -200 -57 -61 -270 -192 -304 -187 -38 5 -46 32 -26 85 43 110 48 145 43 258 -13 275 -26 436 -45 539 -11 61 -27 167 -36 236 -9 69 -20 150 -25 180 -9 51 -17 101 -70 438 -11 70 -24 152 -29 182 -72 434 -72 433 -25 450 32 13 235 13 267 1 14 -6 38 -33 56 -64 32 -56 37 -77 81 -362 72 -456 63 -429 183 -581 74 -92 128 -140 211 -183 50 -27 69 -31 133 -31 181 0 190 50 103 563 -6 31 -14 84 -20 117 -5 33 -14 86 -20 118 -5 31 -21 127 -35 212 -14 85 -29 168 -33 184 -11 40 13 225 39 305 27 81 84 151 179 218 122 86 257 120 485 122 72 0 181 -6 244 -13z"/>
 <path d="M3960 3915 c-41 -7 -83 -16 -92 -20 -25 -10 -23 -59 6 -236 13 -79 38 -236 56 -349 l33 -205 58 -56 c171 -163 423 -194 536 -66 44 50 63 121 63 236 0 236 -69 436 -198 573 -117 124 -250 160 -462 123z"/>
 </g>

</svg>