<?xml version="1.0" standalone="no"?>
<!DOCTYPE svg PUBLIC "-//W3C//DTD SVG 20010904//EN"
 "http://www.w3.org/TR/2001/REC-SVG-20010904/DTD/svg10.dtd">
<svg version="1.0" xmlns="http://www.w3.org/2000/svg"
 width="1080.000000pt" height="1080.000000pt" viewBox="0 0 1080.000000 1080.000000"
 preserveAspectRatio="xMidYMid meet">
<metadata>
Created by potrace 1.11, written by Peter Selinger 2001-2013
</metadata>
<g transform="translate(0.000000,1080.000000) scale(0.100000,-0.100000)"
fill="#000000" stroke="none">
<path d="M5178 10795 c-2 -2 -59 -6 -128 -9 -69 -4 -141 -8 -160 -10 -19 -3
-66 -8 -105 -12 -38 -4 -72 -8 -75 -9 -7 -1 -96 -15 -140 -21 -61 -9 -175 -29
-285 -49 -16 -3 -124 -30 -240 -60 -492 -127 -1008 -341 -1385 -573 -19 -12
-48 -29 -65 -38 -41 -23 -294 -192 -374 -250 -121 -86 -288 -223 -431 -349
-161 -143 -472 -472 -595 -629 -16 -21 -38 -48 -49 -60 -76 -88 -265 -364
-386 -565 -134 -223 -370 -704 -370 -754 0 -7 -4 -17 -8 -22 -14 -15 -137
-360 -148 -411 -2 -12 -13 -51 -23 -85 -50 -167 -118 -469 -136 -604 -4 -27
-9 -52 -10 -55 -2 -3 -7 -35 -10 -70 -4 -36 -8 -67 -10 -70 -2 -3 -6 -39 -10
-79 -4 -41 -9 -84 -11 -95 -17 -89 -24 -637 -11 -871 7 -123 10 -155 22 -250
2 -22 7 -62 10 -90 3 -27 10 -72 15 -100 6 -27 12 -66 14 -85 12 -94 51 -284
82 -405 9 -33 18 -67 19 -75 34 -151 141 -470 233 -700 116 -290 318 -666 510
-950 80 -118 206 -291 243 -335 10 -11 55 -65 100 -120 46 -55 97 -116 114
-135 52 -60 387 -393 445 -442 30 -26 69 -59 85 -73 31 -27 144 -119 207 -167
137 -108 337 -243 541 -367 l117 -71 0 4320 0 4320 228 0 c320 1 760 16 1152
39 1095 67 1599 73 2025 25 644 -72 1162 -256 1565 -558 415 -310 678 -772
764 -1341 53 -351 50 -813 -8 -1140 -120 -669 -420 -1160 -928 -1518 -154
-109 -337 -202 -586 -298 -22 -8 -19 -13 55 -71 148 -117 279 -263 415 -463
253 -369 423 -704 801 -1575 168 -386 312 -703 444 -972 92 -188 118 -234 128
-224 7 7 36 32 65 57 148 123 438 408 551 539 35 41 66 77 69 80 7 6 103 121
112 135 5 5 27 35 51 65 144 181 353 501 474 725 57 104 183 360 183 370 0 2
13 33 29 68 50 109 210 551 226 625 2 9 24 96 49 192 53 208 70 290 91 435 3
22 7 49 10 60 3 17 12 74 20 140 1 11 5 40 9 65 41 293 41 925 1 1235 -23 175
-62 412 -80 491 -8 34 -16 73 -19 85 -2 13 -12 53 -21 89 -9 36 -19 72 -20 80
-24 102 -102 360 -126 415 -5 11 -24 63 -43 115 -114 319 -264 625 -464 950
-79 128 -150 233 -254 375 -197 268 -521 621 -765 832 -181 157 -185 159 -305
250 -62 46 -120 90 -128 96 -129 102 -488 317 -720 433 -158 79 -382 181 -415
189 -14 3 -46 15 -70 26 -129 60 -642 210 -835 246 -14 2 -43 8 -65 13 -22 5
-62 12 -90 16 -27 3 -52 8 -55 9 -3 2 -33 7 -65 10 -33 4 -67 9 -76 10 -9 2
-40 6 -70 10 -30 4 -56 8 -59 10 -3 2 -53 7 -110 10 -58 4 -121 9 -140 11 -42
5 -587 13 -592 9z"/>
<path d="M5005 8473 c-261 -8 -591 -38 -822 -74 l-133 -22 0 -1592 0 -1592 98
-7 c328 -23 1248 -33 1482 -16 471 35 809 151 1090 375 279 222 442 556 502
1025 16 124 15 530 -1 640 -58 400 -169 650 -375 848 -96 92 -171 145 -293
206 -344 172 -785 232 -1548 209z"/>
<path d="M4583 4293 l-533 -3 0 -2060 0 -2060 23 -5 c12 -3 72 -17 132 -31 61
-14 121 -28 135 -30 14 -2 36 -7 50 -9 14 -3 42 -8 64 -11 21 -3 48 -8 60 -10
11 -2 41 -7 66 -10 25 -3 55 -7 67 -9 228 -37 411 -49 738 -49 305 -1 523 11
705 39 14 3 43 7 65 9 22 3 49 8 61 10 12 2 45 7 73 11 62 8 284 54 426 89
278 67 661 200 900 311 171 79 162 74 134 75 -44 0 -101 105 -307 565 -142
319 -217 500 -377 919 -352 922 -512 1271 -741 1616 -212 319 -389 491 -622
603 l-87 42 -250 0 c-137 1 -490 -1 -782 -2z"/>
</g>
</svg>
