<?xml version="1.0" standalone="no"?>
<!DOCTYPE svg PUBLIC "-//W3C//DTD SVG 20010904//EN"
 "http://www.w3.org/TR/2001/REC-SVG-20010904/DTD/svg10.dtd">
<svg version="1.0" xmlns="http://www.w3.org/2000/svg"
 width="509.000000pt" height="509.000000pt" viewBox="0 0 509.000000 509.000000"
 preserveAspectRatio="xMidYMid meet">
<metadata>
Created by potrace 1.11, written by Peter Selinger 2001-2013
</metadata>
<g transform="translate(0.000000,509.000000) scale(0.100000,-0.100000)"
fill="#000000" stroke="none">
<path d="M2225 5076 c-598 -86 -1085 -331 -1496 -752 -151 -156 -226 -249
-334 -414 -209 -318 -339 -690 -386 -1101 -17 -156 -7 -521 20 -669 45 -254
110 -458 216 -679 146 -302 275 -481 521 -723 199 -196 330 -294 570 -427 255
-142 569 -243 889 -286 249 -34 606 -17 865 40 362 80 747 265 1038 498 99 80
319 300 401 402 284 353 471 793 535 1263 32 226 18 605 -30 832 -83 392 -276
798 -520 1090 -98 118 -350 360 -454 437 -331 243 -701 402 -1101 473 -102 19
-170 23 -384 26 -175 2 -289 -1 -350 -10z m945 -794 c153 -20 309 -66 427
-125 120 -61 256 -157 301 -215 87 -111 159 -260 199 -410 24 -88 26 -115 27
-297 0 -178 -2 -209 -22 -284 -45 -164 -166 -368 -273 -462 -136 -117 -216
-168 -336 -213 -91 -35 -123 -59 -123 -95 0 -32 27 -60 85 -89 23 -11 77 -50
122 -85 88 -72 151 -160 232 -322 58 -118 117 -353 140 -560 13 -107 74 -333
112 -411 37 -77 37 -90 -2 -98 -39 -8 -896 -8 -925 0 -12 3 -26 16 -32 29 -20
44 -71 252 -92 375 -11 69 -32 175 -45 235 -13 61 -34 160 -45 220 -30 155
-64 263 -100 317 -44 66 -135 146 -200 177 -52 25 -63 26 -222 26 -161 0 -168
-1 -190 -23 l-23 -23 -5 -658 c-3 -363 -9 -663 -13 -668 -11 -11 -873 -11
-884 0 -4 5 -10 736 -13 1625 l-5 1617 -22 40 c-44 84 -95 110 -240 125 -159
17 -160 17 -172 52 -12 34 -15 128 -5 176 4 21 13 32 28 35 47 10 2233 -1
2316 -11z"/>
<path d="M2339 3991 c-54 -11 -102 -45 -129 -93 l-25 -43 0 -747 0 -747 23
-23 c22 -22 27 -23 220 -22 217 2 231 5 377 74 186 88 295 260 355 557 67 334
-34 740 -227 912 -75 67 -173 117 -253 130 -72 12 -284 13 -341 2z"/>
</g>
</svg>
