<!DOCTYPE svg PUBLIC "-//W3C//DTD SVG 20010904//EN" "http://www.w3.org/TR/2001/REC-SVG-20010904/DTD/svg10.dtd">
<svg version="1.0" xmlns="http://www.w3.org/2000/svg" width="400px" height="400px" viewBox="0 0 4000 4000" preserveAspectRatio="xMidYMid meet">
<g id="layer1" fill="#1c1c1c" stroke="none">
 <path d="M50 3992 c0 -4 9 -24 19 -43 17 -32 18 -39 5 -57 -8 -11 -28 -23 -44 -27 -17 -4 -30 -13 -30 -21 0 -23 55 -17 88 11 28 24 30 24 46 6 9 -9 16 -22 16 -27 0 -17 -69 -56 -109 -61 -31 -4 -41 -10 -41 -24 0 -13 7 -19 23 -18 32 0 101 30 132 57 20 18 30 20 45 12 27 -14 26 -20 -15 -67 -42 -49 -89 -73 -144 -73 -35 0 -41 -3 -41 -21 0 -20 4 -21 49 -16 67 8 121 37 169 92 l40 46 35 -17 c34 -16 35 -18 21 -40 -22 -33 -159 -125 -212 -140 -25 -8 -58 -14 -74 -14 -19 0 -28 -5 -28 -16 0 -14 9 -16 55 -12 74 6 176 59 250 130 57 56 87 70 100 48 10 -16 -69 -113 -129 -159 -69 -54 -154 -91 -221 -98 -37 -4 -55 -10 -55 -19 0 -9 11 -14 28 -14 23 0 32 -7 46 -37 17 -37 17 -38 -4 -55 -12 -10 -33 -18 -46 -18 -18 0 -24 -6 -24 -21 0 -19 4 -21 32 -15 18 3 45 15 59 26 27 19 27 19 44 -1 17 -18 17 -20 -1 -40 -27 -30 -68 -49 -104 -49 -23 0 -30 -4 -30 -20 0 -40 98 -15 155 40 30 29 30 29 54 9 l23 -19 -26 -34 c-30 -40 -101 -77 -162 -84 -35 -4 -44 -8 -44 -24 0 -18 5 -19 43 -13 61 9 136 48 181 94 34 35 41 38 62 29 13 -6 24 -15 24 -19 0 -10 -80 -110 -105 -131 -25 -22 -96 -46 -157 -54 -59 -8 -67 -34 -11 -34 106 0 200 54 277 159 28 38 41 48 56 44 31 -8 33 -20 10 -67 -42 -87 -174 -178 -279 -191 -84 -11 -101 -16 -101 -31 0 -9 10 -14 28 -14 21 0 32 -8 47 -36 l19 -36 -24 -19 c-14 -10 -35 -19 -47 -19 -16 0 -23 -6 -23 -20 0 -28 38 -26 83 4 l35 24 21 -22 21 -22 -22 -22 c-33 -30 -79 -52 -110 -52 -22 0 -28 -5 -28 -21 0 -19 4 -20 43 -14 53 9 74 20 114 58 32 30 33 30 52 12 16 -14 18 -22 10 -37 -17 -31 -99 -77 -161 -90 -38 -8 -58 -17 -58 -26 0 -12 11 -14 54 -9 66 7 143 45 183 91 27 30 33 33 49 22 16 -12 15 -16 -15 -59 -54 -80 -150 -136 -228 -137 -37 0 -43 -3 -43 -21 0 -20 4 -21 54 -16 97 10 198 76 264 174 21 29 24 30 52 20 35 -13 36 -21 11 -64 -45 -73 -230 -184 -331 -198 -40 -5 -50 -11 -50 -26 0 -15 5 -17 28 -13 24 5 30 1 44 -29 16 -34 16 -36 -5 -50 -12 -8 -32 -17 -44 -21 -28 -9 -31 -36 -4 -36 10 0 34 11 54 24 35 24 36 24 53 5 17 -19 16 -21 -11 -49 -15 -16 -48 -37 -71 -47 -29 -12 -44 -24 -44 -36 0 -14 5 -16 28 -11 40 10 60 22 106 64 l41 38 29 -24 c27 -24 27 -26 12 -50 -29 -42 -95 -83 -157 -95 -41 -8 -59 -16 -59 -27 0 -12 8 -13 43 -8 87 14 122 30 173 81 50 50 53 51 78 38 l26 -14 -30 -44 c-16 -24 -44 -54 -61 -66 -40 -28 -155 -69 -196 -69 -23 0 -33 -5 -33 -15 0 -22 73 -19 146 5 75 26 147 79 182 133 21 32 32 41 49 39 l23 -3 -21 -40 c-29 -58 -128 -152 -191 -183 -30 -15 -85 -32 -122 -38 -43 -7 -66 -16 -66 -24 0 -9 11 -14 30 -14 22 0 33 -7 45 -29 14 -29 14 -30 -21 -60 -19 -17 -39 -31 -44 -31 -6 0 -10 -7 -10 -15 0 -8 8 -15 18 -15 23 0 82 37 82 52 0 6 13 -1 29 -16 25 -24 28 -31 18 -47 -16 -26 -68 -49 -111 -49 -25 0 -36 -4 -36 -15 0 -11 11 -15 39 -15 51 0 89 15 123 47 27 26 28 26 48 8 15 -13 17 -22 9 -36 -18 -34 -103 -90 -161 -106 -37 -10 -58 -22 -58 -31 0 -12 9 -13 42 -8 69 11 130 44 179 96 l45 48 25 -18 24 -19 -54 -55 c-68 -68 -136 -106 -206 -113 -39 -4 -55 -10 -55 -21 0 -11 11 -14 54 -10 81 7 173 56 240 129 51 55 59 60 86 54 17 -4 30 -10 30 -14 0 -4 -14 -29 -31 -54 -64 -96 -188 -166 -341 -192 -47 -7 -53 -35 -8 -35 23 0 33 -7 46 -32 16 -32 16 -32 -15 -60 -17 -15 -38 -28 -46 -28 -8 0 -15 -7 -15 -15 0 -25 47 -17 82 14 l33 28 23 -28 22 -27 -41 -30 c-23 -17 -59 -34 -80 -37 -24 -4 -39 -12 -39 -21 0 -36 120 2 157 49 20 25 21 26 37 8 21 -23 14 -41 -32 -78 -52 -42 -96 -63 -132 -63 -23 0 -30 -4 -30 -19 0 -17 5 -19 38 -14 60 9 118 38 169 86 46 43 49 44 78 33 l30 -12 -64 -67 c-70 -74 -162 -127 -218 -127 -24 0 -33 -4 -33 -16 0 -14 8 -16 50 -11 91 11 206 86 277 179 19 25 24 27 52 17 28 -10 30 -13 19 -32 -18 -34 -129 -147 -169 -172 -47 -30 -131 -55 -186 -55 -36 0 -43 -3 -43 -20 0 -16 7 -20 30 -20 22 0 33 -7 44 -29 14 -26 14 -30 -2 -44 -9 -9 -29 -20 -45 -26 -15 -6 -27 -18 -27 -27 0 -23 56 -11 87 18 22 21 23 21 43 3 11 -10 20 -24 20 -31 0 -16 -83 -71 -121 -79 -19 -4 -29 -13 -29 -25 0 -15 5 -17 33 -11 48 11 102 39 128 67 21 22 24 23 41 7 24 -21 23 -26 -9 -64 -32 -38 -115 -79 -160 -79 -26 0 -33 -4 -33 -20 0 -16 5 -19 22 -16 13 3 41 8 63 11 67 11 121 45 168 106 10 14 16 15 40 4 l29 -12 -53 -57 c-63 -69 -134 -112 -212 -127 -45 -9 -57 -16 -57 -30 0 -22 15 -23 79 -8 103 23 221 108 253 180 11 26 17 30 42 25 16 -4 32 -8 34 -11 9 -9 -48 -93 -91 -132 -73 -67 -184 -113 -274 -113 -36 0 -43 -3 -43 -20 0 -16 7 -20 33 -20 17 0 50 5 72 10 25 6 41 6 43 0 2 -6 10 -10 19 -10 8 0 13 6 10 13 -2 6 10 18 27 25 29 12 33 11 53 -12 12 -14 32 -26 44 -26 22 0 21 2 -10 34 l-32 33 25 17 c33 21 39 20 62 -5 45 -51 142 -72 225 -49 20 6 57 28 81 50 43 38 46 39 62 21 15 -17 14 -20 -15 -57 -27 -34 -29 -39 -13 -43 11 -2 30 10 49 32 l30 36 32 -17 c26 -14 30 -20 22 -34 -8 -15 -6 -18 9 -18 11 0 22 6 25 13 5 14 67 12 67 -2 0 -9 181 -5 209 4 11 3 22 1 26 -5 9 -14 38 -13 32 3 -2 6 10 19 27 29 31 16 31 16 56 -14 15 -18 33 -29 43 -27 15 4 14 9 -12 40 l-30 36 28 21 c29 21 29 21 46 1 10 -10 42 -31 72 -45 45 -23 63 -26 112 -21 69 6 138 38 153 73 l11 24 24 -22 23 -21 -25 -44 c-25 -41 -25 -43 -6 -43 11 0 28 14 41 34 21 34 21 35 50 18 23 -13 26 -20 19 -34 -8 -15 -6 -18 11 -18 11 0 20 5 20 11 0 8 12 9 38 4 47 -9 223 -9 251 0 12 4 21 2 21 -4 0 -6 7 -11 16 -11 9 0 14 6 11 13 -2 6 10 19 26 28 30 16 31 16 55 -12 15 -19 33 -29 50 -29 l27 0 -38 36 -37 36 25 20 25 20 29 -31 c79 -85 245 -84 316 1 25 30 26 30 48 12 12 -10 24 -20 26 -21 2 -1 -8 -18 -23 -38 -25 -32 -26 -35 -7 -35 10 0 28 12 38 26 15 21 25 25 42 19 16 -5 21 -13 18 -26 -4 -14 0 -19 14 -19 10 0 19 5 19 11 0 8 15 9 48 4 56 -9 206 -9 245 1 17 4 27 2 27 -5 0 -6 9 -11 20 -11 13 0 18 5 14 14 -4 10 6 20 31 30 35 15 36 15 63 -15 16 -18 35 -30 45 -28 15 3 13 9 -12 40 -29 35 -30 37 -13 53 17 15 21 13 53 -20 48 -50 120 -69 196 -53 47 9 66 20 102 56 l45 44 23 -23 23 -23 -31 -38 c-28 -34 -29 -37 -10 -37 11 0 30 13 42 29 21 28 22 28 49 13 15 -9 26 -22 23 -29 -3 -8 3 -13 16 -13 12 0 21 4 21 9 0 4 19 5 43 0 73 -14 97 -11 97 11 0 17 -7 20 -44 20 -96 0 -142 25 -256 139 l-105 105 30 12 c27 12 31 11 44 -9 31 -47 128 -134 175 -157 27 -13 73 -29 103 -36 52 -12 53 -12 53 11 0 19 -7 24 -41 29 -81 13 -200 88 -238 150 -26 42 -26 43 5 50 21 6 35 -2 77 -40 29 -26 70 -55 92 -65 50 -23 105 -25 105 -4 0 9 -9 15 -23 15 -33 0 -137 54 -170 88 l-27 28 31 23 31 23 37 -35 c30 -30 94 -67 116 -67 3 0 5 8 5 18 0 11 -12 22 -33 30 -18 6 -47 27 -65 45 -30 31 -31 34 -16 55 15 22 15 22 42 3 15 -11 37 -22 50 -26 18 -5 22 -2 22 14 0 12 -6 21 -15 21 -9 0 -27 7 -40 16 -23 15 -24 16 -8 50 12 24 23 34 40 34 16 0 23 6 23 19 0 15 -9 19 -53 23 -60 5 -165 50 -215 93 -55 47 -135 157 -120 167 28 17 54 8 73 -28 24 -46 82 -93 163 -133 73 -37 152 -52 152 -29 0 9 -22 21 -57 32 -87 27 -168 74 -213 122 -22 24 -40 48 -40 53 0 5 14 14 30 21 29 12 32 11 80 -34 51 -48 109 -79 168 -90 26 -4 32 -2 32 13 0 13 -15 22 -57 34 -32 9 -84 34 -116 57 l-58 42 32 24 33 24 36 -34 c36 -36 76 -56 111 -56 34 0 20 26 -20 39 -22 6 -54 25 -71 41 l-33 31 23 24 c23 25 24 25 44 6 12 -11 33 -24 49 -30 22 -9 27 -8 27 4 0 8 -4 15 -9 15 -5 0 -23 12 -40 26 l-30 25 22 34 c12 19 30 35 40 35 9 0 17 6 17 13 0 9 -23 18 -62 25 -96 18 -163 57 -255 147 -46 45 -83 87 -83 93 0 6 14 15 30 19 28 8 36 3 95 -55 69 -67 157 -115 233 -127 33 -5 42 -4 42 8 0 16 -20 27 -48 27 -51 0 -252 131 -252 164 0 7 11 18 24 25 22 12 27 10 67 -34 47 -50 113 -89 172 -100 33 -7 37 -5 37 14 0 15 -6 21 -22 21 -27 0 -114 41 -143 67 -11 10 -28 29 -37 42 -16 23 -16 25 5 42 21 17 23 17 47 -6 47 -45 150 -73 150 -41 0 7 -19 19 -43 26 -24 6 -56 22 -72 34 -28 22 -28 23 -10 50 l18 27 26 -25 c14 -13 38 -28 54 -31 41 -11 35 20 -8 41 -20 9 -38 20 -41 25 -9 16 36 79 57 79 36 0 21 29 -18 35 -111 19 -179 54 -273 141 -72 67 -98 109 -74 118 29 11 40 6 99 -52 33 -31 88 -72 122 -90 70 -37 163 -54 163 -30 0 9 -20 18 -59 26 -35 7 -82 28 -117 50 -65 42 -134 100 -134 112 0 4 14 13 30 20 29 12 32 10 76 -30 49 -45 106 -74 167 -86 34 -6 39 -4 35 11 -2 12 -19 22 -49 29 -52 14 -125 54 -153 85 -18 20 -18 21 5 40 29 25 33 25 49 5 18 -21 88 -60 123 -68 22 -5 27 -3 27 13 0 13 -9 21 -34 25 -18 4 -51 22 -72 40 l-39 34 24 26 24 25 29 -24 c33 -28 68 -33 68 -11 0 8 -8 17 -19 21 -10 3 -26 14 -36 25 -15 17 -16 24 -5 50 9 21 19 30 36 30 14 0 24 6 24 14 0 8 -21 18 -57 25 -101 20 -159 54 -257 153 l-91 91 28 12 c27 11 31 9 90 -50 66 -65 180 -130 250 -142 32 -5 37 -3 37 14 0 16 -9 22 -38 27 -60 9 -158 64 -220 121 l-57 53 34 14 c34 14 34 13 82 -33 49 -48 117 -79 171 -79 43 0 36 28 -10 36 -58 11 -99 31 -142 70 l-40 36 24 19 c31 25 31 25 77 -15 22 -19 58 -38 80 -44 34 -9 39 -8 39 8 0 11 -10 19 -27 23 -16 3 -46 21 -68 40 -40 35 -40 35 -21 56 19 21 20 21 40 2 12 -11 33 -23 49 -26 23 -6 27 -4 27 13 0 14 -9 21 -30 26 -17 3 -33 13 -37 22 -9 25 23 84 47 84 11 0 20 7 20 15 0 8 -1 15 -3 15 -2 0 -30 5 -62 11 -109 20 -245 107 -306 196 -32 46 -31 56 7 67 18 5 26 0 43 -27 53 -87 171 -162 270 -174 42 -5 51 -3 51 10 0 10 -16 19 -50 26 -67 15 -112 34 -165 72 -39 28 -104 106 -94 112 52 30 48 30 93 -17 45 -49 106 -81 175 -92 38 -6 43 -5 39 12 -2 13 -15 21 -45 26 -55 9 -111 39 -151 80 l-32 34 30 23 31 22 32 -27 c33 -28 102 -63 125 -64 6 0 12 8 12 19 0 12 -9 20 -28 24 -15 3 -46 19 -70 37 -42 30 -42 31 -25 54 l18 23 30 -22 c43 -32 75 -38 75 -14 0 10 -6 19 -14 19 -8 0 -26 10 -41 23 l-25 22 20 33 c12 19 28 32 40 32 11 0 20 6 20 14 0 8 -22 18 -60 25 -104 21 -252 112 -310 193 -17 23 -30 44 -30 48 0 4 14 10 32 14 27 5 35 2 60 -28 38 -46 129 -105 206 -133 79 -29 102 -29 102 -3 0 14 -7 20 -23 20 -65 0 -216 75 -257 128 -26 32 -25 36 6 50 23 11 28 9 58 -23 36 -38 118 -79 179 -89 32 -6 37 -4 37 12 0 15 -10 21 -41 26 -50 8 -127 46 -157 78 l-22 24 24 23 25 23 33 -26 c37 -28 98 -56 123 -56 8 0 15 9 15 19 0 13 -9 21 -29 26 -17 3 -49 20 -72 37 -41 30 -41 30 -22 50 20 19 20 19 58 -6 21 -14 44 -26 51 -26 20 0 17 30 -3 37 -10 3 -28 15 -40 25 l-21 20 23 44 c22 42 22 44 4 44 -11 0 -26 -14 -38 -37 -31 -60 -145 -168 -209 -200 -48 -23 -72 -28 -157 -31 -109 -4 -185 14 -271 64 -52 30 -138 121 -161 168 -9 20 -23 36 -30 36 -16 0 -16 0 3 -46 15 -37 15 -38 -8 -56 -45 -35 -94 -36 -137 -1 l-22 18 26 37 c30 44 30 48 8 48 -10 0 -33 -23 -52 -51 -78 -115 -206 -200 -336 -222 -136 -23 -283 29 -392 139 -33 34 -67 78 -74 98 -7 20 -19 36 -26 36 -17 0 -16 -13 3 -58 14 -35 14 -38 -7 -54 -21 -18 -82 -24 -113 -12 -32 12 -38 41 -16 76 25 41 25 48 2 48 -12 0 -25 -14 -35 -39 -24 -54 -129 -148 -204 -184 -133 -62 -274 -59 -410 8 -75 37 -161 119 -191 182 -9 20 -23 33 -34 33 -17 0 -17 -2 3 -42 l21 -42 -26 -23 c-35 -30 -93 -31 -130 -2 l-26 20 20 39 c24 46 24 50 7 50 -7 0 -32 -29 -56 -65 -76 -116 -210 -196 -338 -203 -87 -5 -157 9 -240 49 -72 34 -173 123 -205 180 -19 34 -48 53 -48 31z m914 -151 c42 -11 92 0 128 29 l25 19 21 -28 20 -28 -21 -26 c-24 -29 -83 -57 -119 -57 -46 0 -101 22 -136 55 l-37 33 23 25 c23 25 24 25 42 7 10 -10 35 -23 54 -29z m1000 -1 c36 -13 89 -4 122 23 l26 20 19 -24 c25 -32 24 -34 -13 -60 -38 -27 -128 -37 -180 -20 -19 6 -45 22 -58 36 -22 23 -22 24 -4 48 19 25 19 25 39 7 11 -10 33 -24 49 -30z m1180 -22 c-29 -31 -91 -59 -133 -60 -44 0 -86 19 -124 59 -27 29 -27 30 -8 47 18 16 21 16 57 -3 52 -28 112 -27 155 2 l34 23 19 -23 c18 -23 18 -24 0 -45z m-2229 -79 c51 -23 145 -25 191 -3 19 9 45 29 58 44 22 27 25 28 46 13 l22 -15 -34 -35 c-61 -64 -114 -88 -193 -88 -83 1 -132 23 -189 85 l-37 41 22 18 c22 18 23 18 48 -12 14 -16 43 -38 66 -48z m1029 0 c66 -18 174 7 222 52 20 19 21 19 38 0 24 -26 9 -54 -51 -91 -67 -42 -139 -56 -210 -40 -46 10 -67 22 -110 63 l-53 50 21 23 22 23 40 -35 c23 -19 59 -39 81 -45z m1024 -9 c72 -20 121 -6 185 49 30 27 39 30 57 21 27 -15 26 -20 -17 -62 -53 -50 -133 -88 -186 -88 -55 0 -131 37 -182 90 l-40 41 23 19 c23 19 23 19 73 -20 28 -22 67 -44 87 -50z m-2191 -8 c38 -47 111 -87 190 -103 92 -19 155 3 236 81 58 57 61 58 83 43 13 -8 24 -19 24 -23 0 -24 -89 -103 -148 -132 -61 -30 -74 -33 -162 -33 -84 0 -102 3 -154 29 -64 31 -156 113 -156 138 0 12 30 35 51 37 3 1 19 -16 36 -37z m1020 -11 c55 -53 139 -91 202 -91 83 0 202 56 239 112 17 26 17 26 50 9 l33 -17 -31 -42 c-61 -85 -200 -149 -305 -140 -73 6 -173 56 -239 120 -31 30 -56 59 -56 65 0 8 34 30 51 32 3 1 28 -21 56 -48z m1001 4 c23 -24 72 -58 107 -76 55 -27 72 -31 112 -25 69 9 152 51 204 102 41 40 49 45 68 35 11 -7 21 -15 21 -18 0 -18 -53 -93 -82 -115 -88 -67 -164 -85 -267 -64 -91 19 -155 54 -221 121 l-52 53 28 16 c16 8 31 15 34 15 3 1 24 -19 48 -44z m-2133 -15 c11 -36 103 -116 171 -150 41 -20 87 -34 122 -37 65 -6 171 16 235 48 49 24 122 92 143 131 13 24 17 26 43 17 42 -15 31 -41 -58 -130 -109 -109 -146 -124 -296 -124 -91 0 -133 4 -173 18 -62 22 -198 120 -234 169 -41 55 -41 57 -6 67 46 13 46 13 53 -9z m1026 -28 c44 -59 124 -115 204 -143 135 -47 296 -1 404 117 51 56 61 62 85 56 l27 -7 -29 -45 c-36 -56 -68 -85 -154 -143 -96 -63 -137 -73 -254 -58 -53 6 -111 18 -130 26 -58 24 -190 131 -223 182 -29 43 -30 48 -14 55 36 14 49 7 84 -40z m990 22 c23 -43 110 -115 179 -148 58 -28 75 -31 160 -31 78 0 104 4 144 23 71 32 134 88 159 139 20 41 23 43 52 37 16 -3 32 -8 34 -10 8 -7 -55 -101 -94 -138 -54 -52 -173 -113 -248 -127 -72 -13 -145 0 -237 43 -49 23 -87 53 -154 121 l-89 91 34 12 c46 17 44 17 60 -12z m-2110 -35 c12 -30 11 -33 -15 -55 -34 -30 -84 -31 -120 -3 l-27 21 20 32 c17 26 28 32 68 36 59 7 58 7 74 -31z m1004 5 c19 -46 20 -41 -17 -64 -42 -25 -74 -25 -115 0 l-32 19 17 40 17 41 57 0 c57 0 58 -1 73 -36z m2006 -6 c11 -28 11 -33 -10 -49 -31 -26 -91 -25 -125 2 -29 23 -32 36 -12 64 11 17 23 19 74 17 57 -3 61 -6 73 -34z m-1004 14 c19 -25 16 -40 -13 -67 -35 -32 -84 -33 -119 -2 -25 21 -26 23 -10 53 14 30 19 31 72 32 42 0 60 -4 70 -16z m66 -87 c22 -30 20 -35 -40 -74 -73 -49 -165 -39 -222 23 l-25 26 23 23 c17 16 25 18 28 9 8 -20 59 -42 99 -42 36 0 104 33 104 51 0 16 15 9 33 -16z m-2187 -34 c38 -10 90 2 126 29 l30 22 24 -23 24 -23 -22 -24 c-69 -74 -186 -79 -256 -11 -31 30 -31 32 -14 54 17 23 17 23 38 4 12 -11 34 -24 50 -28z m1026 2 c32 -3 55 2 90 20 l47 24 21 -22 20 -21 -33 -31 c-74 -72 -178 -72 -246 1 -23 24 -23 26 -7 52 l18 26 23 -22 c14 -13 41 -24 67 -27z m1958 21 c47 -31 100 -29 148 5 l29 20 23 -24 c19 -20 21 -27 10 -40 -49 -59 -148 -74 -227 -33 -61 31 -73 50 -49 77 11 12 21 21 23 21 2 0 21 -12 43 -26z m-731 -110 c-91 -94 -204 -114 -321 -56 -37 18 -76 45 -88 59 -19 24 -19 27 -4 45 23 25 31 23 75 -16 47 -43 103 -61 162 -52 47 7 131 56 141 82 5 12 10 11 36 -8 l30 -22 -31 -32z m-2358 40 c35 -39 96 -64 156 -64 66 0 92 10 143 56 l41 37 22 -21 21 -22 -56 -54 c-64 -63 -109 -77 -198 -64 -72 11 -174 59 -195 92 -17 25 -16 27 6 46 31 25 31 25 60 -6z m1013 -4 c44 -47 84 -64 147 -63 65 1 90 12 140 60 36 35 37 35 63 17 l27 -17 -38 -39 c-53 -55 -106 -80 -183 -86 -56 -4 -73 -1 -115 21 -28 14 -65 41 -84 61 -34 35 -34 36 -16 56 23 26 25 26 59 -10z m1992 9 c75 -83 229 -87 310 -8 30 29 31 29 53 12 l23 -19 -51 -48 c-71 -65 -129 -90 -194 -82 -56 8 -114 34 -169 78 -42 33 -45 43 -21 70 21 23 26 23 49 -3z m-2546 -65 c0 -22 -97 -119 -147 -146 -98 -54 -169 -55 -298 -7 -44 16 -76 39 -125 86 l-65 65 31 15 c32 15 33 15 68 -21 75 -74 202 -116 292 -96 64 15 125 51 166 99 28 34 35 37 55 28 13 -6 23 -16 23 -23z m1010 -4 c0 -21 -104 -111 -162 -139 -156 -77 -329 -36 -428 101 l-31 42 26 13 c24 13 28 12 58 -20 44 -47 104 -84 157 -98 93 -24 263 38 307 111 16 28 18 28 45 14 15 -8 28 -19 28 -24z m990 -9 c-17 -32 -109 -107 -169 -137 -47 -24 -68 -29 -136 -29 -66 0 -90 5 -136 26 -63 30 -133 89 -154 129 -13 25 -12 28 8 39 20 11 27 8 64 -27 67 -64 125 -87 218 -87 67 0 89 4 137 28 31 15 71 45 90 66 32 36 34 37 61 24 22 -11 26 -17 17 -32z m554 -56 c116 -66 268 -45 362 50 49 51 51 52 78 38 l27 -14 -20 -27 c-38 -53 -97 -101 -156 -129 -78 -36 -190 -38 -275 -4 -69 27 -145 82 -170 124 l-20 32 32 16 31 16 35 -39 c19 -22 54 -50 76 -63z m-2471 45 c14 -13 -24 -81 -68 -125 -46 -45 -133 -99 -197 -123 -26 -9 -78 -16 -133 -16 -85 -1 -95 1 -169 38 -58 28 -99 58 -157 116 -44 42 -79 84 -79 92 0 9 13 18 33 22 26 6 34 3 46 -16 30 -47 115 -121 165 -144 81 -37 155 -49 223 -35 115 23 225 94 268 176 19 34 42 39 68 15z m1010 0 c25 -23 -117 -179 -195 -215 -111 -52 -262 -59 -368 -17 -72 28 -165 103 -213 172 l-38 55 36 9 c32 7 38 6 53 -15 36 -53 104 -117 149 -141 95 -52 241 -55 336 -9 51 25 156 117 176 155 14 26 40 28 64 6z m1016 -6 c10 -9 -61 -93 -123 -147 -105 -90 -159 -112 -276 -112 -112 1 -204 27 -263 76 -43 35 -137 155 -137 174 0 7 10 15 23 19 16 4 26 0 37 -17 62 -93 164 -158 277 -178 129 -23 255 35 361 165 33 41 37 43 66 33 17 -5 33 -11 35 -13z m251 6 c0 -18 82 -100 125 -126 55 -31 183 -64 255 -64 45 0 72 7 127 35 65 32 143 101 170 149 8 14 17 17 42 11 l31 -7 -17 -30 c-26 -42 -120 -130 -177 -163 -73 -43 -171 -75 -227 -75 -102 0 -259 83 -337 178 -70 86 -67 81 -41 91 32 13 49 13 49 1z m-2093 -35 c16 -34 16 -36 -7 -60 -17 -18 -34 -25 -62 -25 -70 0 -108 37 -87 84 12 25 30 32 102 35 33 1 39 -3 54 -34z m1013 -3 c11 -24 9 -29 -19 -54 -40 -36 -89 -37 -128 -4 -27 24 -27 25 -12 57 l16 34 65 -3 c60 -3 67 -6 78 -30z m939 18 c41 0 49 -3 59 -25 10 -21 8 -26 -17 -45 -35 -24 -83 -26 -121 -3 -28 16 -28 17 -12 50 10 21 21 32 30 28 7 -3 35 -5 61 -5z m-889 -100 l22 -30 -31 -29 c-65 -60 -177 -61 -243 -2 -30 27 -30 28 -14 53 l17 27 36 -25 c45 -30 103 -32 149 -3 19 11 34 25 34 30 0 16 8 10 30 -21z m-990 -46 c-7 -7 -32 -23 -57 -35 -80 -39 -177 -26 -227 30 -20 21 -20 22 1 42 l21 21 29 -22 c57 -42 142 -35 183 15 13 16 16 15 37 -10 18 -21 21 -30 13 -41z m1857 22 c23 0 57 11 79 23 l37 22 24 -24 25 -24 -31 -30 c-59 -60 -178 -65 -253 -12 -34 24 -35 35 -7 66 l22 22 31 -22 c21 -15 45 -22 73 -21z m-2085 -100 c71 -30 162 -14 233 40 34 26 36 26 55 9 20 -18 20 -19 -12 -53 -76 -79 -159 -105 -250 -78 -59 17 -145 69 -162 99 -9 15 -6 22 13 38 l24 20 31 -30 c17 -17 48 -37 68 -45z m993 9 c85 -40 200 -25 244 32 20 24 20 24 45 6 14 -10 26 -21 26 -25 1 -18 -98 -90 -143 -103 -102 -30 -173 -13 -257 63 l-45 40 23 25 23 25 25 -23 c14 -13 40 -31 59 -40z m928 51 c3 -8 27 -27 54 -43 41 -24 59 -28 118 -28 76 1 125 19 160 60 20 23 21 23 42 5 l23 -18 -60 -56 c-75 -69 -118 -83 -204 -66 -67 13 -143 50 -177 86 l-22 24 23 25 c27 29 36 31 43 11z m-2069 -84 c42 -46 114 -87 180 -102 87 -19 201 23 274 101 22 24 34 30 51 24 28 -8 27 -24 -5 -71 -32 -46 -44 -57 -106 -89 -99 -52 -196 -52 -314 0 -54 24 -164 118 -164 140 0 9 27 29 48 34 1 1 18 -16 36 -37z m1108 -72 c113 -56 236 -37 333 52 47 43 57 48 75 38 20 -11 20 -12 3 -41 -27 -46 -89 -98 -152 -127 -45 -21 -71 -26 -131 -26 -99 0 -168 31 -256 116 l-65 62 32 16 32 17 34 -38 c19 -21 62 -52 95 -69z m999 5 c132 -59 230 -43 333 55 50 47 55 50 80 39 14 -7 26 -15 26 -19 0 -22 -75 -100 -124 -129 -115 -69 -213 -72 -342 -12 -56 26 -154 108 -154 128 0 5 12 16 26 24 26 16 27 15 60 -21 19 -20 61 -50 95 -65z m-2173 -6 c78 -89 214 -146 326 -136 121 10 243 81 290 169 15 28 24 34 43 30 35 -7 37 -18 9 -66 -34 -59 -106 -120 -180 -155 -170 -80 -324 -66 -457 41 -39 31 -139 146 -139 160 0 3 12 11 28 16 21 8 29 6 37 -6 6 -8 25 -32 43 -53z m1099 -77 c119 -75 257 -83 371 -22 61 32 133 101 154 147 9 18 14 20 39 11 37 -13 36 -24 -6 -83 -44 -62 -103 -109 -185 -149 -121 -57 -282 -46 -395 28 -57 38 -166 140 -184 173 -10 20 -9 23 21 31 32 9 35 7 85 -48 29 -32 74 -71 100 -88z m1601 128 c21 -10 -72 -127 -137 -172 -91 -63 -151 -81 -271 -82 -127 0 -159 12 -271 102 -64 52 -129 124 -129 144 0 3 14 8 32 12 29 6 36 1 81 -49 80 -91 199 -146 315 -147 51 0 75 6 127 31 69 34 161 112 184 155 14 26 30 28 69 6z m-1827 -41 c21 -41 13 -55 -42 -69 -32 -9 -46 -8 -74 6 -48 22 -54 34 -40 69 13 29 15 30 76 29 60 -2 63 -3 80 -35z m-1004 5 c17 -26 17 -27 -15 -55 -37 -33 -60 -36 -108 -13 -45 21 -48 28 -29 64 15 28 19 30 75 30 53 0 61 -3 77 -26z m2009 -6 c13 -25 12 -28 -12 -47 -32 -25 -100 -28 -132 -5 -25 17 -26 22 -13 57 9 22 14 24 76 23 62 -1 68 -3 81 -28z m997 0 l19 -33 -27 -22 c-39 -34 -88 -29 -137 14 -15 14 -15 16 0 44 16 26 22 29 72 29 51 0 56 -2 73 -32z m-2934 -119 c-36 -69 -189 -82 -265 -24 l-34 26 21 28 21 29 35 -24 c52 -35 113 -33 155 5 l33 30 22 -27 c14 -19 18 -32 12 -43z m814 22 c42 -16 69 -13 120 13 44 22 47 22 62 6 14 -16 12 -20 -24 -53 -50 -45 -101 -60 -155 -46 -35 10 -116 55 -116 66 0 3 10 17 23 33 21 27 23 27 42 9 11 -9 33 -22 48 -28z m991 10 c55 -26 90 -23 137 10 29 20 31 20 50 4 26 -25 24 -39 -11 -69 -71 -60 -159 -56 -248 11 l-33 25 22 24 c13 14 25 23 28 21 3 -2 28 -13 55 -26z m984 4 c49 -33 107 -33 155 -1 l36 25 15 -24 c15 -23 14 -25 -15 -54 -61 -62 -136 -63 -237 -5 l-43 25 23 29 c13 16 24 29 26 29 2 1 20 -10 40 -24z m-1708 -80 c0 -22 -78 -86 -128 -105 -102 -39 -213 -16 -289 60 -39 39 -40 43 -9 63 22 15 25 14 46 -8 28 -30 118 -65 166 -65 43 0 99 28 138 69 28 29 29 29 52 13 13 -9 24 -22 24 -27z m-1045 -45 c-22 -22 -59 -50 -83 -61 -84 -41 -218 -11 -292 66 l-32 33 23 15 c20 15 24 14 53 -8 44 -33 99 -55 139 -55 56 0 134 28 164 60 28 30 28 30 47 10 20 -20 20 -20 -19 -60z m1704 36 c54 -37 119 -52 170 -41 16 3 53 24 80 46 49 39 51 40 75 24 l25 -17 -32 -40 c-89 -112 -268 -116 -389 -9 l-43 39 25 20 c14 11 28 18 31 16 3 -2 29 -19 58 -38z m1330 25 c20 -15 21 -21 11 -37 -30 -49 -151 -104 -228 -104 -50 0 -113 24 -152 57 -55 47 -66 69 -41 83 16 8 28 4 63 -19 55 -37 120 -54 173 -47 45 7 103 39 123 67 16 23 21 23 51 0z m-899 -74 c0 -5 -23 -33 -51 -63 -72 -75 -140 -107 -245 -112 -77 -4 -88 -2 -149 27 -46 21 -85 50 -126 93 l-59 62 26 14 c25 13 29 12 57 -18 17 -18 64 -49 105 -68 61 -29 87 -36 137 -36 79 0 159 37 212 98 37 42 37 43 65 27 15 -9 28 -20 28 -24z m-2521 -16 c67 -66 144 -95 224 -87 71 7 151 46 198 98 34 36 39 38 63 27 14 -7 26 -16 26 -22 0 -27 -179 -161 -237 -178 -61 -17 -123 -5 -204 37 -68 36 -169 120 -169 140 0 9 22 24 47 33 1 1 24 -21 52 -48z m987 9 c111 -123 300 -126 430 -7 46 42 56 47 74 37 27 -14 26 -20 -14 -72 -41 -54 -68 -72 -152 -104 -135 -51 -256 -21 -375 92 -32 32 -59 60 -59 64 0 7 38 28 53 29 4 1 23 -17 43 -39z m2035 -14 c71 -66 109 -80 203 -74 87 6 174 42 222 94 29 30 37 33 54 24 11 -6 20 -15 20 -20 0 -20 -118 -127 -165 -150 -41 -20 -66 -24 -140 -25 -82 0 -96 3 -157 33 -48 23 -78 47 -112 89 l-47 57 23 12 c13 8 27 13 32 14 4 0 35 -24 67 -54z m-3146 -5 c11 -35 114 -121 187 -156 62 -30 82 -35 143 -34 38 0 85 6 103 12 47 17 202 136 221 169 16 27 41 30 65 7 12 -10 -32 -77 -84 -129 -67 -67 -222 -130 -321 -130 -56 0 -158 31 -204 63 -88 61 -195 169 -195 198 0 7 26 15 62 18 9 0 19 -7 23 -18z m1038 -45 c142 -146 300 -181 460 -100 69 34 118 75 147 122 21 34 29 40 50 35 14 -3 27 -7 29 -9 9 -8 -57 -103 -100 -144 -128 -123 -317 -152 -476 -75 -60 30 -223 181 -223 208 0 13 14 22 43 26 5 0 37 -28 70 -63z m1020 -11 c44 -42 106 -88 136 -103 48 -23 67 -27 136 -25 95 2 157 20 226 64 44 28 111 100 121 130 4 13 68 -1 68 -15 0 -6 -19 -36 -43 -66 -85 -108 -224 -178 -374 -187 -75 -5 -86 -4 -145 24 -34 17 -82 43 -104 59 -46 32 -154 152 -154 171 0 6 10 14 23 16 12 2 24 5 25 6 2 0 40 -33 85 -74z m986 19 c106 -133 227 -170 411 -129 74 17 76 18 155 102 73 76 84 84 108 78 15 -4 27 -10 27 -14 0 -22 -66 -105 -112 -142 -104 -83 -235 -126 -350 -116 -94 8 -160 46 -265 151 -51 51 -93 98 -93 104 0 11 22 19 55 20 13 1 36 -19 64 -54z m-2143 4 c16 -31 16 -32 -10 -55 -35 -30 -93 -31 -130 -2 -26 20 -26 21 -9 49 14 24 25 30 62 33 25 2 52 4 58 5 7 1 20 -12 29 -30z m1009 0 c19 -33 13 -45 -31 -64 -50 -21 -84 -17 -115 12 -23 22 -25 29 -17 52 10 26 14 27 79 27 63 0 69 -2 84 -27z m998 0 l19 -33 -29 -22 c-35 -29 -85 -30 -122 -2 -27 20 -28 21 -12 55 15 33 17 34 71 34 52 0 56 -2 73 -32z m-1945 -126 c-56 -59 -145 -72 -219 -31 -56 32 -69 53 -47 76 16 16 18 16 37 -1 47 -42 146 -40 186 4 l18 20 24 -22 23 -22 -22 -24z m798 43 c50 -34 122 -35 160 -1 l28 23 20 -25 20 -25 -27 -23 c-15 -13 -51 -31 -82 -40 -65 -21 -109 -11 -164 35 -34 28 -35 29 -18 55 10 14 19 26 22 26 2 0 21 -11 41 -25z m1214 0 c23 -24 23 -25 5 -45 -10 -11 -38 -29 -62 -41 -59 -28 -113 -22 -187 22 l-56 34 24 24 24 24 37 -23 c46 -29 125 -24 158 9 27 26 28 26 57 -4z m-2228 -121 c23 -12 48 -15 93 -12 67 6 112 25 148 63 l23 26 28 -22 27 -22 -28 -30 c-46 -48 -138 -87 -208 -87 -74 0 -126 23 -179 79 -39 40 -39 41 -21 61 18 20 18 20 52 -10 18 -16 48 -37 65 -46z m1054 -10 c63 -9 106 2 165 42 l51 36 21 -21 21 -21 -25 -26 c-79 -85 -221 -112 -317 -59 -28 15 -67 41 -87 57 l-37 31 28 22 29 23 53 -39 c34 -24 71 -41 98 -45z m1263 48 c3 -1 -13 -20 -34 -42 -106 -108 -274 -110 -381 -3 -39 39 -41 48 -14 63 16 9 26 6 53 -14 37 -28 107 -56 141 -56 44 0 127 32 159 60 30 27 33 28 52 12 11 -9 22 -18 24 -20z m-2349 -136 c33 -15 64 -21 120 -20 90 0 169 33 223 93 33 36 36 37 61 24 14 -7 26 -17 26 -21 0 -12 -70 -76 -123 -111 -73 -50 -127 -64 -215 -59 -96 6 -160 37 -240 114 l-57 55 30 18 30 18 50 -45 c28 -25 70 -54 95 -66z m998 3 c32 -16 64 -22 125 -23 96 -1 136 16 205 87 41 42 46 44 73 34 16 -6 29 -17 29 -23 0 -25 -129 -132 -185 -153 -65 -24 -179 -28 -237 -7 -58 21 -131 72 -168 117 l-33 42 22 18 c23 19 23 18 74 -26 29 -25 71 -55 95 -66z m908 65 c72 -67 123 -89 214 -88 93 0 167 31 223 93 l38 42 29 -18 29 -19 -39 -46 c-58 -67 -120 -104 -206 -124 -87 -19 -136 -14 -214 22 -54 24 -170 127 -170 150 0 6 10 16 23 22 12 6 22 11 23 11 0 1 23 -20 50 -45z m-1948 -166 c60 -30 75 -33 152 -33 70 1 95 5 142 27 80 37 170 101 193 137 16 26 25 30 45 26 14 -4 27 -8 28 -10 7 -7 -57 -92 -92 -123 -129 -113 -309 -159 -440 -113 -88 31 -224 136 -267 206 l-19 30 33 11 c31 11 33 10 95 -57 45 -49 83 -78 130 -101z m1562 143 c0 -19 -63 -100 -104 -134 -68 -56 -132 -86 -225 -104 -140 -28 -248 1 -358 93 -44 38 -123 132 -123 147 0 2 13 7 28 10 25 5 38 -3 103 -67 87 -83 122 -102 210 -115 138 -19 260 27 355 135 53 60 57 62 85 52 16 -5 29 -13 29 -17z m440 -141 c59 -31 72 -34 150 -35 76 0 93 4 155 33 47 22 91 54 135 98 60 59 68 64 98 58 18 -4 32 -11 32 -16 0 -37 -150 -165 -248 -211 -110 -51 -235 -48 -360 10 -56 26 -171 133 -197 183 -14 27 -14 29 13 38 25 9 32 5 92 -57 38 -38 93 -81 130 -101z m-2275 109 c14 -25 14 -33 3 -46 -35 -42 -106 -46 -148 -8 -17 15 -17 18 -2 45 14 24 25 30 62 33 25 2 51 4 57 5 7 1 20 -12 28 -29z m1009 2 c14 -26 14 -30 -2 -44 -31 -28 -72 -39 -108 -27 -49 17 -58 33 -39 69 15 29 19 31 75 31 55 0 61 -2 74 -29z m996 0 c14 -35 9 -46 -31 -67 -32 -16 -74 -9 -112 21 -18 13 -18 15 -1 44 17 29 22 31 75 31 53 0 57 -2 69 -29z m1004 4 c19 -30 14 -46 -23 -68 -38 -22 -66 -21 -106 3 -32 20 -32 20 -17 54 15 33 17 34 73 35 50 0 59 -3 73 -24z m-2081 -105 c28 0 54 8 78 24 l36 25 24 -25 24 -26 -40 -34 c-48 -42 -75 -54 -121 -54 -39 0 -100 28 -128 58 -18 20 -18 22 4 52 l22 30 30 -25 c21 -18 41 -25 71 -25z m1138 -24 c-56 -59 -134 -71 -216 -32 -72 33 -81 47 -50 76 24 22 25 23 45 5 43 -39 157 -36 183 5 11 19 12 19 36 -5 l25 -24 -23 -25z m1011 0 c-25 -28 -91 -56 -135 -56 -44 0 -103 22 -134 52 l-23 22 21 22 21 22 35 -24 c55 -37 133 -28 173 21 13 16 16 15 37 -11 21 -27 21 -29 5 -48z m-3008 3 c-24 -26 -113 -61 -155 -61 -40 1 -107 30 -129 57 -11 14 -11 19 6 36 20 19 20 19 70 -7 58 -32 106 -28 151 11 l28 24 22 -21 c21 -20 22 -23 7 -39z m1059 -80 c-19 -21 -58 -50 -87 -65 -96 -53 -215 -32 -300 53 -20 20 -36 39 -36 42 0 3 12 14 26 24 24 18 25 18 61 -14 94 -82 204 -78 287 10 l29 30 27 -22 28 -22 -35 -36z m1018 13 c-30 -57 -129 -102 -223 -102 -57 0 -123 30 -183 84 l-40 36 24 19 c25 19 25 19 56 -5 79 -60 173 -71 255 -29 28 14 55 34 62 45 12 18 13 18 36 -5 19 -19 21 -28 13 -43z m1009 8 c-15 -28 -101 -87 -145 -99 -111 -30 -244 13 -287 93 -8 15 -6 23 12 36 22 16 25 16 74 -17 74 -48 117 -60 174 -44 53 13 120 54 129 77 5 13 9 11 29 -7 18 -16 21 -26 14 -39z m-3392 29 c7 -11 38 -32 69 -46 44 -20 65 -24 104 -20 55 7 102 28 141 65 26 24 28 24 53 8 14 -9 25 -20 25 -25 0 -15 -74 -69 -131 -96 -98 -45 -201 -26 -281 53 -43 41 -45 49 -20 68 23 18 25 17 40 -7z m-58 -72 c46 -52 122 -95 182 -103 82 -11 194 34 267 106 28 29 35 31 57 21 22 -10 23 -14 13 -33 -25 -46 -102 -117 -152 -139 -42 -19 -69 -24 -142 -24 -80 0 -96 3 -145 29 -30 16 -83 56 -117 89 l-63 60 27 18 c16 10 30 18 32 18 2 1 20 -18 41 -42z m2540 -3 c0 -15 -85 -93 -130 -121 -56 -34 -145 -56 -214 -51 -83 5 -147 38 -226 116 l-65 64 33 16 c32 16 33 16 68 -21 20 -20 65 -51 100 -68 59 -29 70 -31 141 -27 91 5 125 21 191 86 46 46 48 47 74 32 16 -8 28 -20 28 -26z m-1539 1 c17 -19 59 -49 95 -66 59 -29 69 -31 147 -27 95 5 150 30 207 94 32 36 32 37 63 21 l32 -15 -67 -66 c-89 -87 -138 -109 -248 -110 -75 -1 -92 3 -145 28 -34 17 -86 55 -119 89 l-60 59 25 14 c34 19 36 18 70 -21z m2025 -15 c66 -63 112 -83 189 -84 91 -1 170 29 230 87 44 42 53 47 72 38 13 -6 23 -15 23 -20 0 -21 -128 -135 -178 -158 -46 -22 -64 -25 -135 -22 -108 5 -190 44 -268 126 l-54 57 30 12 c17 7 32 13 34 14 2 0 28 -23 57 -50z m-2950 -156 c71 -36 74 -36 171 -32 77 3 107 9 143 28 69 36 107 68 142 121 17 27 33 49 34 49 1 0 14 -4 29 -10 l26 -10 -21 -41 c-28 -55 -92 -122 -144 -153 -61 -36 -159 -66 -214 -66 -111 0 -244 55 -334 138 -51 48 -106 119 -97 125 2 2 17 7 34 13 28 9 33 6 94 -58 46 -50 84 -78 137 -104z m860 98 c95 -93 154 -123 258 -129 143 -9 247 36 329 143 38 49 45 54 72 48 17 -4 33 -8 37 -10 14 -9 -35 -74 -99 -135 -115 -107 -239 -145 -389 -120 -106 18 -224 96 -296 195 -34 47 -35 54 -5 66 12 5 23 9 23 9 1 1 33 -29 70 -67z m1007 2 c74 -70 167 -122 236 -131 54 -7 165 13 229 42 32 15 79 50 118 89 57 57 69 65 94 60 l28 -6 -35 -50 c-57 -79 -115 -131 -186 -165 -203 -101 -424 -41 -569 154 -21 29 -38 54 -38 57 0 2 10 7 23 9 12 2 24 5 26 6 2 0 35 -29 74 -65z m962 30 c39 -72 172 -150 285 -165 75 -11 158 4 230 41 40 21 114 97 132 136 11 23 16 25 47 19 20 -4 38 -8 40 -10 16 -16 -145 -187 -204 -218 -17 -8 -60 -23 -95 -32 -178 -47 -363 25 -485 187 -46 62 -47 63 -24 69 44 13 54 9 74 -27z m-1107 -17 c17 -28 16 -29 -12 -54 -24 -20 -36 -24 -65 -19 -19 3 -45 16 -58 29 -21 20 -22 26 -11 50 12 26 16 27 71 25 52 -3 60 -6 75 -31z m1003 2 c12 -30 11 -33 -15 -55 -35 -30 -77 -30 -112 -1 -26 23 -26 25 -13 55 13 30 17 32 70 32 54 0 57 -1 70 -31z m-2002 -6 c18 -40 -14 -68 -79 -68 -66 0 -97 27 -78 68 12 25 17 27 79 27 62 0 67 -2 78 -27z m1068 -121 c-49 -53 -138 -77 -199 -53 -13 5 -39 22 -59 38 l-36 29 22 28 23 29 27 -21 c43 -34 87 -38 140 -12 25 12 45 27 45 33 0 6 13 -2 30 -18 l30 -29 -23 -24z m-1148 18 c35 0 58 7 84 24 l36 25 16 -26 c17 -25 16 -26 -13 -56 -56 -56 -170 -55 -234 2 -32 28 -32 29 -14 55 l17 27 30 -26 c23 -19 42 -25 78 -25z m1922 34 c50 -45 129 -47 174 -4 l21 20 21 -22 21 -23 -20 -25 c-34 -42 -70 -60 -118 -60 -50 0 -116 27 -143 58 -18 19 -18 22 -2 46 20 30 23 31 46 10z m-982 -129 c88 -30 145 -19 211 41 l41 37 21 -20 20 -21 -28 -36 c-68 -85 -207 -117 -304 -69 -47 23 -120 84 -120 100 0 4 12 15 26 24 25 15 27 15 57 -12 17 -16 51 -35 76 -44z m901 66 c0 -5 24 -25 53 -45 45 -31 60 -36 107 -36 63 0 123 25 159 63 l24 26 29 -21 30 -21 -43 -43 c-59 -61 -127 -88 -202 -81 -68 6 -150 43 -192 87 l-29 30 24 25 c24 25 40 32 40 16z m-1915 -67 c72 -30 170 -11 226 42 26 25 28 25 54 8 l26 -17 -37 -38 c-82 -84 -214 -107 -311 -55 -28 16 -64 41 -79 57 l-27 28 24 20 c24 19 24 19 57 -5 17 -14 48 -32 67 -40z m395 -25 c0 -11 -118 -107 -169 -137 -41 -24 -56 -27 -141 -27 -84 0 -101 3 -147 28 -59 30 -113 75 -143 118 l-21 28 21 11 c18 10 28 5 76 -39 121 -111 290 -110 411 3 58 54 58 54 86 38 15 -9 27 -19 27 -23z m476 -7 c70 -68 106 -82 206 -82 102 0 166 26 221 90 35 41 37 42 67 30 16 -7 30 -17 30 -22 0 -5 -23 -33 -50 -62 -58 -61 -159 -113 -238 -123 -103 -12 -241 54 -315 150 l-27 36 27 15 c16 8 28 15 29 16 0 0 22 -21 50 -48z m1001 -1 c87 -84 242 -118 331 -72 22 11 62 43 88 70 47 49 48 49 76 35 l29 -15 -21 -29 c-32 -45 -111 -111 -160 -133 -34 -16 -64 -21 -125 -20 -131 1 -227 49 -295 148 l-30 43 28 10 c15 6 27 11 28 11 0 1 23 -21 51 -48z m-1122 -10 c9 -31 124 -131 173 -152 78 -34 129 -41 206 -29 121 18 224 82 286 178 14 22 18 23 47 10 l32 -13 -29 -47 c-39 -62 -149 -152 -219 -180 -83 -32 -202 -36 -290 -9 -102 31 -222 126 -266 210 -14 29 -14 30 13 39 38 15 40 14 47 -7z m1000 0 c3 -11 31 -43 62 -71 178 -163 395 -153 561 24 55 59 58 61 89 51 l31 -10 -32 -45 c-71 -97 -185 -184 -268 -204 -16 -3 -66 -7 -112 -7 -76 -1 -91 3 -161 35 -92 43 -146 85 -203 159 -46 59 -51 73 -24 80 36 10 51 6 57 -12z m-1958 -51 c97 -107 263 -162 384 -127 70 21 165 84 219 144 37 43 42 45 71 37 l31 -9 -76 -87 c-57 -65 -90 -93 -131 -112 -186 -89 -352 -68 -496 62 -50 45 -109 117 -109 133 0 7 19 15 44 18 5 0 33 -26 63 -59z m-203 40 c46 0 53 -3 69 -29 16 -27 16 -29 -1 -43 -27 -24 -58 -38 -84 -38 -30 0 -88 36 -88 54 0 29 23 67 38 61 7 -3 37 -5 66 -5z m2070 -21 c18 -30 18 -31 -4 -54 -30 -32 -71 -40 -107 -21 -46 23 -56 39 -42 69 10 22 19 27 63 30 28 2 56 4 61 5 6 1 19 -12 29 -29z m-999 -11 c6 -27 3 -36 -21 -56 -23 -20 -35 -23 -71 -19 -24 2 -52 12 -63 22 -18 16 -18 17 2 51 19 33 22 34 83 34 63 0 63 0 70 -32z m2000 3 c14 -28 14 -31 -11 -50 -34 -26 -80 -27 -121 -1 -38 23 -38 23 -17 55 14 22 24 25 75 25 55 0 59 -2 74 -29z m-3086 -111 c35 0 58 7 86 26 l38 25 20 -20 21 -21 -23 -24 c-69 -74 -208 -72 -275 2 -18 20 -18 23 -2 47 l17 26 35 -30 c28 -25 43 -31 83 -31z m1142 -14 c-70 -74 -206 -73 -273 1 -17 19 -17 20 6 42 21 20 24 20 37 5 8 -10 29 -23 47 -31 41 -17 97 -4 133 30 l24 24 24 -23 25 -23 -23 -25z m1003 47 c24 -32 15 -49 -44 -80 -75 -40 -165 -26 -221 33 l-23 24 20 21 20 20 52 -27 c47 -24 56 -26 91 -16 21 7 46 21 56 32 23 25 26 25 49 -7z m866 -23 c28 0 58 8 79 21 l34 20 21 -20 20 -21 -29 -31 c-39 -41 -85 -60 -127 -52 -46 8 -98 36 -127 67 -23 25 -24 27 -6 45 17 20 18 20 53 -4 26 -18 50 -25 82 -25z m-3095 -93 c79 -39 166 -28 234 29 39 34 41 35 66 18 l26 -17 -36 -37 c-55 -56 -131 -90 -202 -90 -72 0 -126 24 -188 81 l-47 43 28 23 29 22 30 -28 c16 -16 44 -35 60 -44z m2281 -16 c-55 -58 -106 -81 -184 -81 -71 0 -116 16 -173 61 -57 45 -64 63 -33 83 24 16 26 16 57 -10 46 -39 89 -54 153 -54 65 0 117 21 146 61 l21 28 27 -22 28 -22 -42 -44z m772 3 c77 -23 125 -12 182 42 l47 44 21 -23 22 -23 -43 -41 c-114 -110 -223 -110 -365 0 l-54 41 27 23 26 23 42 -35 c23 -20 65 -43 95 -51z m-2011 -2 c66 -15 133 1 189 45 44 33 47 34 65 17 19 -17 19 -19 -23 -61 -55 -56 -111 -83 -174 -83 -74 0 -140 26 -193 77 l-46 44 24 18 c24 18 25 18 67 -14 24 -18 65 -38 91 -43z m-653 -34 c-19 -37 -66 -71 -160 -115 -66 -31 -89 -37 -144 -37 -98 1 -164 27 -233 93 -78 74 -85 88 -53 103 23 10 30 7 76 -36 73 -68 146 -99 220 -94 73 5 175 54 221 106 33 36 35 37 61 23 25 -15 25 -17 12 -43z m985 -9 c-37 -47 -112 -102 -175 -130 -105 -47 -273 -1 -367 100 -26 28 -47 54 -47 59 0 5 12 14 26 21 25 11 29 9 60 -28 52 -60 127 -93 216 -94 92 -1 131 16 200 85 53 53 53 53 85 39 l32 -14 -30 -38z m1031 31 c0 -13 -87 -104 -120 -125 -49 -31 -132 -55 -191 -55 -26 0 -77 9 -114 21 -59 18 -78 30 -139 91 l-71 70 30 15 c30 14 31 13 72 -25 67 -64 145 -97 228 -97 86 0 131 20 200 90 49 49 51 50 77 35 16 -8 28 -17 28 -20z m587 -80 c103 -48 236 -18 321 74 38 41 41 42 66 29 21 -11 24 -18 17 -31 -15 -27 -114 -118 -149 -136 -119 -62 -293 -26 -402 83 -55 55 -61 73 -27 88 19 9 29 4 74 -37 28 -26 73 -57 100 -70z m-59 -82 c62 -31 73 -33 172 -33 95 0 111 3 162 28 37 18 78 51 116 93 55 59 62 64 91 58 17 -4 31 -10 31 -15 0 -5 -34 -45 -75 -88 -53 -56 -97 -90 -146 -116 -65 -34 -80 -38 -173 -42 -87 -4 -109 -2 -158 17 -80 30 -170 99 -224 172 l-45 62 33 11 c32 11 34 10 91 -52 40 -43 79 -73 125 -95z m-3135 88 c79 -89 158 -128 270 -134 80 -4 84 -3 178 42 106 49 152 83 175 128 12 23 19 28 37 22 12 -3 24 -8 25 -9 6 -5 -64 -109 -86 -129 -37 -32 -185 -116 -226 -127 -47 -13 -161 -3 -226 18 -87 29 -215 138 -258 220 -12 22 -9 25 43 32 6 0 36 -28 68 -63z m962 44 c10 -32 102 -107 173 -142 57 -28 79 -34 155 -37 79 -3 93 0 142 23 30 15 89 60 131 101 71 67 80 73 110 68 l33 -5 -28 -42 c-49 -71 -146 -155 -218 -189 -62 -29 -76 -32 -163 -31 -131 1 -192 25 -284 113 -38 36 -82 84 -98 106 l-30 40 29 6 c15 4 31 7 35 8 4 0 9 -8 13 -19z m995 9 c0 -15 98 -116 136 -139 52 -33 133 -53 215 -54 68 -1 83 3 151 37 59 29 88 51 129 100 29 34 54 64 56 66 4 6 53 -9 53 -17 0 -26 -71 -108 -131 -152 -114 -85 -227 -114 -344 -90 -127 26 -203 73 -282 174 -54 69 -55 71 -32 77 36 11 49 10 49 -2z m-1084 -41 c13 -25 12 -28 -12 -47 -37 -29 -98 -28 -134 2 -25 21 -26 26 -15 48 12 22 19 24 80 24 62 0 68 -2 81 -27z m997 3 c16 -27 16 -29 -1 -44 -45 -41 -114 -44 -147 -7 -15 17 -16 23 -4 49 13 30 17 31 74 31 56 0 62 -2 78 -29z m1002 3 c21 -32 15 -48 -26 -69 -36 -19 -82 -14 -118 14 -22 17 -23 19 -7 49 16 30 19 32 75 32 52 0 61 -3 76 -26z m-2086 -104 c39 0 66 6 90 21 l34 20 21 -20 20 -21 -29 -31 c-72 -77 -173 -78 -260 -5 l-29 25 23 25 24 25 25 -19 c18 -15 40 -20 81 -20z m927 19 c35 -33 90 -35 149 -5 l50 26 17 -23 c23 -30 20 -37 -36 -72 -78 -48 -162 -39 -228 23 l-28 26 22 23 c26 28 26 28 54 2z m1010 -4 c47 -32 96 -32 151 -1 41 24 42 24 59 5 17 -19 16 -21 -11 -49 -74 -78 -166 -79 -247 -3 -25 24 -26 27 -11 49 8 13 17 24 19 24 2 0 20 -11 40 -25z m-1726 -60 c17 -21 5 -48 -44 -93 -106 -97 -244 -84 -359 35 l-37 39 25 14 c22 12 28 11 48 -7 51 -48 90 -63 160 -63 75 0 107 12 151 59 34 35 39 37 56 16z m710 -61 c68 -34 181 -12 240 49 25 25 26 25 49 8 l24 -18 -39 -42 c-54 -61 -99 -81 -182 -81 -75 0 -136 24 -204 80 l-38 31 28 24 27 24 30 -29 c17 -15 46 -36 65 -46z m948 45 c94 -83 200 -80 294 9 27 25 28 25 48 7 29 -26 25 -37 -23 -82 -53 -49 -102 -67 -182 -67 -70 -1 -147 35 -196 92 l-30 33 23 19 c13 11 25 19 27 20 2 0 19 -14 39 -31z m-2087 -64 c60 -65 149 -106 230 -107 87 0 138 23 199 89 l49 54 31 -16 31 -16 -30 -38 c-73 -92 -163 -134 -291 -133 -121 0 -187 27 -262 105 -32 34 -58 63 -58 66 0 5 43 34 57 40 2 1 21 -19 44 -44z m2104 -78 c31 -17 57 -22 120 -22 99 1 166 28 224 90 37 40 42 43 65 32 14 -7 26 -15 26 -18 0 -18 -89 -103 -131 -125 -172 -86 -329 -60 -450 75 l-49 55 31 17 31 16 46 -50 c26 -27 65 -59 87 -70z m-997 5 c117 -55 277 -23 340 69 30 42 39 46 67 25 18 -13 18 -14 -3 -47 -32 -52 -71 -85 -137 -116 -53 -25 -72 -28 -155 -28 -84 0 -102 3 -153 28 -50 25 -157 117 -157 136 0 3 12 13 28 22 26 15 28 15 70 -24 24 -21 69 -51 100 -65z m-1209 36 c33 -54 92 -105 156 -135 54 -25 71 -28 165 -28 144 1 200 23 293 117 57 58 71 67 92 62 32 -8 31 -12 -3 -60 -72 -99 -186 -171 -306 -195 -78 -16 -190 1 -272 41 -59 29 -106 74 -175 168 -24 33 -24 34 -5 48 28 20 32 18 55 -18z m1734 12 c13 -12 -129 -157 -194 -200 -97 -63 -261 -76 -368 -29 -71 31 -251 189 -251 220 0 4 11 10 25 13 21 5 34 -3 84 -54 40 -40 82 -71 128 -93 63 -30 75 -32 168 -31 79 0 112 5 156 22 66 26 136 85 164 136 18 33 23 36 50 30 16 -3 34 -10 38 -14z m292 -31 c74 -97 203 -157 314 -146 148 14 251 65 305 151 25 40 32 45 55 39 14 -3 29 -8 34 -10 14 -8 -36 -83 -89 -133 -95 -90 -221 -136 -348 -128 -101 8 -175 39 -246 105 -53 49 -130 141 -130 156 0 5 23 11 55 16 6 0 28 -22 50 -50z m-119 0 c15 -30 15 -32 -6 -54 -28 -30 -73 -38 -114 -21 -46 19 -51 32 -30 72 18 33 21 34 76 34 54 0 58 -2 74 -31z m998 -6 c15 -31 14 -33 -11 -53 -31 -24 -73 -26 -113 -5 -34 18 -36 25 -16 63 13 24 19 27 69 27 53 0 56 -2 71 -32z m-2999 -2 c14 -29 14 -30 -16 -55 -37 -31 -73 -33 -116 -6 -38 23 -38 22 -18 60 15 28 19 30 75 30 56 0 60 -2 75 -29z m997 -1 l17 -30 -39 -26 c-31 -21 -47 -25 -73 -20 -51 10 -70 34 -55 74 12 31 14 32 73 32 56 0 61 -2 77 -30z m51 -130 c-56 -50 -139 -63 -208 -31 -59 27 -70 44 -50 75 l17 26 32 -23 c47 -34 126 -31 163 6 l28 27 25 -26 25 -25 -32 -29z m824 36 c51 -25 97 -21 137 14 l34 30 20 -26 19 -27 -31 -27 c-87 -76 -159 -77 -245 -4 l-42 37 22 23 c19 21 25 22 38 10 9 -7 30 -21 48 -30z m-1976 -21 c28 -7 91 15 121 42 18 16 20 15 41 -6 l22 -22 -38 -34 c-20 -18 -58 -38 -82 -45 -39 -11 -51 -10 -88 4 -23 9 -55 27 -72 40 -29 23 -29 24 -12 50 l18 26 32 -24 c18 -13 44 -27 58 -31z m3036 15 c36 0 58 6 77 21 l27 21 24 -22 c14 -13 22 -26 20 -31 -3 -4 -26 -21 -52 -38 -69 -46 -132 -42 -216 16 l-38 26 22 23 22 24 32 -20 c21 -13 50 -20 82 -20z m-1796 -46 l24 -26 -43 -38 c-53 -48 -117 -70 -199 -70 -68 0 -115 15 -175 56 -47 33 -54 51 -26 74 22 18 23 17 55 -11 39 -34 133 -64 175 -55 46 9 92 34 123 66 16 17 32 30 35 30 4 0 17 -12 31 -26z m708 -58 c64 -34 191 -3 238 58 l21 27 27 -24 27 -23 -26 -31 c-15 -18 -53 -45 -84 -60 -104 -51 -210 -33 -311 53 l-42 37 22 23 22 24 38 -35 c21 -18 51 -41 68 -49z m-1996 -5 c66 -25 169 -3 222 49 29 28 30 29 54 11 l23 -18 -48 -41 c-71 -60 -109 -77 -179 -77 -70 0 -152 35 -199 84 l-29 30 24 20 23 19 41 -34 c22 -18 53 -38 68 -43z m3000 14 c73 -30 177 -11 234 44 22 21 24 21 48 5 25 -16 25 -18 9 -43 -72 -114 -261 -123 -404 -20 l-43 31 29 23 28 23 31 -24 c17 -13 48 -30 68 -39z m-3134 -40 c113 -115 287 -113 415 5 43 40 46 41 72 27 l28 -15 -55 -55 c-31 -30 -80 -68 -110 -83 -47 -25 -65 -29 -144 -29 -79 0 -97 3 -146 29 -31 15 -81 53 -110 83 -52 52 -53 55 -35 69 29 21 37 18 85 -31z m993 1 c51 -49 110 -73 203 -82 91 -9 160 13 229 77 48 43 58 49 76 39 28 -15 26 -24 -16 -70 -52 -58 -181 -120 -248 -120 -107 0 -221 49 -297 127 -42 43 -43 45 -25 59 27 19 27 19 78 -30z m1013 5 c73 -67 118 -86 210 -86 68 0 89 4 137 28 31 15 71 44 88 64 28 32 34 34 56 24 13 -6 24 -15 24 -20 0 -22 -104 -112 -164 -141 -62 -31 -70 -32 -153 -28 -108 5 -151 26 -241 111 -62 60 -62 61 -40 74 33 18 36 17 83 -26z m992 -1 c59 -52 140 -82 223 -84 94 -1 143 17 203 75 45 44 55 49 74 40 13 -6 23 -15 23 -21 0 -20 -117 -127 -165 -151 -74 -35 -187 -34 -270 4 -72 34 -116 66 -151 113 -26 34 -26 35 -8 49 10 8 21 15 22 15 2 0 24 -18 49 -40z m-2402 -11 c28 -27 -76 -139 -194 -209 -62 -37 -85 -45 -136 -48 -82 -5 -198 14 -262 43 -59 27 -141 99 -185 163 -24 35 -26 43 -14 47 9 3 23 7 32 10 11 4 38 -16 79 -58 41 -43 85 -75 131 -98 63 -31 76 -34 159 -34 82 0 97 3 157 33 63 31 178 137 178 163 0 11 39 2 55 -12z m319 -47 c91 -96 217 -149 325 -139 114 10 241 81 291 161 22 37 34 42 60 26 13 -8 12 -14 -5 -45 -47 -88 -199 -190 -324 -216 -150 -32 -342 59 -441 210 l-31 46 23 7 c41 11 46 9 102 -50z m1011 -1 c70 -73 150 -117 244 -133 63 -11 81 -10 139 5 84 22 161 72 209 137 38 51 41 53 82 41 23 -6 23 -7 -23 -67 -52 -70 -129 -133 -202 -166 -75 -34 -228 -38 -307 -8 -75 28 -168 100 -226 173 -37 48 -42 60 -31 67 33 21 59 9 115 -49z m986 13 c19 -25 60 -63 93 -85 181 -121 405 -77 532 104 19 27 21 28 52 15 l32 -13 -44 -56 c-57 -72 -147 -132 -249 -165 -69 -22 -94 -25 -157 -20 -104 7 -157 28 -232 91 -60 49 -136 138 -131 154 2 6 37 18 59 20 5 1 26 -20 45 -45z m-2136 0 c21 -33 14 -51 -30 -69 -47 -20 -78 -19 -108 5 -26 21 -26 21 -10 55 16 34 19 35 74 35 50 0 59 -3 74 -26z m1008 -4 c21 -35 17 -44 -25 -66 -36 -19 -85 -12 -121 16 -23 18 -24 23 -14 50 11 29 13 30 77 30 62 0 67 -2 83 -30z m1000 -2 c18 -32 18 -33 -3 -50 -13 -11 -39 -18 -62 -18 -39 0 -102 25 -96 38 33 65 28 62 87 62 53 0 57 -2 74 -32z m-2116 -104 c49 -9 102 2 128 26 l23 21 21 -29 20 -29 -22 -21 c-31 -29 -72 -43 -132 -43 -57 -1 -85 10 -127 49 l-28 26 21 22 c21 22 21 22 42 3 11 -10 36 -22 54 -25z m1045 1 c42 0 64 5 86 22 l30 22 18 -26 c17 -27 17 -27 -25 -64 -68 -61 -144 -61 -228 1 l-43 31 22 29 21 29 31 -22 c23 -16 45 -22 88 -22z m1007 -5 c15 0 44 9 65 21 37 19 39 20 58 2 20 -18 20 -18 -18 -51 -75 -65 -156 -65 -230 0 l-35 31 21 22 21 22 46 -24 c26 -12 58 -23 72 -23z m-2097 -94 c71 -30 186 -11 237 38 25 24 28 25 50 10 22 -16 22 -17 4 -37 -10 -11 -45 -37 -77 -59 -52 -34 -66 -38 -121 -38 -100 0 -158 23 -200 77 l-36 47 23 18 c22 16 24 16 53 -12 17 -16 47 -36 67 -44z m1036 -12 c72 -21 139 -6 194 44 31 28 43 34 56 26 27 -17 25 -31 -12 -72 -97 -107 -245 -106 -378 1 -44 35 -47 49 -16 69 21 14 26 13 63 -19 22 -18 63 -41 93 -49z m958 22 c79 -39 169 -28 232 29 l38 33 24 -19 25 -19 -53 -50 c-110 -103 -243 -101 -361 6 l-42 37 28 23 28 22 25 -23 c14 -12 39 -30 56 -39z m-1034 -100 c60 -31 81 -36 137 -36 85 0 152 30 208 94 37 42 44 46 62 36 28 -14 27 -19 -11 -76 -41 -61 -83 -89 -171 -116 -86 -26 -145 -20 -234 21 -58 28 -183 131 -183 152 0 5 12 15 27 23 27 14 29 13 61 -24 19 -23 63 -54 104 -74z m-1100 64 c31 -45 80 -73 156 -89 115 -24 184 -5 266 73 l54 52 32 -16 32 -17 -34 -35 c-44 -47 -151 -115 -202 -129 -118 -32 -302 37 -376 141 l-21 29 28 15 c15 8 30 15 33 15 3 0 17 -17 32 -39z m2100 -69 c112 -54 231 -34 327 54 49 46 59 51 79 42 12 -5 22 -14 22 -19 0 -20 -127 -135 -173 -157 -40 -20 -60 -22 -130 -19 -120 5 -224 59 -287 149 l-21 28 27 14 c25 13 28 12 68 -28 23 -22 63 -51 88 -64z m-1185 24 c38 -51 143 -129 203 -150 113 -40 305 6 378 89 18 21 41 54 50 73 14 29 20 33 42 28 14 -4 27 -8 29 -10 2 -2 -7 -24 -19 -49 -28 -58 -100 -123 -187 -169 -99 -52 -146 -61 -234 -47 -91 14 -162 45 -240 107 -53 41 -138 139 -128 147 44 36 69 31 106 -19z m1043 -46 c52 -52 129 -91 208 -108 131 -27 213 -1 318 103 39 39 73 77 75 84 3 10 11 10 37 1 l32 -11 -22 -39 c-12 -21 -42 -60 -67 -85 -94 -94 -190 -128 -340 -122 -86 3 -103 7 -159 38 -44 23 -89 61 -143 119 l-80 85 33 12 c30 11 34 10 47 -10 8 -11 36 -42 61 -67z m-2053 47 c28 -44 98 -101 155 -126 83 -37 216 -43 293 -14 46 17 163 104 185 138 22 32 29 35 55 30 40 -8 40 -8 16 -47 -28 -45 -116 -127 -171 -159 -50 -29 -159 -58 -220 -58 -57 0 -191 45 -247 83 -49 34 -143 141 -143 163 0 11 17 20 45 23 6 0 20 -14 32 -33z m-150 18 c18 -4 36 -17 46 -34 17 -28 17 -29 -9 -49 -34 -27 -103 -28 -134 -3 -22 18 -22 18 -3 55 19 39 36 44 100 31z m1987 -4 c46 0 54 -3 67 -26 13 -24 12 -28 -14 -50 -38 -33 -106 -33 -140 -1 -24 21 -24 24 -11 55 10 24 19 32 30 28 9 -3 39 -6 68 -6z m1060 -15 c23 -35 17 -55 -22 -78 -38 -22 -87 -17 -124 12 -22 18 -22 20 -6 53 16 34 18 35 76 37 54 1 61 -1 76 -24z m-2009 -14 c14 -28 14 -31 -11 -50 -37 -29 -94 -28 -123 3 -19 20 -20 27 -10 50 11 24 17 26 70 26 55 0 60 -2 74 -29z m49 -132 c-15 -16 -46 -36 -70 -45 -38 -15 -47 -15 -96 0 -31 9 -65 27 -81 44 l-27 28 25 24 25 23 24 -22 c35 -33 85 -37 134 -12 23 12 42 27 42 34 0 6 12 -1 26 -17 l25 -29 -27 -28z m847 26 c33 -8 99 9 131 35 l25 19 23 -24 23 -25 -23 -25 c-29 -31 -98 -65 -131 -65 -45 0 -99 21 -134 52 l-35 30 23 28 22 28 25 -23 c14 -13 37 -26 51 -30z m-2037 20 c63 -32 103 -32 150 0 l37 25 19 -22 c17 -22 17 -24 2 -42 -54 -60 -163 -74 -228 -30 -56 38 -66 55 -47 77 9 9 17 17 17 17 1 0 23 -11 50 -25z m3003 -1 c31 -21 47 -25 84 -22 26 3 60 14 76 26 30 21 31 21 48 2 17 -18 17 -21 1 -46 -38 -57 -139 -68 -223 -25 -58 29 -70 47 -48 71 10 11 19 20 21 20 2 0 20 -12 41 -26z m-3094 -58 c20 -29 111 -76 150 -76 54 0 116 22 154 55 35 29 41 31 58 19 18 -14 17 -16 -25 -60 -61 -62 -110 -86 -179 -87 -70 0 -133 26 -191 82 l-43 41 23 25 c29 31 34 31 53 1z m1086 -61 c84 -29 163 -12 220 49 29 31 29 31 60 5 l24 -20 -34 -36 c-91 -96 -240 -110 -352 -33 -18 12 -41 33 -51 47 -19 26 -19 26 5 44 24 18 24 18 54 -11 17 -16 50 -36 74 -45z m914 60 c3 -7 30 -28 59 -44 89 -51 182 -41 262 29 36 32 37 32 57 14 19 -17 19 -18 -18 -56 -109 -112 -266 -117 -381 -13 l-47 43 25 21 c30 24 36 25 43 6z m1023 -11 c93 -72 224 -72 301 -2 24 22 50 19 60 -7 8 -23 -40 -69 -101 -96 -103 -46 -228 -21 -317 61 l-31 30 23 20 c13 10 25 19 27 20 2 0 19 -12 38 -26z m-2961 -157 c111 -38 215 -9 304 84 48 51 50 52 80 39 37 -15 38 -25 7 -71 -49 -71 -191 -139 -292 -139 -89 0 -214 64 -276 142 l-32 41 21 17 c21 17 23 16 80 -40 39 -38 75 -62 108 -73z m2977 23 c113 -56 253 -33 349 57 41 39 50 43 68 33 20 -10 20 -13 7 -39 -21 -39 -91 -100 -145 -125 -37 -17 -65 -21 -141 -21 -88 0 -100 3 -159 34 -35 18 -88 56 -118 84 l-54 51 32 16 32 17 34 -38 c19 -21 62 -52 95 -69z m-2117 80 c8 -26 61 -69 115 -93 106 -47 267 -12 346 76 36 39 37 39 67 25 l30 -14 -57 -57 c-65 -64 -136 -102 -216 -117 -106 -19 -194 15 -299 117 -54 52 -55 55 -37 69 27 19 44 18 51 -6z m1036 -24 c69 -62 127 -88 197 -89 84 0 153 26 217 85 53 48 57 50 85 38 17 -7 30 -16 30 -21 0 -26 -81 -93 -158 -132 -80 -39 -91 -42 -166 -42 -69 0 -90 5 -141 30 -58 29 -165 121 -165 142 0 8 31 29 49 32 1 1 25 -19 52 -43z m-1410 4 c31 0 -18 -94 -78 -150 -130 -122 -266 -151 -435 -93 -129 45 -231 122 -277 210 -10 20 -8 23 25 29 30 6 38 3 51 -17 27 -40 99 -106 145 -133 24 -14 72 -33 108 -42 77 -20 159 -10 245 30 63 29 147 104 165 147 8 20 18 28 27 25 8 -4 19 -6 24 -6z m2466 -157 c71 -35 83 -38 158 -37 136 3 249 57 310 149 23 35 35 44 50 40 11 -2 26 -5 33 -5 19 0 -24 -74 -72 -122 -44 -44 -86 -68 -185 -105 -188 -71 -301 -41 -474 126 -91 87 -96 98 -55 109 31 8 36 5 95 -54 43 -43 88 -75 140 -101z m-2140 99 c32 -31 84 -75 115 -96 49 -33 66 -39 128 -44 133 -9 280 54 352 152 37 50 36 50 73 36 l26 -10 -20 -38 c-27 -52 -107 -125 -178 -161 -210 -105 -375 -73 -543 106 -44 48 -77 90 -73 94 7 6 29 13 55 18 3 0 33 -25 65 -57z m1126 -105 c119 -57 213 -58 336 -2 84 39 129 74 158 122 17 29 30 42 40 39 8 -3 19 -6 24 -6 19 0 -36 -86 -87 -137 -139 -135 -323 -159 -509 -66 -27 14 -86 62 -130 106 l-80 80 29 12 c29 12 32 11 95 -54 41 -41 88 -77 124 -94z m-1267 105 c9 -17 15 -34 13 -35 -53 -43 -102 -48 -143 -16 -29 23 -30 27 -17 63 9 23 14 24 70 23 56 -2 60 -4 77 -35z m2003 7 c26 -34 20 -49 -29 -69 -37 -15 -92 -6 -115 20 -15 17 -16 24 -5 50 12 28 15 30 69 30 52 0 59 -3 80 -31z m-995 -1 c14 -20 14 -24 -6 -45 -30 -32 -78 -39 -123 -18 -26 13 -34 22 -29 34 3 9 9 24 11 34 4 14 17 17 69 17 53 0 65 -3 78 -22z m-1079 -108 c42 0 60 5 83 25 l29 24 22 -22 21 -23 -28 -27 c-42 -41 -98 -60 -151 -52 -42 6 -131 48 -131 61 0 3 10 18 23 33 l22 28 28 -24 c22 -18 41 -23 82 -23z m1141 29 l23 -21 -29 -24 c-79 -67 -193 -70 -262 -7 -18 16 -18 17 2 38 l21 22 37 -19 c46 -24 113 -19 151 10 33 26 30 26 57 1z m786 -4 c41 -34 111 -35 161 -1 l35 24 22 -23 21 -22 -42 -36 c-61 -53 -100 -63 -156 -42 -25 10 -60 31 -79 47 -32 28 -33 30 -18 54 20 30 19 30 56 -1z m-1702 -85 c0 -4 -24 -30 -54 -58 -61 -57 -115 -77 -186 -68 -56 7 -157 56 -190 91 l-25 26 25 19 c24 18 25 18 60 -9 77 -61 174 -68 258 -20 29 16 55 36 58 44 5 12 10 12 30 -2 13 -8 24 -19 24 -23z m981 30 c10 -6 19 -15 19 -20 0 -20 -71 -87 -120 -114 -94 -51 -214 -30 -298 51 l-47 44 32 20 33 21 27 -22 c89 -70 241 -65 307 9 22 24 21 24 47 11z m693 -55 c88 -52 176 -43 250 26 41 37 42 37 66 19 l24 -18 -28 -37 c-18 -23 -51 -47 -84 -62 -47 -22 -64 -25 -131 -21 -84 5 -135 26 -191 78 l-34 31 30 24 c28 22 29 22 42 4 7 -10 32 -30 56 -44z m-605 -3 l30 -18 -37 -50 c-50 -67 -166 -126 -258 -132 -113 -7 -258 52 -318 130 -14 19 -26 38 -26 41 0 4 13 13 28 21 27 14 29 13 51 -19 26 -39 97 -87 155 -105 87 -28 229 21 302 104 22 24 40 45 41 45 2 1 16 -7 32 -17z m-989 -26 c-1 -19 -113 -112 -170 -141 -43 -22 -73 -29 -136 -33 -73 -4 -88 -1 -140 22 -68 31 -132 82 -156 124 l-18 30 29 12 c28 11 32 10 67 -25 61 -61 134 -90 229 -90 96 0 139 18 205 86 39 40 48 45 68 36 12 -6 22 -15 22 -21z m1573 -77 c74 -32 192 -32 260 0 50 24 96 63 114 95 9 16 13 16 31 5 12 -8 22 -19 22 -26 0 -20 -103 -119 -150 -144 -37 -19 -61 -23 -135 -24 -80 0 -97 3 -155 31 -36 17 -91 55 -123 84 l-59 54 32 16 33 17 38 -42 c22 -24 63 -53 92 -66z m-1171 -4 c79 -88 255 -147 367 -124 106 22 216 91 262 165 18 30 25 35 48 29 14 -4 27 -8 29 -10 10 -10 -36 -71 -95 -125 -118 -109 -221 -142 -370 -120 -111 17 -170 48 -274 148 l-90 86 33 11 c27 10 35 9 43 -4 6 -8 27 -33 47 -56z m-1000 0 c42 -45 79 -74 126 -97 60 -30 75 -33 152 -33 71 0 94 5 144 28 78 36 185 113 198 143 13 27 16 28 53 14 l26 -10 -30 -44 c-67 -98 -180 -166 -307 -187 -146 -24 -279 25 -401 147 -40 39 -73 76 -73 82 0 9 17 17 44 21 5 0 35 -28 68 -64z m2020 1 c38 -35 93 -77 121 -92 48 -27 60 -29 162 -29 106 0 112 1 173 34 58 32 105 73 144 129 13 20 21 22 52 17 l36 -7 -22 -40 c-23 -40 -128 -133 -183 -161 -42 -21 -136 -37 -219 -37 -155 0 -252 51 -359 185 -35 44 -37 50 -20 56 34 14 45 9 115 -55z m-2149 17 c10 -22 8 -28 -16 -49 -33 -28 -95 -32 -132 -8 l-24 16 19 36 19 37 61 -3 c54 -3 63 -7 73 -29z m1994 9 c19 -25 16 -38 -13 -61 -32 -25 -76 -27 -114 -4 l-29 16 20 40 21 39 51 -6 c29 -4 56 -14 64 -24z m1007 -3 l18 -31 -35 -36 c-35 -34 -37 -35 -75 -24 -21 7 -46 20 -56 31 -16 17 -16 20 1 49 18 31 25 33 108 40 14 1 27 -9 39 -29z m-2005 -8 l21 -29 -28 -18 c-36 -24 -115 -25 -138 -2 -14 14 -15 22 -6 42 9 20 20 26 59 29 26 2 53 4 60 5 6 1 21 -11 32 -27z m2079 -119 c-27 -45 -63 -65 -123 -70 -67 -5 -135 17 -165 55 l-20 26 21 23 22 23 33 -26 c20 -15 52 -28 79 -31 43 -4 48 -2 83 36 l37 40 25 -24 c24 -23 24 -25 8 -52z m-3013 -5 c-20 -31 -90 -67 -131 -67 -49 0 -103 20 -137 50 l-32 28 24 26 23 25 30 -22 c42 -31 104 -29 154 5 l39 26 24 -23 c22 -22 22 -24 6 -48z m1006 47 l24 -25 -25 -20 c-87 -68 -178 -73 -257 -13 -37 28 -38 32 -19 57 13 17 15 17 50 -4 46 -27 124 -23 164 9 34 27 34 27 63 -4z m1006 -38 c-3 -8 -25 -29 -48 -46 -68 -49 -172 -38 -235 25 l-27 27 25 25 25 25 34 -21 c47 -29 107 -27 150 3 l34 23 24 -22 c14 -14 21 -30 18 -39z"/>
 <path d="M160 3992 c0 -19 55 -84 94 -111 82 -57 141 -75 246 -75 150 -1 243 43 318 148 48 66 15 61 -49 -8 -52 -57 -109 -88 -199 -107 -109 -23 -274 32 -348 116 -36 41 -62 57 -62 37z"/>
 <path d="M308 3975 c109 -92 286 -92 371 -1 22 23 23 26 6 26 -11 0 -37 -12 -59 -27 -35 -25 -48 -28 -120 -28 -68 1 -89 5 -133 28 -29 15 -62 27 -73 27 -20 0 -19 -2 8 -25z"/>
 <path d="M1166 3988 c68 -118 199 -188 349 -188 142 0 232 42 293 137 36 56 38 63 17 63 -8 0 -26 -17 -39 -39 -58 -92 -165 -138 -293 -129 -104 8 -178 41 -246 110 -32 32 -65 58 -73 58 -9 0 -12 -5 -8 -12z"/>
 <path d="M1320 3975 c41 -44 105 -68 179 -67 87 0 143 17 189 58 48 43 24 45 -53 4 -47 -25 -69 -30 -125 -30 -56 0 -78 5 -125 30 -72 38 -98 40 -65 5z"/>
 <path d="M2170 3990 c0 -6 20 -32 45 -59 163 -174 455 -169 586 12 16 22 29 44 29 49 0 21 -29 4 -63 -37 -21 -24 -57 -56 -80 -69 -58 -35 -169 -59 -228 -51 -71 10 -163 58 -220 115 -49 49 -69 61 -69 40z"/>
 <path d="M2334 3971 c60 -48 115 -64 198 -59 77 5 138 29 172 67 28 31 1 28 -65 -6 -43 -23 -66 -28 -124 -28 -58 0 -81 5 -124 28 -29 15 -62 27 -73 27 -17 0 -14 -5 16 -29z"/>
 <path d="M3170 3991 c0 -12 62 -85 98 -116 16 -13 53 -37 83 -52 48 -25 65 -28 149 -28 87 0 100 3 163 34 65 31 187 137 187 161 0 24 -32 6 -83 -44 -29 -30 -83 -69 -118 -87 -57 -30 -73 -34 -144 -34 -66 0 -90 5 -135 26 -49 23 -160 121 -160 141 0 5 -9 8 -20 8 -11 0 -20 -4 -20 -9z"/>
 <path d="M3344 3971 c90 -93 248 -92 361 3 29 25 29 25 7 26 -13 0 -42 -11 -65 -24 -93 -54 -176 -55 -250 -5 -23 16 -51 29 -61 29 -18 0 -17 -3 8 -29z"/>
 </g>

</svg>