<svg xmlns="http://www.w3.org/2000/svg" width="40" height="40" viewBox="0 0 40 40">
  <style>
    .th-tile{fill:var(--thumb-tile,#DDF1E1)}
    .th-soft{fill:var(--thumb-soft,#C2DCC8)}
    .th-mid{fill:var(--thumb-mid,#A2BCA8)}
    .th-main{fill:var(--thumb-main,#7E9B85)}
    .th-deep{fill:var(--thumb-deep,#6A8470)}
    .th-line-tile{fill:none;stroke:var(--thumb-tile,#DDF1E1)}
    .th-line-soft{fill:none;stroke:var(--thumb-soft,#C2DCC8)}
    .th-line-mid{fill:none;stroke:var(--thumb-mid,#A2BCA8)}
    .th-line-main{fill:none;stroke:var(--thumb-main,#7E9B85)}
    .th-line-deep{fill:none;stroke:var(--thumb-deep,#6A8470)}
  </style>
  <rect class="th-tile" width="40" height="40"/>
  <defs><clipPath id="hurontario-in"><ellipse cx="20" cy="20" rx="10" ry="13.75"/></clipPath></defs>
  <g clip-path="url(#hurontario-in)">
    <rect class="th-mid" y="8.5" width="40" height="1.5"/>
    <rect class="th-mid" y="30" width="40" height="1.5"/>
    <rect class="th-main" y="11.5" width="40" height="17"/>
    <path class="th-tile" d="M18.32 15.25C16.85 15.3 15.38 15.8 14.8 17C14.28 18.4 13.49 20.6 13.12 22.2C13.02 22.8 13.38 23.35 14.02 23.45L15.38 26L24.2 26L23.15 18.6C23.26 17.7 23.15 16.8 22.52 16.1C21.89 15.5 21.05 15.3 20.11 15.25Z"/>
    <circle class="th-tile" cx="19.21" cy="14.6" r="1.6"/>
    <path class="th-soft" d="M19.68 18.3C21.99 18.7 24.3 18.45 26.3 17.2C27.88 18.3 28.35 20.6 27.4 22.4C26.72 23.75 25.41 24.9 23.99 25.7L23.26 25.03Z"/>
    <path class="th-main" d="M20.41 18.6L12.67 25.6L17.16 25.6C16.85 24.48 16.92 22.9 17.79 21.77Z"/>
    <path class="th-main" d="M16.64 17.7C17.01 18.1 17.32 18.55 17.59 19.07L15.07 21.4L14.91 21.3C15.33 20.1 15.85 18.8 16.64 17.7Z"/>
    <path class="th-tile" d="M14.37 22L15.46 23.08C15.01 23.55 14.33 24.4 13.88 25.13L13.18 26.4L10.34 26.4L12.14 23.39C12.75 22.8 13.49 22.35 14.37 22Z"/>
    <rect class="th-tile" y="25.5" width="40" height="1.5"/>
  </g>
  <ellipse class="th-line-deep" cx="20" cy="20" rx="10.25" ry="14" stroke-width="1.5"/>
</svg>
