<svg fill="none" height="1000" viewBox="0 0 1000 1000" width="1000" xmlns="http://www.w3.org/2000/svg"><path d="m0 0h1000v1000h-1000z" fill="#000"/><path clip-rule="evenodd" d="m619.335 397.076c-2.718-2.718-6.404-4.245-10.248-4.245h-287.616c-8.005 0-14.493 6.489-14.493 14.493v185.843c0 8.004 6.488 14.493 14.493 14.493h287.616c3.844 0 7.53-1.527 10.248-4.245l92.921-92.922c5.66-5.659 5.66-14.836 0-20.496zm173.233 82.673c11.319 11.32 11.319 29.673 0 40.992l-142.464 142.464c-5.436 5.436-12.809 8.49-20.496 8.49h-357.68c-16.008 0-28.986-12.977-28.986-28.986v-284.928c0-16.008 12.978-28.985 28.986-28.985h357.68c7.687 0 15.06 3.054 20.496 8.49z" fill="#fff" fill-rule="evenodd"/></svg>