<?xml version="1.0" standalone="no"?>
<!DOCTYPE svg PUBLIC "-//W3C//DTD SVG 20010904//EN"
 "http://www.w3.org/TR/2001/REC-SVG-20010904/DTD/svg10.dtd">
<svg version="1.0" xmlns="http://www.w3.org/2000/svg"
 width="338.000000pt" height="338.000000pt" viewBox="0 0 338.000000 338.000000"
 preserveAspectRatio="xMidYMid meet">
<metadata>
Created by potrace 1.14, written by Peter Selinger 2001-2017
</metadata>
<g transform="translate(0.000000,338.000000) scale(0.100000,-0.100000)"
fill="#000000" stroke="none">
<path d="M750 1690 l0 -1690 190 0 190 0 0 95 0 95 90 0 90 0 0 95 0 95 285 0
285 0 0 -190 0 -190 185 0 185 0 0 95 0 95 95 0 95 0 0 95 0 95 95 0 95 0 0
1500 0 1500 -940 0 -940 0 0 -1690z m1690 655 l0 -285 -95 0 -95 0 0 -185 0
-185 95 0 95 0 0 -280 0 -280 -750 0 -750 0 0 465 0 465 95 0 95 0 0 190 0
190 90 0 90 0 0 95 0 95 565 0 565 0 0 -285z"/>
<path d="M1310 1875 l0 -185 190 0 190 0 0 185 0 185 -190 0 -190 0 0 -185z"/>
</g>
</svg>
